<svg width="837" height="708" fill="none" xmlns="http://www.w3.org/2000/svg">
  <g filter="url(#a)">
    <rect x="143" width="694" height="658" rx="40" fill="url(#b)"/>
    <g filter="url(#c)">
      <rect x="200" y="521" width="326" height="74" rx="37" fill="url(#d)" fill-opacity=".8"/>
      <path d="m244.503 559.251-1.482-4.446a3.248 3.248 0 0 0-3.082-2.222h-9.878a3.247 3.247 0 0 0-3.082 2.222l-1.482 4.446a2.162 2.162 0 0 0-1.33 1.999v3.25c0 .8.437 1.491 1.083 1.867v1.383a1.084 1.084 0 0 0 1.083 1.083h1.084a1.086 1.086 0 0 0 1.083-1.083v-1.083h13v1.083a1.084 1.084 0 0 0 1.083 1.083h1.084a1.086 1.086 0 0 0 1.083-1.083v-1.383a2.161 2.161 0 0 0 1.083-1.867v-3.25c0-.9-.549-1.67-1.33-1.999Zm-14.442-4.501h9.877a1.082 1.082 0 0 1 1.028.741l1.198 3.592h-14.328l1.197-3.592a1.084 1.084 0 0 1 1.028-.741Zm-2.103 9.75a1.62 1.62 0 0 1-1.149-.476 1.627 1.627 0 1 1 1.149.476Zm14.084 0a1.626 1.626 0 1 1 .001-3.249 1.626 1.626 0 0 1-.001 3.249Zm-14.325-14.083a2.16 2.16 0 0 0 1.866 1.083c.8 0 1.491-.439 1.867-1.083h7.101a2.158 2.158 0 0 0 1.866 1.083 2.16 2.16 0 0 0 1.866-1.083h-1.866v-2.167h1.866a2.159 2.159 0 0 0-1.866-1.083c-.8 0-1.491.438-1.867 1.083h-7.1a2.159 2.159 0 0 0-1.867-1.083c-.799 0-1.49.438-1.866 1.083h1.866v2.167h-1.866ZM268.7 566v-2.36h-6.52v-3.88h5.84v-2.26h-5.84v-3.76h6.52v-2.36h-9.08V566h9.08Zm4.855 0v-5.6c0-1.6.94-2.36 2.1-2.36 1.16 0 1.9.74 1.9 2.12V566h2.44v-5.6c0-1.62.9-2.38 2.08-2.38 1.16 0 1.92.74 1.92 2.16V566h2.42v-6.46c0-2.28-1.32-3.72-3.72-3.72-1.5 0-2.66.74-3.16 1.88-.52-1.14-1.56-1.88-3.06-1.88-1.42 0-2.42.64-2.92 1.46l-.2-1.16h-2.24V566h2.44Zm19.676.26c2.58 0 4.38-1.3 4.8-3.46h-2.26c-.28.94-1.16 1.46-2.5 1.46-1.62 0-2.54-.88-2.72-2.62l7.44-.02v-.74c0-3.08-1.88-5.06-4.84-5.06-2.9 0-4.92 2.14-4.92 5.24 0 3.06 2.06 5.2 5 5.2Zm-.06-8.44c1.46 0 2.4.9 2.4 2.26h-4.96c.24-1.48 1.12-2.26 2.56-2.26Zm9.233 8.18v-2.66l1.44-1.5 2.58 4.16h2.8l-3.68-5.96 3.76-3.92h-3.06l-3.84 4.14v-9.14h-2.42V566h2.42Zm10.929.26c1.54 0 2.88-.7 3.3-1.72l.18 1.46h2.14v-6c0-2.74-1.64-4.18-4.3-4.18-2.68 0-4.44 1.4-4.44 3.54h2.08c0-1.04.8-1.64 2.24-1.64 1.24 0 2.04.54 2.04 1.88v.22l-2.96.22c-2.34.18-3.66 1.32-3.66 3.14 0 1.86 1.28 3.08 3.38 3.08Zm.8-1.84c-1.1 0-1.7-.44-1.7-1.34 0-.8.58-1.3 2.1-1.44l2.06-.16v.52c0 1.52-.96 2.42-2.46 2.42Zm22.362 1.58h2.84l-2.38-2.68c.74-1.16 1.14-2.62 1.14-4.32h-2.38c0 .96-.14 1.8-.4 2.5l-2.94-3.3c1.82-1.22 2.6-2.38 2.6-3.84 0-1.9-1.48-3.22-3.62-3.22-2.16 0-3.74 1.4-3.74 3.34 0 1.1.44 2 1.58 3.32-2.24 1.08-3.4 2.54-3.4 4.32 0 2.46 2.14 4.14 5.32 4.14 1.76 0 3.24-.48 4.4-1.36l.98 1.1Zm-6.56-11.54c0-.86.54-1.38 1.42-1.38.84 0 1.36.5 1.36 1.36 0 1-.5 1.82-1.52 2.42-.94-1.08-1.26-1.68-1.26-2.4Zm-1.56 7.42c0-1.14.62-1.98 2-2.76l3.72 4.18c-.7.56-1.6.86-2.7.86-1.88 0-3.02-.86-3.02-2.28Zm16.596-6.42c0 2.24 1.3 3.66 3.78 4.2l2.32.52c1.2.26 1.7.84 1.7 1.82 0 1.22-1.08 1.96-2.78 1.96-1.64 0-2.64-.74-2.66-1.98h-2.56c.06 2.62 2.1 4.28 5.22 4.28 3.22 0 5.34-1.76 5.34-4.48 0-2.18-1.22-3.46-3.72-4l-2.3-.5c-1.22-.28-1.78-.86-1.78-1.9 0-1.22 1.02-1.98 2.6-1.98 1.44 0 2.34.74 2.4 2h2.56c-.08-2.64-1.96-4.28-4.92-4.28-3.08 0-5.2 1.78-5.2 4.34Zm11.736 5.58c0 3.08 2.22 5.2 5.28 5.2s5.28-2.12 5.28-5.2-2.22-5.2-5.28-5.2-5.28 2.12-5.28 5.2Zm2.44 0c0-1.8 1.16-3.02 2.84-3.02s2.84 1.22 2.84 3.02-1.16 3.02-2.84 3.02-2.84-1.22-2.84-3.02Zm12.494 4.96v-5.32c0-1.6.92-2.64 2.42-2.64 1.26 0 2.08.8 2.08 2.46v5.5h2.44v-6.08c0-2.56-1.28-4.1-3.76-4.1-1.34 0-2.54.58-3.16 1.58l-.2-1.28h-2.26V566h2.44Zm8.461-3c0 1.94 1.56 3.26 4.02 3.26 2.44 0 4.14-1.24 4.14-3.24 0-1.52-.84-2.28-2.5-2.66l-1.78-.42c-.84-.2-1.28-.56-1.28-1.12 0-.74.56-1.18 1.52-1.18.94 0 1.5.54 1.52 1.38h2.32c-.02-1.92-1.52-3.2-3.74-3.2-2.28 0-3.92 1.16-3.92 3.1 0 1.58.86 2.42 2.64 2.82l1.78.42c.88.2 1.14.56 1.14 1.06 0 .72-.62 1.18-1.76 1.18-1.12 0-1.76-.54-1.78-1.4h-2.32Zm17.028 3 1.18-3.38h5.46l1.18 3.38h2.7l-5.28-14.62h-2.62L394.47 566h2.66Zm3.6-10.26c.14-.4.26-.84.32-1.12.04.3.18.74.3 1.12l1.68 4.72h-3.96l1.66-4.72Zm14.722.38v5.18c0 1.88-.74 2.78-2.28 2.78-1.36 0-2.1-.76-2.1-2.64v-5.32h-2.44v6.18c0 2.42 1.34 3.96 3.62 3.96 1.32 0 2.6-.64 3.2-1.58l.18 1.32h2.26v-9.88h-2.44Zm8.32 9.88v-7.84h1.92v-2.04h-1.92v-3.08h-2.44v3.08h-1.9v2.04h1.9V566h2.44Zm2.76-4.96c0 3.08 2.22 5.2 5.28 5.2s5.28-2.12 5.28-5.2-2.22-5.2-5.28-5.2-5.28 2.12-5.28 5.2Zm2.44 0c0-1.8 1.16-3.02 2.84-3.02s2.84 1.22 2.84 3.02-1.16 3.02-2.84 3.02-2.84-1.22-2.84-3.02Zm12.494 4.96v-5.6c0-1.6.94-2.36 2.1-2.36 1.16 0 1.9.74 1.9 2.12V566h2.44v-5.6c0-1.62.9-2.38 2.08-2.38 1.16 0 1.92.74 1.92 2.16V566h2.42v-6.46c0-2.28-1.32-3.72-3.72-3.72-1.5 0-2.66.74-3.16 1.88-.52-1.14-1.56-1.88-3.06-1.88-1.42 0-2.42.64-2.92 1.46l-.2-1.16h-2.24V566h2.44Zm14.675-4.96c0 3.08 2.22 5.2 5.28 5.2s5.28-2.12 5.28-5.2-2.22-5.2-5.28-5.2-5.28 2.12-5.28 5.2Zm2.44 0c0-1.8 1.16-3.02 2.84-3.02s2.84 1.22 2.84 3.02-1.16 3.02-2.84 3.02-2.84-1.22-2.84-3.02Zm12.314 4.96.16-1.54c.58 1.14 1.84 1.8 3.32 1.8 2.84 0 4.7-2.1 4.7-5.14 0-3.12-1.72-5.32-4.54-5.32-1.5 0-2.82.66-3.46 1.76v-6.44h-2.44V566h2.26Zm.2-4.98c0-1.78 1.1-3.02 2.78-3.02 1.72 0 2.74 1.26 2.74 3.02s-1.02 3-2.74 3c-1.68 0-2.78-1.22-2.78-3Zm11.143-6.88c.8 0 1.46-.66 1.46-1.48s-.66-1.46-1.46-1.46c-.84 0-1.5.64-1.5 1.46s.66 1.48 1.5 1.48Zm-1.22 11.86h2.44v-9.88h-2.44V566Zm7.421 0v-14.88h-2.42V566h2.42Zm6.979.26c2.58 0 4.38-1.3 4.8-3.46h-2.26c-.28.94-1.16 1.46-2.5 1.46-1.62 0-2.54-.88-2.72-2.62l7.44-.02v-.74c0-3.08-1.88-5.06-4.84-5.06-2.9 0-4.92 2.14-4.92 5.24 0 3.06 2.06 5.2 5 5.2Zm-.06-8.44c1.46 0 2.4.9 2.4 2.26h-4.96c.24-1.48 1.12-2.26 2.56-2.26Z" fill="#fff"/>
      <rect x="201" y="522" width="324" height="72" rx="36" stroke="url(#e)" stroke-width="2"/>
      <rect x="201" y="522" width="324" height="72" rx="36" stroke="url(#f)" stroke-width="2"/>
      <rect x="201" y="522" width="324" height="72" rx="36" stroke="url(#g)" stroke-width="2"/>
    </g>
    <rect x="144.5" y="1.5" width="691" height="655" rx="38.5" stroke="url(#h)" stroke-width="3"/>
    <rect x="144.5" y="1.5" width="691" height="655" rx="38.5" stroke="url(#i)" stroke-width="3"/>
    <rect x="144.5" y="1.5" width="691" height="655" rx="38.5" stroke="url(#j)" stroke-width="3"/>
  </g>
  <path d="M226.6 177v-6.18c0-2.02-.04-3.5-.14-4.2l4.2 10.38h1.84l4.22-10.42c-.1 1.02-.12 2-.12 4.7V177h1.92v-14.46h-1.96l-4.98 12.16-4.98-12.16h-1.92V177h1.92Zm14.327-4.9c0 3.02 2.16 5.14 5.1 5.14 2.92 0 5.08-2.12 5.08-5.14 0-3.02-2.16-5.14-5.08-5.14-2.94 0-5.1 2.12-5.1 5.14Zm1.9 0c0-2.04 1.3-3.46 3.2-3.46 1.88 0 3.2 1.42 3.2 3.46s-1.32 3.46-3.2 3.46c-1.9 0-3.2-1.42-3.2-3.46ZM639.188 166.44c0 2.08 1.22 3.44 3.58 3.98l2.38.54c1.38.32 2 1.04 2 2.18 0 1.44-1.22 2.34-3.14 2.34-1.82 0-2.98-.88-3.02-2.26h-2c.12 2.48 2.08 4.02 5.02 4.02 3.08 0 5.1-1.66 5.1-4.26 0-2.04-1.2-3.32-3.56-3.86l-2.38-.56c-1.36-.32-2.02-1.02-2.02-2.18 0-1.42 1.18-2.34 3-2.34 1.62 0 2.64.84 2.74 2.28h1.98c-.16-2.5-1.94-4.04-4.7-4.04-2.98 0-4.98 1.68-4.98 4.16Zm14.923 10.8c1.58 0 2.92-.7 3.42-1.82l.2 1.58h1.6v-6.14c0-2.64-1.64-3.92-4.06-3.92-2.52 0-4.2 1.34-4.2 3.38h1.64c0-1.18.9-1.88 2.48-1.88 1.32 0 2.3.58 2.3 2.22v.28l-3.08.24c-2.3.18-3.64 1.3-3.64 3.1 0 1.78 1.24 2.96 3.34 2.96Zm.54-1.46c-1.22 0-1.98-.52-1.98-1.56 0-.96.68-1.6 2.34-1.76l2.5-.2v.52c0 1.84-1.08 3-2.86 3ZM574.567 170.86v-1.78h-5.68v-4.74h6.76v-1.8h-8.72V177h1.96v-6.14h5.68Zm8.128-3.72c-.38-.08-.66-.12-1-.12-1.34 0-2.32.68-2.72 1.7l-.12-1.48h-1.76V177h1.88v-5.18c0-1.88 1.1-2.96 2.88-2.96h.84v-1.72ZM475.812 164.34h4.36V177h1.96v-12.66h4.34v-1.8h-10.66v1.8Zm14.19 12.64v-5.32c0-1.68.98-3 2.8-3 1.4 0 2.34.8 2.34 2.78V177h1.88v-5.98c0-2.5-1.2-4.08-3.7-4.08-1.52 0-2.7.72-3.32 1.78v-6.44h-1.88v14.7h1.88ZM387.094 177h1.92l3.54-11.44 3.5 11.44h1.88l4.36-14.46h-2l-2.66 8.86c-.2.64-.4 1.38-.64 2.6-.22-1.08-.42-1.84-.66-2.62l-2.72-8.84h-2.12l-2.74 8.84c-.22.76-.44 1.46-.68 2.62-.2-1.1-.4-1.86-.6-2.62l-2.64-8.84h-2.04l4.3 14.46Zm19.808.24c2.42 0 4.06-1.18 4.54-3.28h-1.76c-.32 1.12-1.28 1.72-2.74 1.72-1.86 0-2.94-1.14-3.08-3.2l7.56-.02v-.7c0-2.9-1.82-4.82-4.6-4.82-2.84 0-4.78 2.12-4.78 5.18 0 3.04 1.98 5.12 4.86 5.12Zm-.08-8.72c1.66 0 2.72 1.08 2.72 2.7h-5.64c.24-1.72 1.28-2.7 2.92-2.7ZM303.027 164.34h4.36V177h1.96v-12.66h4.34v-1.8h-10.66v1.8Zm17.879 2.88v5.16c0 2.1-.94 3.2-2.66 3.2-1.44 0-2.34-.8-2.34-2.9v-5.46h-1.88v6.08c0 2.4 1.28 3.94 3.56 3.94 1.44 0 2.74-.7 3.3-1.72l.2 1.48h1.68v-9.78h-1.86Z" fill="#ADADAD"/>
  <path d="M240.326 233.102v-1.82h-6.68l3-2.6c2.56-2.22 3.58-3.68 3.58-5.74 0-2.78-1.86-4.54-4.76-4.54-2.94 0-4.9 2.02-4.96 5.12h1.96c.04-2.06 1.2-3.36 2.98-3.36 1.74 0 2.78 1.08 2.78 2.9 0 1.54-.66 2.52-3 4.54l-4.66 4.02v1.5l9.76-.02Zm10.223-4.56c1.48-2.02 2-3.24 2-4.94 0-2.94-2.32-5.2-5.32-5.2-2.98 0-5.26 2.18-5.26 5.18 0 2.88 2.02 5.04 5.02 5.04.5 0 1.02-.1 1.52-.3l-3.62 4.8h2.28l3.38-4.58Zm0-4.96c0 1.98-1.36 3.38-3.32 3.38-1.92 0-3.28-1.4-3.28-3.38s1.36-3.42 3.28-3.42c1.96 0 3.32 1.44 3.32 3.42Z" fill="#A0A0A0"/>
  <path d="M715.189 362.599v12.7h1.88v-14.46h-4.92v1.76h3.04Zm12.946 8.12c1.48-2.02 2-3.24 2-4.94 0-2.94-2.32-5.2-5.32-5.2-2.98 0-5.26 2.18-5.26 5.18 0 2.88 2.02 5.04 5.02 5.04.5 0 1.02-.1 1.52-.3l-3.62 4.8h2.28l3.38-4.58Zm0-4.96c0 1.98-1.36 3.38-3.32 3.38-1.92 0-3.28-1.4-3.28-3.38s1.36-3.42 3.28-3.42c1.96 0 3.32 1.44 3.32 3.42ZM648.734 362.599v12.7h1.88v-14.46h-4.92v1.76h3.04Zm4.407 8.68c0 2.56 2.1 4.26 5.32 4.26 3.2 0 5.32-1.7 5.32-4.24 0-1.78-1.04-3.22-2.66-3.74 1.36-.54 2.12-1.68 2.12-3.16 0-2.28-1.92-3.82-4.76-3.82-2.88 0-4.82 1.54-4.82 3.8 0 1.46.74 2.6 2.1 3.18-1.6.58-2.62 1.98-2.62 3.72Zm2.32-6.78c0-1.34 1.18-2.22 2.98-2.22 1.82 0 2.96.88 2.96 2.26 0 1.4-1.14 2.3-2.96 2.3-1.8 0-2.98-.92-2.98-2.34Zm-.4 6.64c0-1.6 1.32-2.62 3.38-2.62 2.08 0 3.4 1.02 3.4 2.62 0 1.62-1.34 2.66-3.38 2.66-2.06 0-3.4-1.04-3.4-2.66ZM572.31 362.599v12.7h1.88v-14.46h-4.92v1.76h3.04Zm4.037-1.76v1.8h8.12l-5.54 12.66h2.04l5.48-12.66v-1.8h-10.1ZM489.24 362.599v12.7h1.88v-14.46h-4.92v1.76h3.04Zm6.365 2.82c-1.48 2.02-2 3.22-2 4.94 0 2.92 2.32 5.18 5.32 5.18 2.98 0 5.26-2.16 5.26-5.18 0-2.86-2.02-5.02-5.02-5.02-.5 0-1.02.1-1.52.3l3.62-4.8h-2.28l-3.38 4.58Zm0 4.96c0-1.98 1.36-3.38 3.32-3.38 1.92 0 3.28 1.4 3.28 3.38s-1.36 3.4-3.28 3.4c-1.96 0-3.32-1.42-3.32-3.4ZM399.525 362.599v12.7h1.88v-14.46h-4.92v1.76h3.04Zm9.307 12.94c3.12 0 5.26-2.1 5.26-5.1 0-2.78-1.9-4.84-4.84-4.84-1.08 0-2.04.3-2.8.88l.96-3.84h5.82v-1.8h-7.24l-1.76 7.42 1.66.42c.66-.82 1.78-1.4 3-1.4 2.02 0 3.2 1.38 3.2 3.24 0 1.96-1.26 3.26-3.22 3.26-1.84 0-2.98-1.14-2.98-3h-1.94c0 2.88 1.92 4.76 4.88 4.76ZM715.189 291.511v12.7h1.88v-14.46h-4.92v1.76h3.04Zm14.226 12.68v-1.82h-6.68l3-2.6c2.56-2.22 3.58-3.68 3.58-5.74 0-2.78-1.86-4.54-4.76-4.54-2.94 0-4.9 2.02-4.96 5.12h1.96c.04-2.06 1.2-3.36 2.98-3.36 1.74 0 2.78 1.08 2.78 2.9 0 1.54-.66 2.52-3 4.54l-4.66 4.02v1.5l9.76-.02ZM652.057 291.511v12.7h1.88v-14.46h-4.92v1.76h3.04Zm7.109 0v12.7h1.88v-14.46h-4.92v1.76h3.04ZM498.223 299.631c1.48-2.02 2-3.24 2-4.94 0-2.94-2.32-5.2-5.32-5.2-2.98 0-5.26 2.18-5.26 5.18 0 2.88 2.02 5.04 5.02 5.04.5 0 1.02-.1 1.52-.3l-3.62 4.8h2.28l3.38-4.58Zm0-4.96c0 1.98-1.36 3.38-3.32 3.38-1.92 0-3.28-1.4-3.28-3.38s1.36-3.42 3.28-3.42c1.96 0 3.32 1.44 3.32 3.42ZM309.81 362.599v12.7h1.88v-14.46h-4.92v1.76h3.04Zm15.305 9.78v-1.74h-1.72v-9.8h-2.54l-6.82 9.8v1.74h7.48v2.92h1.88v-2.92h1.72Zm-8.96-1.74 5.36-7.72v7.72h-5.36ZM400.048 300.191c0 2.56 2.1 4.26 5.32 4.26 3.2 0 5.32-1.7 5.32-4.24 0-1.78-1.04-3.22-2.66-3.74 1.36-.54 2.12-1.68 2.12-3.16 0-2.28-1.92-3.82-4.76-3.82-2.88 0-4.82 1.54-4.82 3.8 0 1.46.74 2.6 2.1 3.18-1.6.58-2.62 1.98-2.62 3.72Zm2.32-6.78c0-1.34 1.18-2.22 2.98-2.22 1.82 0 2.96.88 2.96 2.26 0 1.4-1.14 2.3-2.96 2.3-1.8 0-2.98-.92-2.98-2.34Zm-.4 6.64c0-1.6 1.32-2.62 3.38-2.62 2.08 0 3.4 1.02 3.4 2.62 0 1.62-1.34 2.66-3.38 2.66-2.06 0-3.4-1.04-3.4-2.66ZM312.875 289.751v1.8h8.12l-5.54 12.66h2.04l5.48-12.66v-1.8h-10.1ZM720.612 233.362c3.12 0 5.26-2.1 5.26-5.1 0-2.78-1.9-4.84-4.84-4.84-1.08 0-2.04.3-2.8.88l.96-3.84h5.82v-1.8h-7.24l-1.76 7.42 1.66.42c.66-.82 1.78-1.4 3-1.4 2.02 0 3.2 1.38 3.2 3.24 0 1.96-1.26 3.26-3.22 3.26-1.84 0-2.98-1.14-2.98-3h-1.94c0 2.88 1.92 4.76 4.88 4.76ZM660.077 230.202v-1.74h-1.72v-9.8h-2.54l-6.82 9.8v1.74h7.48v2.92h1.88v-2.92h1.72Zm-8.96-1.74 5.36-7.72v7.72h-5.36ZM577.012 225.642c2.3 0 3.5 1.16 3.5 2.9 0 1.86-1.22 3.06-3.1 3.06-1.82 0-2.98-1.1-2.98-2.98h-1.94c0 3 2.04 4.74 4.88 4.74 2.94 0 5.14-1.86 5.14-4.78 0-2.6-1.86-4.26-4.32-4.56l3.96-3.78v-1.58h-8.98v1.74h6.5l-4.1 3.94v1.3h1.44ZM499.503 233.102v-1.82h-6.68l3-2.6c2.56-2.22 3.58-3.68 3.58-5.74 0-2.78-1.86-4.54-4.76-4.54-2.94 0-4.9 2.02-4.96 5.12h1.96c.04-2.06 1.2-3.36 2.98-3.36 1.74 0 2.78 1.08 2.78 2.9 0 1.54-.66 2.52-3 4.54l-4.66 4.02v1.5l9.76-.02ZM402.848 220.422v12.7h1.88v-14.46h-4.92v1.76h3.04ZM232.904 361.581v11.718h1.242v-12.888h-3.87v1.17h2.628Zm7.307 4.806c2.304 0 3.564 1.098 3.564 2.862 0 1.872-1.242 3.096-3.168 3.096-1.818 0-2.97-1.116-2.97-2.97h-1.278c0 2.574 1.71 4.14 4.248 4.14 2.61 0 4.482-1.674 4.482-4.23 0-2.34-1.728-3.87-4.14-3.996l3.852-3.834v-1.044h-7.812v1.152h6.174l-3.978 3.924v.9h1.026ZM242.062 293.661c-1.206 1.656-1.62 2.7-1.62 4.194 0 2.574 2.034 4.572 4.626 4.572 2.574 0 4.572-1.926 4.572-4.572 0-2.52-1.782-4.482-4.464-4.482-.594 0-1.152.126-1.764.432l3.384-4.482h-1.512l-3.222 4.338Zm-.306 4.212c0-1.962 1.35-3.366 3.312-3.366 1.908 0 3.276 1.404 3.276 3.366 0 1.962-1.368 3.384-3.276 3.384-1.962 0-3.312-1.422-3.312-3.384Z" fill="#F5F5F5"/>
  <path d="M307.301 224.21c2.304 0 3.564 1.098 3.564 2.862 0 1.872-1.242 3.096-3.168 3.096-1.818 0-2.97-1.116-2.97-2.97h-1.278c0 2.574 1.71 4.14 4.248 4.14 2.61 0 4.482-1.674 4.482-4.23 0-2.34-1.728-3.87-4.14-3.996l3.852-3.834v-1.044h-7.812v1.152h6.174l-3.978 3.924v.9h1.026Zm6.666.468c0 4.014 1.926 6.678 5.166 6.678 3.222 0 5.148-2.664 5.148-6.678 0-3.996-1.962-6.696-5.148-6.696-3.204 0-5.166 2.7-5.166 6.696Zm1.278 0c0-3.366 1.422-5.508 3.888-5.508s3.888 2.142 3.888 5.508c0 3.348-1.422 5.508-3.888 5.508s-3.888-2.16-3.888-5.508Z" fill="#ADADAD"/>
  <path d="M552.203 272.204a6 6 0 0 1 6-6h43.814a3 3 0 0 1 3 3v47.493a6 6 0 0 1-6 6h-43.814a3 3 0 0 1-3-3v-47.493Z" fill="#F68537"/>
  <path d="M568.505 286.751v11.718h1.242v-12.888h-3.87v1.17h2.628Zm3.743 5.274c0 4.014 1.926 6.678 5.166 6.678 3.222 0 5.148-2.664 5.148-6.678 0-3.996-1.962-6.696-5.148-6.696-3.204 0-5.166 2.7-5.166 6.696Zm1.278 0c0-3.366 1.422-5.508 3.888-5.508s3.888 2.142 3.888 5.508c0 3.348-1.422 5.508-3.888 5.508s-3.888-2.16-3.888-5.508Z" fill="#F5F5F5"/>
  <path d="M717.995 171.338c0-.293-.046-.553-.137-.781a1.526 1.526 0 0 0-.459-.625c-.222-.189-.534-.371-.938-.547a12.37 12.37 0 0 0-1.523-.557 16.816 16.816 0 0 1-1.875-.693 7.152 7.152 0 0 1-1.485-.899 3.858 3.858 0 0 1-.986-1.181c-.234-.45-.351-.967-.351-1.553 0-.579.12-1.107.361-1.582a3.704 3.704 0 0 1 1.045-1.231 5.02 5.02 0 0 1 1.611-.81 6.798 6.798 0 0 1 2.051-.293c1.055 0 1.963.195 2.725.586.768.39 1.357.915 1.767 1.572.417.658.625 1.384.625 2.178h-2.431a2.48 2.48 0 0 0-.303-1.24 2.058 2.058 0 0 0-.899-.86c-.397-.208-.901-.312-1.513-.312-.58 0-1.062.088-1.446.263-.384.176-.67.414-.859.713-.189.3-.283.638-.283 1.016 0 .267.062.511.185.732.124.215.313.417.567.606.254.182.573.355.957.517.384.163.836.319 1.357.469.788.235 1.475.495 2.061.781.586.28 1.074.599 1.465.957.39.359.683.765.878 1.221.196.449.293.96.293 1.533 0 .599-.12 1.14-.361 1.621a3.49 3.49 0 0 1-1.035 1.221c-.443.332-.977.589-1.602.772a7.59 7.59 0 0 1-2.07.263 7.608 7.608 0 0 1-2.021-.273 5.949 5.949 0 0 1-1.797-.83 4.295 4.295 0 0 1-1.289-1.406c-.319-.567-.479-1.228-.479-1.983h2.451c0 .462.078.856.235 1.182.162.325.387.592.674.801.286.201.618.351.996.449.384.097.794.146 1.23.146.573 0 1.052-.081 1.436-.244.39-.163.683-.391.879-.683.195-.293.293-.632.293-1.016Zm10.751 1.172v-8.076h2.364V175h-2.227l-.137-2.49Zm.332-2.198.792-.019c0 .71-.079 1.364-.235 1.963a4.545 4.545 0 0 1-.723 1.553 3.371 3.371 0 0 1-1.25 1.025c-.507.241-1.116.361-1.826.361a4.3 4.3 0 0 1-1.416-.224 2.91 2.91 0 0 1-1.113-.694c-.306-.312-.544-.719-.713-1.22-.169-.502-.254-1.101-.254-1.797v-6.826h2.354v6.845c0 .384.045.707.136.967.092.254.215.459.372.615.156.157.338.267.546.332.209.065.43.098.664.098.671 0 1.198-.13 1.583-.391.39-.267.667-.625.83-1.074.169-.449.253-.954.253-1.514Z" fill="#ADADAD"/>
  <path d="M341.08 87.4v-2.6h-11.72V74h14v-2.64h-16.88V100h2.88V87.4h11.72Zm15.428-7c-.68-.16-1.2-.2-1.8-.2-2.72 0-4.76 1.36-5.52 3.44l-.2-3h-2.6V100h2.76V88.96c0-3.68 2.28-6.08 5.84-6.08h1.52V80.4Zm5.029-5.08c1.12 0 2.08-.92 2.08-2.04s-.96-2.08-2.08-2.08-2.04.96-2.04 2.08.92 2.04 2.04 2.04Zm-1.36 24.68h2.76V80.64h-2.76V100Zm23.969-26.04V100h2.76V71.36h-8.6v2.6h5.84Zm8.32 11.72c0 8.92 4.28 14.84 11.48 14.84 7.16 0 11.44-5.92 11.44-14.84 0-8.88-4.36-14.88-11.44-14.88-7.12 0-11.48 6-11.48 14.88Zm2.84 0c0-7.48 3.16-12.24 8.64-12.24s8.64 4.76 8.64 12.24c0 7.44-3.16 12.24-8.64 12.24s-8.64-4.8-8.64-12.24ZM424.89 100V82.96h3.88v-2.32h-3.88v-6.12h-2.72v6.12h-3.88v2.32h3.88V100h2.72Zm10.234-.04V89.44c0-3.72 2.16-6.8 6.32-6.8 3 0 5.12 1.6 5.12 6.12V100h2.76V88.16c0-4.88-2.28-8.04-7.36-8.04-3.24 0-5.6 1.56-6.84 3.88V70.84h-2.76v29.12h2.76Zm34.275.04V76.16l15.8 23.84h2.84V71.36h-2.84V95.2l-15.76-23.84h-2.92V100h2.88Zm23.676-9.68c0 5.88 4.16 10.16 9.84 10.16s9.84-4.28 9.84-10.16c0-5.92-4.16-10.2-9.84-10.2s-9.84 4.28-9.84 10.2Zm2.8-.04c0-4.48 2.88-7.68 7.04-7.68 4.12 0 7.04 3.2 7.04 7.68 0 4.56-2.92 7.72-7.04 7.72-4.16 0-7.04-3.16-7.04-7.72ZM521.71 100h2.76l8.04-19.36h-2.84l-5.08 12.48c-.56 1.4-1.08 2.68-1.44 4-.36-1.28-.88-2.6-1.4-4l-5-12.48h-2.96l7.92 19.36Zm15.886-1.36c0-2-1.24-3.16-2.68-3.16-1.4 0-2.36 1-2.36 2.4 0 1.36.96 2.16 2.08 2.16.48 0 .8-.12 1.04-.28 0 1.12-1.04 2.16-2.48 2.4v1.48c2.48-.36 4.4-2.52 4.4-5Zm34.482 1.36v-2.68h-14.44l6.68-5.84c5.72-5 7.6-7.76 7.6-11.92 0-5.24-3.6-8.72-9-8.72-5.64 0-9.44 3.96-9.6 9.96h2.88c.12-4.44 2.72-7.32 6.68-7.32 3.8 0 6.12 2.36 6.12 6.24 0 3.4-1.36 5.4-6.64 10l-9.16 8V100h18.88Zm3.981-14.32c0 8.92 4.28 14.84 11.48 14.84 7.16 0 11.44-5.92 11.44-14.84 0-8.88-4.36-14.88-11.44-14.88-7.12 0-11.48 6-11.48 14.88Zm2.84 0c0-7.48 3.16-12.24 8.64-12.24s8.64 4.76 8.64 12.24c0 7.44-3.16 12.24-8.64 12.24s-8.64-4.8-8.64-12.24ZM621.844 100v-2.68h-14.44l6.68-5.84c5.72-5 7.6-7.76 7.6-11.92 0-5.24-3.6-8.72-9-8.72-5.64 0-9.44 3.96-9.6 9.96h2.88c.12-4.44 2.72-7.32 6.68-7.32 3.8 0 6.12 2.36 6.12 6.24 0 3.4-1.36 5.4-6.64 10l-9.16 8V100h18.88Zm22.539 0v-2.68h-14.44l6.68-5.84c5.72-5 7.6-7.76 7.6-11.92 0-5.24-3.6-8.72-9-8.72-5.64 0-9.44 3.96-9.6 9.96h2.88c.12-4.44 2.72-7.32 6.68-7.32 3.8 0 6.12 2.36 6.12 6.24 0 3.4-1.36 5.4-6.64 10l-9.16 8V100h18.88Z" fill="#F5F5F5"/>
  <rect x="545" y="520" width="240" height="76" rx="38" fill="#FFD282"/>
  <path d="M577 561.856v-11.112M572.556 557.411l4.444 4.445 4.445-4.445" stroke="#000" stroke-width="2" stroke-linecap="round" stroke-linejoin="round"/>
  <path d="M577 566.3c5.523 0 10-4.477 10-10s-4.477-10-10-10-10 4.477-10 10 4.477 10 10 10Z" stroke="#000" stroke-width="2" stroke-linecap="round" stroke-linejoin="round"/>
  <path d="M603.46 563.8c4.28 0 7.16-2.92 7.16-7.22 0-4.32-2.92-7.24-7.24-7.24h-4.7v14.46h4.78Zm-.22-12.66c3.3 0 5.34 2.08 5.34 5.44 0 3.32-2.04 5.4-5.26 5.4h-2.68v-10.84h2.6Zm8.914 7.76c0 3.02 2.16 5.14 5.1 5.14 2.92 0 5.08-2.12 5.08-5.14 0-3.02-2.16-5.14-5.08-5.14-2.94 0-5.1 2.12-5.1 5.14Zm1.9 0c0-2.04 1.3-3.46 3.2-3.46 1.88 0 3.2 1.42 3.2 3.46s-1.32 3.46-3.2 3.46c-1.9 0-3.2-1.42-3.2-3.46Zm12.012 4.9h1.86l1.7-5.22c.36-1.18.54-1.82.64-2.3.1.54.3 1.3.62 2.28l1.7 5.24h1.78l3.34-9.78h-1.96l-1.64 5.08c-.28.86-.46 1.54-.62 2.32-.16-.7-.48-1.84-.64-2.32l-1.62-5.08h-1.92l-1.64 5.08c-.22.64-.48 1.46-.64 2.32-.18-.86-.38-1.6-.6-2.32l-1.62-5.08h-1.94l3.2 9.78Zm15.131 0v-5.18c0-1.9 1.02-3.16 2.78-3.16 1.44 0 2.36.8 2.36 2.78v5.56h1.88v-5.98c0-2.5-1.18-4.08-3.76-4.08-1.38 0-2.62.66-3.24 1.78l-.2-1.5h-1.7v9.78h1.88Zm11.544 0v-14.72h-1.88v14.72h1.88Zm2.128-4.9c0 3.02 2.16 5.14 5.1 5.14 2.92 0 5.08-2.12 5.08-5.14 0-3.02-2.16-5.14-5.08-5.14-2.94 0-5.1 2.12-5.1 5.14Zm1.9 0c0-2.04 1.3-3.46 3.2-3.46 1.88 0 3.2 1.42 3.2 3.46s-1.32 3.46-3.2 3.46c-1.9 0-3.2-1.42-3.2-3.46Zm13.221 5.14c1.58 0 2.92-.7 3.42-1.82l.2 1.58h1.6v-6.14c0-2.64-1.64-3.92-4.06-3.92-2.52 0-4.2 1.34-4.2 3.38h1.64c0-1.18.9-1.88 2.48-1.88 1.32 0 2.3.58 2.3 2.22v.28l-3.08.24c-2.3.18-3.64 1.3-3.64 3.1 0 1.78 1.24 2.96 3.34 2.96Zm.54-1.46c-1.22 0-1.98-.52-1.98-1.56 0-.96.68-1.6 2.34-1.76l2.5-.2v.52c0 1.84-1.08 3-2.86 3Zm11.203 1.46c1.56 0 2.88-.68 3.52-2.02l.16 1.78h1.68v-14.72h-1.86v6.52c-.66-1.2-1.92-1.86-3.42-1.86-2.9 0-4.64 2.2-4.64 5.2 0 2.98 1.72 5.1 4.56 5.1Zm.38-1.7c-1.92 0-3.04-1.44-3.04-3.46 0-2 1.12-3.44 3.04-3.44s3.1 1.44 3.1 3.44c0 2.04-1.18 3.46-3.1 3.46Zm15.441-13h-1.96v14.46h1.96v-14.46Zm4.932 14.46v-5.18c0-1.9 1.02-3.16 2.78-3.16 1.44 0 2.36.8 2.36 2.78v5.56h1.88v-5.98c0-2.5-1.18-4.08-3.76-4.08-1.38 0-2.62.66-3.24 1.78l-.2-1.5h-1.7v9.78h1.88Zm12.169 0h1.86l4.08-9.78h-1.96l-2.18 5.46c-.34.86-.66 1.7-.82 2.34-.16-.6-.44-1.42-.78-2.34l-2.14-5.46h-2l3.94 9.78Zm6.346-4.9c0 3.02 2.16 5.14 5.1 5.14 2.92 0 5.08-2.12 5.08-5.14 0-3.02-2.16-5.14-5.08-5.14-2.94 0-5.1 2.12-5.1 5.14Zm1.9 0c0-2.04 1.3-3.46 3.2-3.46 1.88 0 3.2 1.42 3.2 3.46s-1.32 3.46-3.2 3.46c-1.9 0-3.2-1.42-3.2-3.46Zm11.281-7.2c.68 0 1.24-.56 1.24-1.24 0-.7-.56-1.24-1.24-1.24-.68 0-1.24.54-1.24 1.24 0 .68.56 1.24 1.24 1.24Zm-.92 12.1h1.88v-9.78h-1.88v9.78Zm3.97-4.88c0 3.08 1.9 5.12 4.78 5.12 2.36 0 4.18-1.42 4.56-3.54h-1.88c-.34 1.16-1.34 1.86-2.68 1.86-1.78 0-2.92-1.36-2.92-3.46 0-2.12 1.22-3.48 3-3.48 1.26 0 2.26.66 2.58 1.9h1.88c-.34-2.18-2.06-3.58-4.52-3.58-2.86 0-4.8 2.12-4.8 5.18Zm15.543 5.12c2.42 0 4.06-1.18 4.54-3.28h-1.76c-.32 1.12-1.28 1.72-2.74 1.72-1.86 0-2.94-1.14-3.08-3.2l7.56-.02v-.7c0-2.9-1.82-4.82-4.6-4.82-2.84 0-4.78 2.12-4.78 5.18 0 3.04 1.98 5.12 4.86 5.12Zm-.08-8.72c1.66 0 2.72 1.08 2.72 2.7h-5.64c.24-1.72 1.28-2.7 2.92-2.7Z" fill="#000"/>
  <g filter="url(#k)">
    <rect x="195" y="424" width="590" height="74" rx="37" fill="url(#l)" fill-opacity=".8"/>
    <path d="M234.32 470v-7.416c0-2.424-.048-4.2-.168-5.04l5.04 12.456h2.208l5.064-12.504c-.12 1.224-.144 2.4-.144 5.64V470h2.304v-17.352h-2.352l-5.976 14.592-5.976-14.592h-2.304V470h2.304Zm23.024.288c2.904 0 4.872-1.416 5.448-3.936h-2.112c-.384 1.344-1.536 2.064-3.288 2.064-2.232 0-3.528-1.368-3.696-3.84l9.072-.024v-.84c0-3.48-2.184-5.784-5.52-5.784-3.408 0-5.736 2.544-5.736 6.216 0 3.648 2.376 6.144 5.832 6.144Zm-.096-10.464c1.992 0 3.264 1.296 3.264 3.24h-6.768c.288-2.064 1.536-3.24 3.504-3.24Zm14.76-1.656a5.444 5.444 0 0 0-1.2-.144c-1.608 0-2.784.816-3.264 2.04l-.144-1.776h-2.112V470h2.256v-6.216c0-2.256 1.32-3.552 3.456-3.552h1.008v-2.064Zm.926 5.976c0 3.696 2.28 6.144 5.736 6.144 2.832 0 5.016-1.704 5.472-4.248h-2.256c-.408 1.392-1.608 2.232-3.216 2.232-2.136 0-3.504-1.632-3.504-4.152 0-2.544 1.464-4.176 3.6-4.176 1.512 0 2.712.792 3.096 2.28h2.256c-.408-2.616-2.472-4.296-5.424-4.296-3.432 0-5.76 2.544-5.76 6.216Zm18.653 6.144c2.904 0 4.872-1.416 5.448-3.936h-2.112c-.384 1.344-1.536 2.064-3.288 2.064-2.232 0-3.528-1.368-3.696-3.84l9.072-.024v-.84c0-3.48-2.184-5.784-5.52-5.784-3.408 0-5.736 2.544-5.736 6.216 0 3.648 2.376 6.144 5.832 6.144Zm-.096-10.464c1.992 0 3.264 1.296 3.264 3.24h-6.768c.288-2.064 1.536-3.24 3.504-3.24Zm12.743 10.464c1.872 0 3.456-.816 4.224-2.424l.192 2.136h2.016v-17.664h-2.232v7.824c-.792-1.44-2.304-2.232-4.104-2.232-3.48 0-5.568 2.64-5.568 6.24 0 3.576 2.064 6.12 5.472 6.12Zm.456-2.04c-2.304 0-3.648-1.728-3.648-4.152 0-2.4 1.344-4.128 3.648-4.128 2.304 0 3.72 1.728 3.72 4.128 0 2.448-1.416 4.152-3.72 4.152Zm14.295 2.04c2.904 0 4.872-1.416 5.448-3.936h-2.112c-.384 1.344-1.536 2.064-3.288 2.064-2.232 0-3.528-1.368-3.696-3.84l9.072-.024v-.84c0-3.48-2.184-5.784-5.52-5.784-3.408 0-5.736 2.544-5.736 6.216 0 3.648 2.376 6.144 5.832 6.144Zm-.096-10.464c1.992 0 3.264 1.296 3.264 3.24h-6.768c.288-2.064 1.536-3.24 3.504-3.24ZM335.119 470v-1.896h-6.384l6.384-7.992v-1.848h-9.144v1.896h6.336l-6.336 8.016V470h9.144Zm9.491 0h6.864c3.432 0 5.52-1.752 5.52-4.632 0-2.064-.984-3.456-2.904-4.08 1.728-.72 2.592-2.064 2.592-4.056 0-2.856-2.064-4.584-5.448-4.584h-6.624V470Zm6.48-15.264c2.04 0 3.192.984 3.192 2.712 0 1.8-1.104 2.856-3.048 2.856h-4.272v-5.568h4.128Zm.336 7.608c1.992 0 3.144 1.008 3.144 2.736 0 1.8-1.128 2.832-3.144 2.832h-4.464v-5.568h4.464Zm13.192 7.944c2.904 0 4.872-1.416 5.448-3.936h-2.112c-.384 1.344-1.536 2.064-3.288 2.064-2.232 0-3.528-1.368-3.696-3.84l9.072-.024v-.84c0-3.48-2.184-5.784-5.52-5.784-3.408 0-5.736 2.544-5.736 6.216 0 3.648 2.376 6.144 5.832 6.144Zm-.096-10.464c1.992 0 3.264 1.296 3.264 3.24h-6.768c.288-2.064 1.536-3.24 3.504-3.24ZM374.818 470v-6.216c0-2.28 1.224-3.792 3.336-3.792 1.728 0 2.832.96 2.832 3.336V470h2.256v-7.176c0-3-1.416-4.896-4.512-4.896-1.656 0-3.144.792-3.888 2.136l-.24-1.8h-2.04V470h2.256Zm19.972 0v-1.896h-6.384l6.384-7.992v-1.848h-9.144v1.896h6.336l-6.336 8.016V470h9.144Zm16.692.264c3.912 0 7.008-2.304 7.752-5.76h-2.496c-.648 2.136-2.664 3.504-5.208 3.504-3.504 0-5.808-2.64-5.808-6.696 0-4.056 2.304-6.696 5.808-6.696 2.52 0 4.464 1.368 5.112 3.624h2.52c-.648-3.552-3.648-5.88-7.56-5.88-4.968 0-8.352 3.624-8.352 8.976 0 5.376 3.288 8.928 8.232 8.928Zm14.764-9.24c2.76 0 4.2 1.392 4.2 3.48 0 2.232-1.464 3.672-3.72 3.672-2.184 0-3.576-1.32-3.576-3.576h-2.328c0 3.6 2.448 5.688 5.856 5.688 3.528 0 6.168-2.232 6.168-5.736 0-3.12-2.232-5.112-5.184-5.472l4.752-4.536v-1.896h-10.776v2.088h7.8l-4.92 4.728v1.56h1.728Zm8.672.312c0 5.4 2.664 8.976 7.152 8.976 4.464 0 7.128-3.576 7.128-8.976 0-5.376-2.784-9.024-7.128-9.024-4.368 0-7.152 3.648-7.152 9.024Zm2.328 0c0-4.32 1.776-6.912 4.824-6.912s4.8 2.592 4.8 6.912c0 4.272-1.752 6.864-4.8 6.864s-4.824-2.592-4.824-6.864Zm14.313 0c0 5.4 2.664 8.976 7.152 8.976 4.464 0 7.128-3.576 7.128-8.976 0-5.376-2.784-9.024-7.128-9.024-4.368 0-7.152 3.648-7.152 9.024Zm2.328 0c0-4.32 1.776-6.912 4.824-6.912s4.8 2.592 4.8 6.912c0 4.272-1.752 6.864-4.8 6.864s-4.824-2.592-4.824-6.864Zm20.707-4.008c0 2.496 1.464 4.128 4.296 4.776l2.856.648c1.656.384 2.4 1.248 2.4 2.616 0 1.728-1.464 2.808-3.768 2.808-2.184 0-3.576-1.056-3.624-2.712h-2.4c.144 2.976 2.496 4.824 6.024 4.824 3.696 0 6.12-1.992 6.12-5.112 0-2.448-1.44-3.984-4.272-4.632l-2.856-.672c-1.632-.384-2.424-1.224-2.424-2.616 0-1.704 1.416-2.808 3.6-2.808 1.944 0 3.168 1.008 3.288 2.736h2.376c-.192-3-2.328-4.848-5.64-4.848-3.576 0-5.976 2.016-5.976 4.992Zm19.54 12.96c2.904 0 4.872-1.416 5.448-3.936h-2.112c-.384 1.344-1.536 2.064-3.288 2.064-2.232 0-3.528-1.368-3.696-3.84l9.071-.024v-.84c0-3.48-2.183-5.784-5.519-5.784-3.408 0-5.736 2.544-5.736 6.216 0 3.648 2.376 6.144 5.832 6.144Zm-.096-10.464c1.992 0 3.264 1.296 3.264 3.24h-6.768c.288-2.064 1.536-3.24 3.504-3.24Zm14.759-1.656a5.444 5.444 0 0 0-1.2-.144c-1.608 0-2.784.816-3.264 2.04l-.144-1.776h-2.112V470h2.256v-6.216c0-2.256 1.32-3.552 3.456-3.552h1.008v-2.064ZM514.553 470h2.232l4.896-11.736h-2.352l-2.616 6.552c-.408 1.032-.792 2.04-.984 2.808-.192-.72-.528-1.704-.936-2.808l-2.568-6.552h-2.4L514.553 470Zm10.027-14.52c.816 0 1.488-.672 1.488-1.488a1.48 1.48 0 0 0-1.488-1.488 1.48 1.48 0 0 0-1.488 1.488c0 .816.672 1.488 1.488 1.488ZM523.476 470h2.256v-11.736h-2.256V470Zm4.763-5.856c0 3.696 2.28 6.144 5.736 6.144 2.832 0 5.016-1.704 5.472-4.248h-2.256c-.408 1.392-1.608 2.232-3.216 2.232-2.136 0-3.504-1.632-3.504-4.152 0-2.544 1.464-4.176 3.6-4.176 1.512 0 2.712.792 3.096 2.28h2.256c-.408-2.616-2.472-4.296-5.424-4.296-3.432 0-5.76 2.544-5.76 6.216Zm14.692-8.664c.816 0 1.488-.672 1.488-1.488a1.48 1.48 0 0 0-1.488-1.488 1.48 1.48 0 0 0-1.488 1.488c0 .816.672 1.488 1.488 1.488ZM541.827 470h2.256v-11.736h-2.256V470Zm7.788 0v-6.216c0-2.28 1.224-3.792 3.336-3.792 1.728 0 2.832.96 2.832 3.336V470h2.256v-7.176c0-3-1.416-4.896-4.512-4.896-1.656 0-3.144.792-3.888 2.136l-.24-1.8h-2.04V470h2.256Zm10.804-6.168c0 3.288 2.112 5.856 5.448 5.856 1.848 0 3.384-.816 4.152-2.184v2.352c0 2.232-1.44 3.672-3.648 3.672-1.968 0-3.264-1.008-3.552-2.736h-2.256c.432 2.976 2.616 4.776 5.808 4.776 3.6 0 5.88-2.352 5.88-6.048v-11.256h-2.016l-.168 1.992c-.744-1.464-2.208-2.328-4.104-2.328-3.408 0-5.544 2.592-5.544 5.904Zm2.256-.048c0-2.16 1.344-3.888 3.6-3.888 2.304 0 3.648 1.632 3.648 3.888 0 2.304-1.392 3.936-3.672 3.936-2.208 0-3.576-1.728-3.576-3.936Z" fill="#fff"/>
    <rect x="196" y="425" width="588" height="72" rx="36" stroke="url(#m)" stroke-width="2"/>
    <rect x="196" y="425" width="588" height="72" rx="36" stroke="url(#n)" stroke-width="2"/>
    <rect x="196" y="425" width="588" height="72" rx="36" stroke="url(#o)" stroke-width="2"/>
  </g>
  <rect x="344" y="638" width="160" height="70" rx="35" fill="#FFD282"/>
  <path fill-rule="evenodd" clip-rule="evenodd" d="M378.823 673.934v-3.284h.988l2.181 3.284h-3.169Zm-2.758 2.188v4.378h2.758v-4.378h4.622l2.907 4.378h2.758v-4.378h3.787v-2.188h-3.787v-3.284h3.787v-2.188h-3.787V664.5h-2.758v3.962h-4.884l-2.623-3.962h-2.78v3.962h-3.962v2.188h3.962v3.284h-3.962v2.188h3.962Zm10.287-2.188v-3.284h-3.435l2.174 3.284h1.261Z" fill="#000"/>
  <path d="M408.077 672.76c2.04 0 3 1.08 3 2.56 0 1.62-1.06 2.66-2.66 2.66-1.56 0-2.6-.96-2.6-2.64h-2.52c0 3.16 2.22 4.92 5.08 4.92 2.96 0 5.3-1.9 5.3-4.9 0-2.58-1.74-4.22-3.98-4.66l3.56-3.28v-2.04h-9.28v2.26h6.08l-3.76 3.46v1.66h1.78Zm7.066-.04c0 4.52 2.3 7.54 6.18 7.54s6.2-3.02 6.2-7.54c0-4.54-2.46-7.62-6.2-7.62s-6.18 3.08-6.18 7.62Zm2.52 0c0-3.46 1.36-5.36 3.66-5.36 2.32 0 3.68 1.9 3.68 5.36 0 3.38-1.36 5.28-3.68 5.28-2.3 0-3.66-1.9-3.66-5.28Zm14.519 6.4c0-1.24-.72-2.06-1.72-2.06-.9 0-1.52.64-1.52 1.6 0 .8.64 1.38 1.42 1.38.24 0 .42-.04.58-.12 0 .7-.68 1.24-1.58 1.4v.98c1.62-.2 2.82-1.52 2.82-3.18Zm1.438-6.4c0 4.52 2.3 7.54 6.18 7.54s6.2-3.02 6.2-7.54c0-4.54-2.46-7.62-6.2-7.62s-6.18 3.08-6.18 7.62Zm2.52 0c0-3.46 1.36-5.36 3.66-5.36 2.32 0 3.68 1.9 3.68 5.36 0 3.38-1.36 5.28-3.68 5.28-2.3 0-3.66-1.9-3.66-5.28Zm11.581 0c0 4.52 2.3 7.54 6.18 7.54s6.2-3.02 6.2-7.54c0-4.54-2.46-7.62-6.2-7.62s-6.18 3.08-6.18 7.62Zm2.52 0c0-3.46 1.36-5.36 3.66-5.36 2.32 0 3.68 1.9 3.68 5.36 0 3.38-1.36 5.28-3.68 5.28-2.3 0-3.66-1.9-3.66-5.28Zm11.582 0c0 4.52 2.3 7.54 6.18 7.54s6.2-3.02 6.2-7.54c0-4.54-2.46-7.62-6.2-7.62s-6.18 3.08-6.18 7.62Zm2.52 0c0-3.46 1.36-5.36 3.66-5.36 2.32 0 3.68 1.9 3.68 5.36 0 3.38-1.36 5.28-3.68 5.28-2.3 0-3.66-1.9-3.66-5.28Z" fill="#000"/>
  <rect y="47" width="259" height="70" rx="35" fill="#FFD282"/>
  <path d="m38.182 74.5-14 14-6.364-6.364" stroke="#000" stroke-width="3" stroke-linecap="round" stroke-linejoin="round"/>
  <path d="M55.582 83.96c2.92 0 4.84-1.98 4.84-4.8 0-2.86-1.9-4.78-4.84-4.78h-5.78V89h2.56v-5.04h3.22Zm-.5-7.3c1.7 0 2.66.88 2.66 2.48s-.94 2.54-2.7 2.54h-2.68v-5.02h2.72Zm9.683 12.6c1.54 0 2.88-.7 3.3-1.72l.18 1.46h2.14v-6c0-2.74-1.64-4.18-4.3-4.18-2.68 0-4.44 1.4-4.44 3.54h2.08c0-1.04.8-1.64 2.24-1.64 1.24 0 2.04.54 2.04 1.88v.22l-2.96.22c-2.34.18-3.66 1.32-3.66 3.14 0 1.86 1.28 3.08 3.38 3.08Zm.8-1.84c-1.1 0-1.7-.44-1.7-1.34 0-.8.58-1.3 2.1-1.44l2.06-.16V85c0 1.52-.96 2.42-2.46 2.42Zm6.083 6.16c.54.14 1.14.22 1.82.22 1.62 0 2.66-.76 3.4-2.6l4.84-12.08h-2.52l-2.68 7.2-2.54-7.2h-2.58l3.98 10.3-.28.74c-.42 1.16-1.02 1.38-1.98 1.38h-1.46v2.04ZM85.534 89v-5.6c0-1.6.94-2.36 2.1-2.36 1.16 0 1.9.74 1.9 2.12V89h2.44v-5.6c0-1.62.9-2.38 2.08-2.38 1.16 0 1.92.74 1.92 2.16V89h2.42v-6.46c0-2.28-1.32-3.72-3.72-3.72-1.5 0-2.66.74-3.16 1.88-.52-1.14-1.56-1.88-3.06-1.88-1.42 0-2.42.64-2.92 1.46l-.2-1.16h-2.24V89h2.44Zm19.676.26c2.58 0 4.38-1.3 4.8-3.46h-2.26c-.28.94-1.16 1.46-2.5 1.46-1.62 0-2.54-.88-2.72-2.62l7.44-.02v-.74c0-3.08-1.88-5.06-4.84-5.06-2.9 0-4.92 2.14-4.92 5.24 0 3.06 2.06 5.2 5 5.2Zm-.06-8.44c1.46 0 2.4.9 2.4 2.26h-4.96c.24-1.48 1.12-2.26 2.56-2.26Zm9.212 8.18v-5.32c0-1.6.92-2.64 2.42-2.64 1.26 0 2.08.8 2.08 2.46V89h2.44v-6.08c0-2.56-1.28-4.1-3.76-4.1-1.34 0-2.54.58-3.16 1.58l-.2-1.28h-2.26V89h2.44Zm12.698 0v-7.84h1.92v-2.04h-1.92v-3.08h-2.44v3.08h-1.9v2.04h1.9V89h2.44Zm8.347-10.54c0 2.24 1.3 3.66 3.78 4.2l2.32.52c1.2.26 1.7.84 1.7 1.82 0 1.22-1.08 1.96-2.78 1.96-1.64 0-2.64-.74-2.66-1.98h-2.56c.06 2.62 2.1 4.28 5.22 4.28 3.22 0 5.34-1.76 5.34-4.48 0-2.18-1.22-3.46-3.72-4l-2.3-.5c-1.22-.28-1.78-.86-1.78-1.9 0-1.22 1.02-1.98 2.6-1.98 1.44 0 2.34.74 2.4 2h2.56c-.08-2.64-1.96-4.28-4.92-4.28-3.08 0-5.2 1.78-5.2 4.34Zm19.016.66v5.18c0 1.88-.74 2.78-2.28 2.78-1.36 0-2.1-.76-2.1-2.64v-5.32h-2.44v6.18c0 2.42 1.34 3.96 3.62 3.96 1.32 0 2.6-.64 3.2-1.58l.18 1.32h2.26v-9.88h-2.44Zm4.185 4.92c0 3.14 1.96 5.22 4.96 5.22 2.58 0 4.5-1.58 4.8-3.88h-2.46c-.26 1.08-1.12 1.68-2.34 1.68-1.56 0-2.52-1.16-2.52-3.02s1.04-3.04 2.6-3.04c1.16 0 1.98.58 2.26 1.7h2.44c-.26-2.38-2.1-3.88-4.8-3.88-2.92 0-4.94 2.16-4.94 5.22Zm10.996 0c0 3.14 1.96 5.22 4.96 5.22 2.58 0 4.5-1.58 4.8-3.88h-2.46c-.26 1.08-1.12 1.68-2.34 1.68-1.56 0-2.52-1.16-2.52-3.02s1.04-3.04 2.6-3.04c1.16 0 1.98.58 2.26 1.7h2.44c-.26-2.38-2.1-3.88-4.8-3.88-2.92 0-4.94 2.16-4.94 5.22Zm15.996 5.22c2.58 0 4.38-1.3 4.8-3.46h-2.26c-.28.94-1.16 1.46-2.5 1.46-1.62 0-2.54-.88-2.72-2.62l7.44-.02v-.74c0-3.08-1.88-5.06-4.84-5.06-2.9 0-4.92 2.14-4.92 5.24 0 3.06 2.06 5.2 5 5.2Zm-.06-8.44c1.46 0 2.4.9 2.4 2.26h-4.96c.24-1.48 1.12-2.26 2.56-2.26Zm6.013 5.18c0 1.94 1.56 3.26 4.02 3.26 2.44 0 4.14-1.24 4.14-3.24 0-1.52-.84-2.28-2.5-2.66l-1.78-.42c-.84-.2-1.28-.56-1.28-1.12 0-.74.56-1.18 1.52-1.18.94 0 1.5.54 1.52 1.38h2.32c-.02-1.92-1.52-3.2-3.74-3.2-2.28 0-3.92 1.16-3.92 3.1 0 1.58.86 2.42 2.64 2.82l1.78.42c.88.2 1.14.56 1.14 1.06 0 .72-.62 1.18-1.76 1.18-1.12 0-1.76-.54-1.78-1.4h-2.32Zm9.038-6.88v2.04h1.42V89h2.42v-7.84h2.36v-2.04h-2.36v-1.2c0-.98.3-1.62 1.54-1.62h.86v-2.08c-.42-.08-.88-.1-1.26-.1-2.14 0-3.56 1.12-3.56 3.8v1.2h-1.42Zm14.457 0v5.18c0 1.88-.74 2.78-2.28 2.78-1.36 0-2.1-.76-2.1-2.64v-5.32h-2.44v6.18c0 2.42 1.34 3.96 3.62 3.96 1.32 0 2.6-.64 3.2-1.58l.18 1.32h2.26v-9.88h-2.44Zm7.42 9.88V74.12h-2.42V89h2.42Zm5.46-4.38c.28-1.54.48-4.22.48-6.88v-3.36h-2.88v3.36c0 2.6.18 5.28.44 6.88h1.96Zm-.96 4.64c.86 0 1.6-.72 1.6-1.58 0-.88-.74-1.6-1.6-1.6-.9 0-1.64.72-1.64 1.6 0 .86.74 1.58 1.64 1.58Z" fill="#000"/>
  <defs>
    <radialGradient id="b" cx="0" cy="0" r="1" gradientUnits="userSpaceOnUse" gradientTransform="rotate(45.457 71.5 170.687) scale(989.39 815.747)">
      <stop stop-color="#fff" stop-opacity=".4"/>
      <stop offset="1" stop-color="#fff" stop-opacity="0"/>
    </radialGradient>
    <radialGradient id="d" cx="0" cy="0" r="1" gradientUnits="userSpaceOnUse" gradientTransform="matrix(325.99963 79.3044 -30.0386 123.48084 200 521)">
      <stop stop-color="#fff" stop-opacity=".4"/>
      <stop offset="1" stop-color="#fff" stop-opacity="0"/>
    </radialGradient>
    <radialGradient id="e" cx="0" cy="0" r="1" gradientUnits="userSpaceOnUse" gradientTransform="matrix(-266.59591 -25.2289 4.49935 -47.54498 451.382 543.51)">
      <stop offset=".007" stop-color="#A8A8A8"/>
      <stop offset="1" stop-color="#BBA18F"/>
    </radialGradient>
    <radialGradient id="f" cx="0" cy="0" r="1" gradientUnits="userSpaceOnUse" gradientTransform="matrix(-299.19481 65.33349 -21.86004 -100.10807 473.84 529.668)">
      <stop stop-color="#F68537"/>
      <stop offset="1" stop-color="#FFDEC7"/>
    </radialGradient>
    <radialGradient id="g" cx="0" cy="0" r="1" gradientUnits="userSpaceOnUse" gradientTransform="rotate(-162.244 281.351 259.497) scale(209.648 111.534)">
      <stop offset=".004" stop-color="#fff" stop-opacity=".22"/>
      <stop offset=".067" stop-color="#fff" stop-opacity="0"/>
      <stop offset="1" stop-color="#fff" stop-opacity=".31"/>
    </radialGradient>
    <radialGradient id="h" cx="0" cy="0" r="1" gradientUnits="userSpaceOnUse" gradientTransform="matrix(-567.5386 -224.31494 145.81207 -368.9187 678.151 200.161)">
      <stop offset=".007" stop-color="#A8A8A8"/>
      <stop offset="1" stop-color="#BBA18F"/>
    </radialGradient>
    <radialGradient id="i" cx="0" cy="0" r="1" gradientUnits="userSpaceOnUse" gradientTransform="rotate(139.056 431.367 155.344) scale(1019.36 814.76)">
      <stop stop-color="#F68537"/>
      <stop offset="1" stop-color="#F79E61" stop-opacity=".1"/>
    </radialGradient>
    <radialGradient id="j" cx="0" cy="0" r="1" gradientUnits="userSpaceOnUse" gradientTransform="rotate(-44.493 891.823 115.084) scale(958.874 842.323)">
      <stop offset="0" stop-color="#fff" stop-opacity=".12"/>
      <stop offset="1" stop-color="#fff" stop-opacity=".4"/>
    </radialGradient>
    <radialGradient id="l" cx="0" cy="0" r="1" gradientUnits="userSpaceOnUse" gradientTransform="matrix(590.00007 79.30416 -17.26783 128.46768 195 424)">
      <stop stop-color="#fff" stop-opacity=".4"/>
      <stop offset="1" stop-color="#fff" stop-opacity="0"/>
    </radialGradient>
    <radialGradient id="m" cx="0" cy="0" r="1" gradientUnits="userSpaceOnUse" gradientTransform="matrix(-482.48895 -25.22707 2.50132 -47.83995 649.956 446.51)">
      <stop offset=".007" stop-color="#A8A8A8"/>
      <stop offset="1" stop-color="#BBA18F"/>
    </radialGradient>
    <radialGradient id="n" cx="0" cy="0" r="1" gradientUnits="userSpaceOnUse" gradientTransform="matrix(-541.48858 65.33554 -12.47328 -103.37621 690.6 432.668)">
      <stop stop-color="#F68537"/>
      <stop offset="1" stop-color="#FFDEC7"/>
    </radialGradient>
    <radialGradient id="o" cx="0" cy="0" r="1" gradientUnits="userSpaceOnUse" gradientTransform="matrix(-361.34915 -63.93672 20.09285 -113.5581 683.945 495.435)">
      <stop offset=".004" stop-color="#fff" stop-opacity=".22"/>
      <stop offset=".067" stop-color="#fff" stop-opacity="0"/>
      <stop offset="1" stop-color="#fff" stop-opacity=".31"/>
    </radialGradient>
    <filter id="a" x="101" y="-42" width="778" height="742" filterUnits="userSpaceOnUse" color-interpolation-filters="sRGB">
      <feFlood flood-opacity="0" result="BackgroundImageFix"/>
      <feGaussianBlur in="BackgroundImageFix" stdDeviation="21"/>
      <feComposite in2="SourceAlpha" operator="in" result="effect1_backgroundBlur_229_74"/>
      <feBlend in="SourceGraphic" in2="effect1_backgroundBlur_229_74" result="shape"/>
    </filter>
    <filter id="c" x="158" y="479" width="410" height="158" filterUnits="userSpaceOnUse" color-interpolation-filters="sRGB">
      <feFlood flood-opacity="0" result="BackgroundImageFix"/>
      <feGaussianBlur in="BackgroundImageFix" stdDeviation="21"/>
      <feComposite in2="SourceAlpha" operator="in" result="effect1_backgroundBlur_229_74"/>
      <feBlend in="SourceGraphic" in2="effect1_backgroundBlur_229_74" result="shape"/>
    </filter>
    <filter id="k" x="153" y="382" width="674" height="158" filterUnits="userSpaceOnUse" color-interpolation-filters="sRGB">
      <feFlood flood-opacity="0" result="BackgroundImageFix"/>
      <feGaussianBlur in="BackgroundImageFix" stdDeviation="21"/>
      <feComposite in2="SourceAlpha" operator="in" result="effect1_backgroundBlur_229_74"/>
      <feBlend in="SourceGraphic" in2="effect1_backgroundBlur_229_74" result="shape"/>
    </filter>
  </defs>
</svg>
