<svg width="793" height="547" fill="none" xmlns="http://www.w3.org/2000/svg">
  <path d="M437.8 461.208 293.713 405 239 531.493l198.8-70.285ZM267.157 508.21l35.231-82.291 93.114 36.66-7.559 1.563-115.501 42.146-5.285 1.922Z" fill="url(#a)"/>
  <path d="m302.119 436.045 78.164 30.947 15.219-4.413-93.113-36.661-35.232 82.293 5.284-1.923 29.678-70.243Z" fill="url(#b)"/>
  <path d="m437.201 476.708.599-15.501L239 531.493 240.714 547l196.487-70.292Z" fill="url(#c)"/>
  <g filter="url(#d)">
    <rect y="37" width="793" height="431" rx="40" fill="url(#e)"/>
    <rect x="1.5" y="38.5" width="790" height="428" rx="38.5" stroke="url(#f)" stroke-width="3"/>
    <rect x="1.5" y="38.5" width="790" height="428" rx="38.5" stroke="url(#g)" stroke-width="3"/>
    <rect x="1.5" y="38.5" width="790" height="428" rx="38.5" stroke="url(#h)" stroke-width="3"/>
  </g>
  <g filter="url(#i)">
    <rect x="59.096" y="197" width="200.018" height="54.55" rx="27.275" fill="url(#j)" fill-opacity=".8"/>
    <rect x="60.096" y="198" width="198.018" height="52.55" rx="26.275" stroke="url(#k)" stroke-width="2"/>
    <rect x="60.096" y="198" width="198.018" height="52.55" rx="26.275" stroke="url(#l)" stroke-width="2"/>
    <rect x="60.096" y="198" width="198.018" height="52.55" rx="26.275" stroke="url(#m)" stroke-width="2"/>
  </g>
  <path d="m88.963 229.638 1.062-3.042h4.914l1.062 3.042h2.43L93.68 216.48h-2.358l-4.752 13.158h2.394Zm3.24-9.234c.126-.36.234-.756.288-1.008.036.27.162.666.27 1.008l1.512 4.248H90.71l1.494-4.248Zm9.406 9.234h2.16l3.708-8.892h-2.268l-1.62 4.086c-.378.972-.702 1.908-.828 2.466-.108-.486-.414-1.404-.792-2.466l-1.548-4.086h-2.34l3.528 8.892Zm9.337.234c1.386 0 2.592-.63 2.97-1.548l.162 1.314h1.926v-5.4c0-2.466-1.476-3.762-3.87-3.762-2.412 0-3.996 1.26-3.996 3.186h1.872c0-.936.72-1.476 2.016-1.476 1.116 0 1.836.486 1.836 1.692v.198l-2.664.198c-2.106.162-3.294 1.188-3.294 2.826 0 1.674 1.152 2.772 3.042 2.772Zm.72-1.656c-.99 0-1.53-.396-1.53-1.206 0-.72.522-1.17 1.89-1.296l1.854-.144v.468c0 1.368-.864 2.178-2.214 2.178Zm7.594-9.252c.72 0 1.314-.594 1.314-1.332a1.31 1.31 0 0 0-1.314-1.314c-.756 0-1.35.576-1.35 1.314 0 .738.594 1.332 1.35 1.332Zm-1.098 10.674h2.196v-8.892h-2.196v8.892Zm6.679 0v-13.392h-2.178v13.392h2.178Zm4.949.234c1.386 0 2.592-.63 2.97-1.548l.162 1.314h1.926v-5.4c0-2.466-1.476-3.762-3.87-3.762-2.412 0-3.996 1.26-3.996 3.186h1.872c0-.936.72-1.476 2.016-1.476 1.116 0 1.836.486 1.836 1.692v.198l-2.664.198c-2.106.162-3.294 1.188-3.294 2.826 0 1.674 1.152 2.772 3.042 2.772Zm.72-1.656c-.99 0-1.53-.396-1.53-1.206 0-.72.522-1.17 1.89-1.296l1.854-.144v.468c0 1.368-.864 2.178-2.214 2.178Zm8.529 1.422.144-1.386c.522 1.026 1.656 1.62 2.988 1.62 2.556 0 4.23-1.89 4.23-4.626 0-2.808-1.548-4.788-4.086-4.788-1.35 0-2.538.594-3.114 1.584v-5.796h-2.196v13.392h2.034Zm.18-4.482c0-1.602.99-2.718 2.502-2.718 1.548 0 2.466 1.134 2.466 2.718s-.918 2.7-2.466 2.7c-1.512 0-2.502-1.098-2.502-2.7Zm11.145 4.482v-13.392h-2.178v13.392h2.178Zm6.282.234c2.322 0 3.942-1.17 4.32-3.114h-2.034c-.252.846-1.044 1.314-2.25 1.314-1.458 0-2.286-.792-2.448-2.358l6.696-.018v-.666c0-2.772-1.692-4.554-4.356-4.554-2.61 0-4.428 1.926-4.428 4.716 0 2.754 1.854 4.68 4.5 4.68Zm-.054-7.596c1.314 0 2.16.81 2.16 2.034h-4.464c.216-1.332 1.008-2.034 2.304-2.034Zm13.143 7.362v-4.86c0-1.332.81-2.304 2.196-2.304 1.116 0 1.854.72 1.854 2.214v4.95h2.196v-5.472c0-2.304-1.152-3.69-3.348-3.69-1.278 0-2.322.558-2.88 1.422v-5.652h-2.214v13.392h2.196Zm7.881-4.464c0 2.772 1.998 4.68 4.752 4.68 2.754 0 4.752-1.908 4.752-4.68s-1.998-4.68-4.752-4.68c-2.754 0-4.752 1.908-4.752 4.68Zm2.196 0c0-1.62 1.044-2.718 2.556-2.718s2.556 1.098 2.556 2.718c0 1.62-1.044 2.718-2.556 2.718s-2.556-1.098-2.556-2.718Zm14.868-4.428v4.662c0 1.692-.666 2.502-2.052 2.502-1.224 0-1.89-.684-1.89-2.376v-4.788h-2.196v5.562c0 2.178 1.206 3.564 3.258 3.564 1.188 0 2.34-.576 2.88-1.422l.162 1.188h2.034v-8.892h-2.196Zm10.044-.036a3.896 3.896 0 0 0-.972-.126c-1.188 0-2.034.594-2.412 1.476l-.126-1.296h-2.07v8.874h2.196v-4.32c0-1.728.99-2.574 2.574-2.574h.81v-2.034Zm.802 6.228c0 1.746 1.404 2.934 3.618 2.934 2.196 0 3.726-1.116 3.726-2.916 0-1.368-.756-2.052-2.25-2.394l-1.602-.378c-.756-.18-1.152-.504-1.152-1.008 0-.666.504-1.062 1.368-1.062.846 0 1.35.486 1.368 1.242h2.088c-.018-1.728-1.368-2.88-3.366-2.88-2.052 0-3.528 1.044-3.528 2.79 0 1.422.774 2.178 2.376 2.538l1.602.378c.792.18 1.026.504 1.026.954 0 .648-.558 1.062-1.584 1.062-1.008 0-1.584-.486-1.602-1.26h-2.088ZM60.356 308.79c0 3.99 3.27 6.57 8.34 6.57 5.1 0 8.37-2.61 8.37-6.57 0-2.64-1.5-4.77-3.81-5.58 1.95-.81 3.03-2.46 3.03-4.59 0-3.57-3.03-5.94-7.53-5.94-4.53 0-7.62 2.4-7.62 5.88 0 2.13 1.05 3.78 2.97 4.65-2.28.87-3.75 2.97-3.75 5.58Zm4.26-9.9c0-1.8 1.59-2.94 4.08-2.94 2.46 0 4.02 1.14 4.02 2.97 0 1.83-1.56 2.97-4.02 2.97-2.49 0-4.08-1.17-4.08-3Zm-.51 9.63c0-2.13 1.77-3.45 4.59-3.45s4.59 1.32 4.59 3.45-1.77 3.45-4.56 3.45c-2.85 0-4.62-1.32-4.62-3.45Zm18.86-4.08c1.32 0 2.43-1.08 2.43-2.37 0-1.32-1.11-2.4-2.43-2.4s-2.43 1.08-2.43 2.4c0 1.29 1.11 2.37 2.43 2.37Zm0 10.92c1.32 0 2.43-1.08 2.43-2.37 0-1.32-1.11-2.4-2.43-2.4s-2.43 1.08-2.43 2.4c0 1.29 1.11 2.37 2.43 2.37Zm5.956-11.28c0 6.78 3.45 11.31 9.27 11.31 5.819 0 9.299-4.53 9.299-11.31 0-6.81-3.69-11.43-9.3-11.43-5.61 0-9.27 4.62-9.27 11.43Zm3.78 0c0-5.19 2.04-8.04 5.49-8.04 3.479 0 5.519 2.85 5.519 8.04 0 5.07-2.04 7.92-5.52 7.92-3.45 0-5.49-2.85-5.49-7.92Zm17.372 0c0 6.78 3.45 11.31 9.27 11.31 5.82 0 9.3-4.53 9.3-11.31 0-6.81-3.69-11.43-9.3-11.43-5.61 0-9.27 4.62-9.27 11.43Zm3.78 0c0-5.19 2.04-8.04 5.49-8.04 3.48 0 5.52 2.85 5.52 8.04 0 5.07-2.04 7.92-5.52 7.92-3.45 0-5.49-2.85-5.49-7.92Z" fill="#F5F5F5"/>
  <path d="M209.385 308.55c2.46-3.33 3.33-5.25 3.33-7.89 0-4.5-3.54-7.98-8.28-7.98-4.68 0-8.16 3.27-8.16 7.95 0 4.44 3.06 7.62 7.59 7.62.54 0 1.11-.09 1.65-.24l-5.25 6.99h4.38l4.74-6.45Zm-.6-7.92c0 2.64-1.74 4.47-4.35 4.47-2.52 0-4.29-1.83-4.29-4.47 0-2.67 1.77-4.53 4.29-4.53 2.58 0 4.35 1.86 4.35 4.53Zm9.664 3.81c1.32 0 2.43-1.08 2.43-2.37 0-1.32-1.11-2.4-2.43-2.4s-2.43 1.08-2.43 2.4c0 1.29 1.11 2.37 2.43 2.37Zm0 10.92c1.32 0 2.43-1.08 2.43-2.37 0-1.32-1.11-2.4-2.43-2.4s-2.43 1.08-2.43 2.4c0 1.29 1.11 2.37 2.43 2.37Zm5.956-11.28c0 6.78 3.45 11.31 9.27 11.31 5.82 0 9.3-4.53 9.3-11.31 0-6.81-3.69-11.43-9.3-11.43-5.61 0-9.27 4.62-9.27 11.43Zm3.78 0c0-5.19 2.04-8.04 5.49-8.04 3.48 0 5.52 2.85 5.52 8.04 0 5.07-2.04 7.92-5.52 7.92-3.45 0-5.49-2.85-5.49-7.92Zm17.373 0c0 6.78 3.45 11.31 9.27 11.31 5.82 0 9.3-4.53 9.3-11.31 0-6.81-3.69-11.43-9.3-11.43-5.61 0-9.27 4.62-9.27 11.43Zm3.78 0c0-5.19 2.04-8.04 5.49-8.04 3.48 0 5.52 2.85 5.52 8.04 0 5.07-2.04 7.92-5.52 7.92-3.45 0-5.49-2.85-5.49-7.92ZM337.115 296.52V315h3.69v-21.93h-8.49v3.45h4.8Zm7.423 7.56c0 6.78 3.45 11.31 9.27 11.31 5.82 0 9.3-4.53 9.3-11.31 0-6.81-3.69-11.43-9.3-11.43-5.61 0-9.27 4.62-9.27 11.43Zm3.78 0c0-5.19 2.04-8.04 5.49-8.04 3.48 0 5.52 2.85 5.52 8.04 0 5.07-2.04 7.92-5.52 7.92-3.45 0-5.49-2.85-5.49-7.92Zm20.732.36c1.32 0 2.43-1.08 2.43-2.37 0-1.32-1.11-2.4-2.43-2.4s-2.43 1.08-2.43 2.4c0 1.29 1.11 2.37 2.43 2.37Zm0 10.92c1.32 0 2.43-1.08 2.43-2.37 0-1.32-1.11-2.4-2.43-2.4s-2.43 1.08-2.43 2.4c0 1.29 1.11 2.37 2.43 2.37Zm5.956-11.28c0 6.78 3.45 11.31 9.27 11.31 5.82 0 9.3-4.53 9.3-11.31 0-6.81-3.69-11.43-9.3-11.43-5.61 0-9.27 4.62-9.27 11.43Zm3.78 0c0-5.19 2.04-8.04 5.49-8.04 3.48 0 5.52 2.85 5.52 8.04 0 5.07-2.04 7.92-5.52 7.92-3.45 0-5.49-2.85-5.49-7.92Zm17.373 0c0 6.78 3.45 11.31 9.27 11.31 5.82 0 9.3-4.53 9.3-11.31 0-6.81-3.69-11.43-9.3-11.43-5.61 0-9.27 4.62-9.27 11.43Zm3.78 0c0-5.19 2.04-8.04 5.49-8.04 3.48 0 5.52 2.85 5.52 8.04 0 5.07-2.04 7.92-5.52 7.92-3.45 0-5.49-2.85-5.49-7.92Z" fill="#F5F5F5" fill-opacity=".4"/>
  <path d="M490.856 296.52V315h3.69v-21.93h-8.49v3.45h4.8Zm11.543 0V315h3.69v-21.93h-8.49v3.45h4.8Zm10.783 7.92c1.32 0 2.43-1.08 2.43-2.37 0-1.32-1.11-2.4-2.43-2.4s-2.43 1.08-2.43 2.4c0 1.29 1.11 2.37 2.43 2.37Zm0 10.92c1.32 0 2.43-1.08 2.43-2.37 0-1.32-1.11-2.4-2.43-2.4s-2.43 1.08-2.43 2.4c0 1.29 1.11 2.37 2.43 2.37Zm5.957-11.28c0 6.78 3.45 11.31 9.27 11.31 5.82 0 9.3-4.53 9.3-11.31 0-6.81-3.69-11.43-9.3-11.43-5.61 0-9.27 4.62-9.27 11.43Zm3.78 0c0-5.19 2.04-8.04 5.49-8.04 3.48 0 5.52 2.85 5.52 8.04 0 5.07-2.04 7.92-5.52 7.92-3.45 0-5.49-2.85-5.49-7.92Zm17.372 0c0 6.78 3.45 11.31 9.27 11.31 5.82 0 9.3-4.53 9.3-11.31 0-6.81-3.69-11.43-9.3-11.43-5.61 0-9.27 4.62-9.27 11.43Zm3.78 0c0-5.19 2.04-8.04 5.49-8.04 3.48 0 5.52 2.85 5.52 8.04 0 5.07-2.04 7.92-5.52 7.92-3.45 0-5.49-2.85-5.49-7.92ZM644.598 296.52V315h3.69v-21.93h-8.49v3.45h4.8Zm22.723 18.45v-3.57h-9.12l3.96-3.39c3.33-2.85 5.01-5.16 5.01-8.22 0-4.44-2.91-7.11-7.59-7.11-4.65 0-7.71 3.12-7.74 7.92h3.81c.03-2.82 1.53-4.5 3.93-4.5 2.31 0 3.66 1.41 3.66 3.9 0 2.1-.99 3.54-3.96 6.06l-7.17 6.06V315l15.21-.03Zm5.726-10.53c1.32 0 2.43-1.08 2.43-2.37 0-1.32-1.11-2.4-2.43-2.4s-2.43 1.08-2.43 2.4c0 1.29 1.11 2.37 2.43 2.37Zm0 10.92c1.32 0 2.43-1.08 2.43-2.37 0-1.32-1.11-2.4-2.43-2.4s-2.43 1.08-2.43 2.4c0 1.29 1.11 2.37 2.43 2.37Zm5.956-11.28c0 6.78 3.45 11.31 9.27 11.31 5.82 0 9.3-4.53 9.3-11.31 0-6.81-3.69-11.43-9.3-11.43-5.61 0-9.27 4.62-9.27 11.43Zm3.78 0c0-5.19 2.04-8.04 5.49-8.04 3.48 0 5.52 2.85 5.52 8.04 0 5.07-2.04 7.92-5.52 7.92-3.45 0-5.49-2.85-5.49-7.92Zm17.373 0c0 6.78 3.45 11.31 9.27 11.31 5.82 0 9.3-4.53 9.3-11.31 0-6.81-3.69-11.43-9.3-11.43-5.61 0-9.27 4.62-9.27 11.43Zm3.78 0c0-5.19 2.04-8.04 5.49-8.04 3.48 0 5.52 2.85 5.52 8.04 0 5.07-2.04 7.92-5.52 7.92-3.45 0-5.49-2.85-5.49-7.92Z" fill="#F5F5F5"/>
  <path d="M64.916 367.09v18.48h3.69v-21.93h-8.49v3.45h4.8Zm10.783 7.92c1.32 0 2.43-1.08 2.43-2.37 0-1.32-1.11-2.4-2.43-2.4s-2.43 1.08-2.43 2.4c0 1.29 1.11 2.37 2.43 2.37Zm0 10.92c1.32 0 2.43-1.08 2.43-2.37 0-1.32-1.11-2.4-2.43-2.4s-2.43 1.08-2.43 2.4c0 1.29 1.11 2.37 2.43 2.37Zm5.957-11.28c0 6.78 3.45 11.31 9.27 11.31 5.82 0 9.3-4.53 9.3-11.31 0-6.81-3.69-11.43-9.3-11.43-5.61 0-9.27 4.62-9.27 11.43Zm3.78 0c0-5.19 2.04-8.04 5.49-8.04 3.48 0 5.52 2.85 5.52 8.04 0 5.07-2.04 7.92-5.52 7.92-3.45 0-5.49-2.85-5.49-7.92Zm17.372 0c0 6.78 3.45 11.31 9.27 11.31 5.82 0 9.3-4.53 9.3-11.31 0-6.81-3.69-11.43-9.3-11.43-5.61 0-9.27 4.62-9.27 11.43Zm3.78 0c0-5.19 2.04-8.04 5.49-8.04 3.48 0 5.52 2.85 5.52 8.04 0 5.07-2.04 7.92-5.52 7.92-3.45 0-5.49-2.85-5.49-7.92Z" fill="#F5F5F5" fill-opacity=".4"/>
  <path d="M214.306 385.54v-3.57h-9.12l3.96-3.39c3.33-2.85 5.01-5.16 5.01-8.22 0-4.44-2.91-7.11-7.59-7.11-4.65 0-7.71 3.12-7.74 7.92h3.81c.03-2.82 1.53-4.5 3.93-4.5 2.31 0 3.66 1.41 3.66 3.9 0 2.1-.99 3.54-3.96 6.06l-7.17 6.06v2.88l15.21-.03Zm5.726-10.53c1.32 0 2.43-1.08 2.43-2.37 0-1.32-1.11-2.4-2.43-2.4s-2.43 1.08-2.43 2.4c0 1.29 1.11 2.37 2.43 2.37Zm0 10.92c1.32 0 2.43-1.08 2.43-2.37 0-1.32-1.11-2.4-2.43-2.4s-2.43 1.08-2.43 2.4c0 1.29 1.11 2.37 2.43 2.37Zm5.956-11.28c0 6.78 3.45 11.31 9.27 11.31 5.82 0 9.3-4.53 9.3-11.31 0-6.81-3.69-11.43-9.3-11.43-5.61 0-9.27 4.62-9.27 11.43Zm3.78 0c0-5.19 2.04-8.04 5.49-8.04 3.48 0 5.52 2.85 5.52 8.04 0 5.07-2.04 7.92-5.52 7.92-3.45 0-5.49-2.85-5.49-7.92Zm17.372 0c0 6.78 3.45 11.31 9.27 11.31 5.82 0 9.3-4.53 9.3-11.31 0-6.81-3.69-11.43-9.3-11.43-5.61 0-9.27 4.62-9.27 11.43Zm3.78 0c0-5.19 2.04-8.04 5.49-8.04 3.48 0 5.52 2.85 5.52 8.04 0 5.07-2.04 7.92-5.52 7.92-3.45 0-5.49-2.85-5.49-7.92ZM359.228 374.71c3.06 0 4.5 1.62 4.5 3.84 0 2.43-1.59 3.99-3.99 3.99-2.34 0-3.9-1.44-3.9-3.96h-3.78c0 4.74 3.33 7.38 7.62 7.38 4.44 0 7.95-2.85 7.95-7.35 0-3.87-2.61-6.33-5.97-6.99l5.34-4.92v-3.06h-13.92v3.39h9.12l-5.64 5.19v2.49h2.67Zm13.96.3c1.32 0 2.43-1.08 2.43-2.37 0-1.32-1.11-2.4-2.43-2.4s-2.43 1.08-2.43 2.4c0 1.29 1.11 2.37 2.43 2.37Zm0 10.92c1.32 0 2.43-1.08 2.43-2.37 0-1.32-1.11-2.4-2.43-2.4s-2.43 1.08-2.43 2.4c0 1.29 1.11 2.37 2.43 2.37Zm5.956-11.28c0 6.78 3.45 11.31 9.27 11.31 5.82 0 9.3-4.53 9.3-11.31 0-6.81-3.69-11.43-9.3-11.43-5.61 0-9.27 4.62-9.27 11.43Zm3.78 0c0-5.19 2.04-8.04 5.49-8.04 3.48 0 5.52 2.85 5.52 8.04 0 5.07-2.04 7.92-5.52 7.92-3.45 0-5.49-2.85-5.49-7.92Zm17.372 0c0 6.78 3.45 11.31 9.27 11.31 5.82 0 9.3-4.53 9.3-11.31 0-6.81-3.69-11.43-9.3-11.43-5.61 0-9.27 4.62-9.27 11.43Zm3.78 0c0-5.19 2.04-8.04 5.49-8.04 3.48 0 5.52 2.85 5.52 8.04 0 5.07-2.04 7.92-5.52 7.92-3.45 0-5.49-2.85-5.49-7.92ZM509.607 381.4v-3.36h-2.67v-14.4h-4.83l-9.93 14.4v3.36h11.13v4.17h3.63v-4.17h2.67Zm-13.35-3.36 7.05-10.26v10.26h-7.05Zm19.125-3.03c1.32 0 2.43-1.08 2.43-2.37 0-1.32-1.11-2.4-2.43-2.4s-2.43 1.08-2.43 2.4c0 1.29 1.11 2.37 2.43 2.37Zm0 10.92c1.32 0 2.43-1.08 2.43-2.37 0-1.32-1.11-2.4-2.43-2.4s-2.43 1.08-2.43 2.4c0 1.29 1.11 2.37 2.43 2.37Zm5.956-11.28c0 6.78 3.45 11.31 9.27 11.31 5.82 0 9.3-4.53 9.3-11.31 0-6.81-3.69-11.43-9.3-11.43-5.61 0-9.27 4.62-9.27 11.43Zm3.78 0c0-5.19 2.04-8.04 5.49-8.04 3.48 0 5.52 2.85 5.52 8.04 0 5.07-2.04 7.92-5.52 7.92-3.45 0-5.49-2.85-5.49-7.92Zm17.372 0c0 6.78 3.45 11.31 9.27 11.31 5.82 0 9.3-4.53 9.3-11.31 0-6.81-3.69-11.43-9.3-11.43-5.61 0-9.27 4.62-9.27 11.43Zm3.78 0c0-5.19 2.04-8.04 5.49-8.04 3.48 0 5.52 2.85 5.52 8.04 0 5.07-2.04 7.92-5.52 7.92-3.45 0-5.49-2.85-5.49-7.92Z" fill="#F5F5F5"/>
  <path d="M662.75 385.93c4.89 0 8.22-3.24 8.22-7.98 0-4.32-2.91-7.29-7.29-7.29-1.5 0-2.82.39-3.87 1.08l1.17-4.56h8.67v-3.54h-11.43l-2.7 11.49 3.39.72c.78-1.14 2.31-1.98 3.99-1.98 2.64 0 4.17 1.74 4.17 4.29 0 2.67-1.65 4.35-4.23 4.35-2.43 0-3.9-1.47-3.9-3.96h-3.81c0 4.44 3.03 7.38 7.62 7.38Zm13.788-10.92c1.32 0 2.43-1.08 2.43-2.37 0-1.32-1.11-2.4-2.43-2.4s-2.43 1.08-2.43 2.4c0 1.29 1.11 2.37 2.43 2.37Zm0 10.92c1.32 0 2.43-1.08 2.43-2.37 0-1.32-1.11-2.4-2.43-2.4s-2.43 1.08-2.43 2.4c0 1.29 1.11 2.37 2.43 2.37Zm5.957-11.28c0 6.78 3.45 11.31 9.27 11.31 5.82 0 9.3-4.53 9.3-11.31 0-6.81-3.69-11.43-9.3-11.43-5.61 0-9.27 4.62-9.27 11.43Zm3.78 0c0-5.19 2.04-8.04 5.49-8.04 3.48 0 5.52 2.85 5.52 8.04 0 5.07-2.04 7.92-5.52 7.92-3.45 0-5.49-2.85-5.49-7.92Zm17.372 0c0 6.78 3.45 11.31 9.27 11.31 5.82 0 9.3-4.53 9.3-11.31 0-6.81-3.69-11.43-9.3-11.43-5.61 0-9.27 4.62-9.27 11.43Zm3.78 0c0-5.19 2.04-8.04 5.49-8.04 3.48 0 5.52 2.85 5.52 8.04 0 5.07-2.04 7.92-5.52 7.92-3.45 0-5.49-2.85-5.49-7.92Z" fill="#F5F5F5" fill-opacity=".4"/>
  <path d="M62.696 160.047v-6.18c0-2.02-.04-3.5-.14-4.2l4.2 10.38h1.84l4.22-10.42c-.1 1.02-.12 2-.12 4.7v5.72h1.92v-14.46h-1.96l-4.98 12.16-4.98-12.16h-1.92v14.46h1.92Zm14.327-4.9c0 3.02 2.16 5.14 5.1 5.14 2.92 0 5.08-2.12 5.08-5.14 0-3.02-2.16-5.14-5.08-5.14-2.94 0-5.1 2.12-5.1 5.14Zm1.9 0c0-2.04 1.3-3.46 3.2-3.46 1.88 0 3.2 1.42 3.2 3.46s-1.32 3.46-3.2 3.46c-1.9 0-3.2-1.42-3.2-3.46ZM595.212 149.487c0 2.08 1.22 3.44 3.58 3.98l2.38.54c1.38.32 2 1.04 2 2.18 0 1.44-1.22 2.34-3.14 2.34-1.82 0-2.98-.88-3.02-2.26h-2c.12 2.48 2.08 4.02 5.02 4.02 3.08 0 5.1-1.66 5.1-4.26 0-2.04-1.2-3.32-3.56-3.86l-2.38-.56c-1.36-.32-2.02-1.02-2.02-2.18 0-1.42 1.18-2.34 3-2.34 1.62 0 2.64.84 2.74 2.28h1.98c-.16-2.5-1.94-4.04-4.7-4.04-2.98 0-4.98 1.68-4.98 4.16Zm14.923 10.8c1.58 0 2.92-.7 3.42-1.82l.2 1.58h1.6v-6.14c0-2.64-1.64-3.92-4.06-3.92-2.52 0-4.2 1.34-4.2 3.38h1.64c0-1.18.9-1.88 2.48-1.88 1.32 0 2.3.58 2.3 2.22v.28l-3.08.24c-2.3.18-3.64 1.3-3.64 3.1 0 1.78 1.24 2.96 3.34 2.96Zm.54-1.46c-1.22 0-1.98-.52-1.98-1.56 0-.96.68-1.6 2.34-1.76l2.5-.2v.52c0 1.84-1.08 3-2.86 3ZM509.365 153.907v-1.78h-5.68v-4.74h6.76v-1.8h-8.72v14.46h1.96v-6.14h5.68Zm8.128-3.72c-.38-.08-.66-.12-1-.12-1.34 0-2.32.68-2.72 1.7l-.12-1.48h-1.76v9.76h1.88v-5.18c0-1.88 1.1-2.96 2.88-2.96h.84v-1.72ZM384.405 147.387h4.36v12.66h1.96v-12.66h4.34v-1.8h-10.66v1.8Zm14.191 12.64v-5.32c0-1.68.98-3 2.8-3 1.4 0 2.34.8 2.34 2.78v5.56h1.88v-5.98c0-2.5-1.2-4.08-3.7-4.08-1.52 0-2.7.72-3.32 1.78v-6.44h-1.88v14.7h1.88ZM269.397 160.047h1.92l3.54-11.44 3.5 11.44h1.88l4.36-14.46h-2l-2.66 8.86c-.2.64-.4 1.38-.64 2.6-.22-1.08-.42-1.84-.66-2.62l-2.72-8.84h-2.12l-2.74 8.84c-.22.76-.44 1.46-.68 2.62-.2-1.1-.4-1.86-.6-2.62l-2.64-8.84h-2.04l4.3 14.46Zm19.808.24c2.42 0 4.06-1.18 4.54-3.28h-1.76c-.32 1.12-1.28 1.72-2.74 1.72-1.86 0-2.94-1.14-3.08-3.2l7.56-.02v-.7c0-2.9-1.82-4.82-4.6-4.82-2.84 0-4.78 2.12-4.78 5.18 0 3.04 1.98 5.12 4.86 5.12Zm-.08-8.72c1.66 0 2.72 1.08 2.72 2.7h-5.64c.24-1.72 1.28-2.7 2.92-2.7ZM161.658 147.387h4.36v12.66h1.96v-12.66h4.34v-1.8h-10.66v1.8Zm17.879 2.88v5.16c0 2.1-.94 3.2-2.66 3.2-1.44 0-2.34-.8-2.34-2.9v-5.46h-1.88v6.08c0 2.4 1.28 3.94 3.56 3.94 1.44 0 2.74-.7 3.3-1.72l.2 1.48h1.68v-9.78h-1.86ZM694.162 154.902c0-.332-.052-.625-.156-.879a1.678 1.678 0 0 0-.528-.703c-.247-.208-.592-.407-1.035-.596a14.302 14.302 0 0 0-1.66-.576 15.182 15.182 0 0 1-1.904-.693 6.647 6.647 0 0 1-1.455-.889 3.503 3.503 0 0 1-.928-1.143c-.215-.429-.322-.921-.322-1.474 0-.554.114-1.065.341-1.533a3.59 3.59 0 0 1 .977-1.221c.43-.352.941-.625 1.533-.82.593-.196 1.253-.293 1.983-.293 1.067 0 1.972.205 2.714.615.749.403 1.319.934 1.709 1.592.391.651.586 1.347.586 2.089h-1.875c0-.533-.114-1.005-.341-1.416a2.354 2.354 0 0 0-1.036-.976c-.462-.241-1.048-.361-1.757-.361-.671 0-1.224.1-1.661.302-.436.202-.761.476-.976.821a2.244 2.244 0 0 0-.313 1.181c0 .3.062.573.186.821.13.24.329.465.596.673.273.209.618.401 1.035.577.423.175.927.345 1.513.507.808.228 1.504.482 2.09.762.586.28 1.068.596 1.446.947.384.345.667.739.849 1.182.189.436.283.931.283 1.484 0 .58-.117 1.104-.351 1.573-.235.468-.57.869-1.006 1.201-.436.332-.96.589-1.572.771a7.276 7.276 0 0 1-2.032.264 7.051 7.051 0 0 1-1.943-.273 5.793 5.793 0 0 1-1.728-.821 4.3 4.3 0 0 1-1.241-1.347c-.306-.541-.459-1.166-.459-1.875h1.875c0 .488.095.908.284 1.259.188.345.446.632.771.86.332.228.706.397 1.123.507.423.105.863.157 1.318.157.658 0 1.215-.091 1.67-.274.456-.182.801-.442 1.036-.781.24-.338.361-.739.361-1.201Zm10.488 1.152v-8.125h1.817v10.567h-1.729l-.088-2.442Zm.342-2.226.752-.02c0 .703-.075 1.354-.225 1.953a4.177 4.177 0 0 1-.703 1.543 3.332 3.332 0 0 1-1.279 1.026c-.527.241-1.169.361-1.924.361-.514 0-.986-.075-1.416-.225a2.828 2.828 0 0 1-1.094-.693c-.306-.313-.543-.719-.713-1.221-.162-.501-.244-1.103-.244-1.806v-6.817h1.807v6.836c0 .475.052.869.156 1.182.111.306.257.55.44.732.188.176.397.3.625.371.234.072.475.108.722.108.768 0 1.377-.147 1.826-.44.45-.299.772-.7.967-1.201a4.534 4.534 0 0 0 .303-1.689Z" fill="#ADADAD"/>
  <g filter="url(#n)">
    <rect x="469.36" y="122" width="70.461" height="70.461" rx="35.23" fill="url(#o)" fill-opacity=".8"/>
    <rect x="470.36" y="123" width="68.461" height="68.461" rx="34.23" stroke="url(#p)" stroke-width="2"/>
    <rect x="470.36" y="123" width="68.461" height="68.461" rx="34.23" stroke="url(#q)" stroke-width="2"/>
    <rect x="470.36" y="123" width="68.461" height="68.461" rx="34.23" stroke="url(#r)" stroke-width="2"/>
  </g>
  <path d="M505.119 156.34v-2.3h-5.44v-3.98h6.48v-2.36h-9.04v14.62h2.56v-5.98h5.44Zm8.582-3.94c-.4-.1-.74-.14-1.08-.14-1.32 0-2.26.66-2.68 1.64l-.14-1.44h-2.3v9.86h2.44v-4.8c0-1.92 1.1-2.86 2.86-2.86h.9v-2.26Z" fill="#fff"/>
  <g filter="url(#s)">
    <rect x="192" width="383" height="86" rx="40" fill="url(#t)"/>
    <path d="m239.965 40.444-1.71-5.13a3.74 3.74 0 0 0-3.556-2.564h-11.398a3.74 3.74 0 0 0-3.556 2.564l-1.71 5.13a2.5 2.5 0 0 0-1.535 2.306v3.75c0 .922.505 1.72 1.25 2.154v1.596A1.252 1.252 0 0 0 219 51.5h1.25a1.25 1.25 0 0 0 1.25-1.25V49h15v1.25a1.252 1.252 0 0 0 1.25 1.25H239a1.25 1.25 0 0 0 1.25-1.25v-1.596a2.493 2.493 0 0 0 1.25-2.154v-3.75a2.502 2.502 0 0 0-1.535-2.306Zm-16.664-5.194h11.396a1.252 1.252 0 0 1 1.187.855l1.382 4.145h-16.532l1.381-4.145a1.251 1.251 0 0 1 1.186-.855Zm-2.426 11.25a1.88 1.88 0 0 1-1.326-.55 1.875 1.875 0 1 1 1.326.55Zm16.25 0a1.877 1.877 0 0 1 .001-3.751 1.874 1.874 0 0 1 1.875 1.876 1.875 1.875 0 0 1-1.876 1.875Zm-16.529-16.25a2.493 2.493 0 0 0 2.154 1.25c.922 0 1.72-.506 2.154-1.25h8.193a2.49 2.49 0 0 0 2.153 1.25c.922 0 1.72-.506 2.154-1.25h-2.154v-2.5h2.154a2.494 2.494 0 0 0-2.154-1.25c-.923 0-1.72.506-2.154 1.25h-8.192a2.494 2.494 0 0 0-2.154-1.25c-.923 0-1.72.506-2.154 1.25h2.154v2.5h-2.154ZM266.305 48v-2.714h-7.498v-4.462h6.716v-2.599h-6.716v-4.324h7.498v-2.714h-10.442V48h10.442Zm5.584 0v-6.44c0-1.84 1.081-2.714 2.415-2.714s2.185.851 2.185 2.438V48h2.806v-6.44c0-1.863 1.035-2.737 2.392-2.737 1.334 0 2.208.851 2.208 2.484V48h2.783v-7.429c0-2.622-1.518-4.278-4.278-4.278-1.725 0-3.059.851-3.634 2.162-.598-1.311-1.794-2.162-3.519-2.162-1.633 0-2.783.736-3.358 1.679l-.23-1.334h-2.576V48h2.806Zm22.626.299c2.967 0 5.037-1.495 5.52-3.979h-2.599c-.322 1.081-1.334 1.679-2.875 1.679-1.863 0-2.921-1.012-3.128-3.013l8.556-.023v-.851c0-3.542-2.162-5.819-5.566-5.819-3.335 0-5.658 2.461-5.658 6.026 0 3.519 2.369 5.98 5.75 5.98Zm-.069-9.706c1.679 0 2.76 1.035 2.76 2.599h-5.704c.276-1.702 1.288-2.599 2.944-2.599ZM305.064 48v-3.059l1.656-1.725L309.687 48h3.22l-4.232-6.854 4.324-4.508h-3.519l-4.416 4.761V30.888h-2.783V48h2.783Zm12.569.299c1.771 0 3.312-.805 3.795-1.978l.207 1.679h2.461v-6.9c0-3.151-1.886-4.807-4.945-4.807-3.082 0-5.106 1.61-5.106 4.071h2.392c0-1.196.92-1.886 2.576-1.886 1.426 0 2.346.621 2.346 2.162v.253l-3.404.253c-2.691.207-4.209 1.518-4.209 3.611 0 2.139 1.472 3.542 3.887 3.542Zm.92-2.116c-1.265 0-1.955-.506-1.955-1.541 0-.92.667-1.495 2.415-1.656l2.369-.184v.598c0 1.748-1.104 2.783-2.829 2.783ZM344.269 48h3.266l-2.737-3.082c.851-1.334 1.311-3.013 1.311-4.968h-2.737c0 1.104-.161 2.07-.46 2.875l-3.381-3.795c2.093-1.403 2.99-2.737 2.99-4.416 0-2.185-1.702-3.703-4.163-3.703-2.484 0-4.301 1.61-4.301 3.841 0 1.265.506 2.3 1.817 3.818-2.576 1.242-3.91 2.921-3.91 4.968 0 2.829 2.461 4.761 6.118 4.761 2.024 0 3.726-.552 5.06-1.564L344.269 48Zm-7.544-13.271c0-.989.621-1.587 1.633-1.587.966 0 1.564.575 1.564 1.564 0 1.15-.575 2.093-1.748 2.783-1.081-1.242-1.449-1.932-1.449-2.76Zm-1.794 8.533c0-1.311.713-2.277 2.3-3.174l4.278 4.807c-.805.644-1.84.989-3.105.989-2.162 0-3.473-.989-3.473-2.622Zm19.086-7.383c0 2.576 1.495 4.209 4.347 4.83l2.668.598c1.38.299 1.955.966 1.955 2.093 0 1.403-1.242 2.254-3.197 2.254-1.886 0-3.036-.851-3.059-2.277h-2.944c.069 3.013 2.415 4.922 6.003 4.922 3.703 0 6.141-2.024 6.141-5.152 0-2.507-1.403-3.979-4.278-4.6l-2.645-.575c-1.403-.322-2.047-.989-2.047-2.185 0-1.403 1.173-2.277 2.99-2.277 1.656 0 2.691.851 2.76 2.3h2.944c-.092-3.036-2.254-4.922-5.658-4.922-3.542 0-5.98 2.047-5.98 4.991Zm13.496 6.417c0 3.542 2.553 5.98 6.072 5.98s6.072-2.438 6.072-5.98c0-3.542-2.553-5.98-6.072-5.98s-6.072 2.438-6.072 5.98Zm2.806 0c0-2.07 1.334-3.473 3.266-3.473s3.266 1.403 3.266 3.473-1.334 3.473-3.266 3.473-3.266-1.403-3.266-3.473ZM384.688 48v-6.118c0-1.84 1.058-3.036 2.783-3.036 1.449 0 2.392.92 2.392 2.829V48h2.806v-6.992c0-2.944-1.472-4.715-4.324-4.715-1.541 0-2.921.667-3.634 1.817l-.23-1.472h-2.599V48h2.806Zm9.729-3.45c0 2.231 1.794 3.749 4.623 3.749 2.806 0 4.761-1.426 4.761-3.726 0-1.748-.966-2.622-2.875-3.059l-2.047-.483c-.966-.23-1.472-.644-1.472-1.288 0-.851.644-1.357 1.748-1.357 1.081 0 1.725.621 1.748 1.587h2.668c-.023-2.208-1.748-3.68-4.301-3.68-2.622 0-4.508 1.334-4.508 3.565 0 1.817.989 2.783 3.036 3.243l2.047.483c1.012.23 1.311.644 1.311 1.219 0 .828-.713 1.357-2.024 1.357-1.288 0-2.024-.621-2.047-1.61h-2.668ZM414 48l1.357-3.887h6.279L422.993 48h3.105l-6.072-16.813h-3.013L410.941 48H414Zm4.14-11.799c.161-.46.299-.966.368-1.288.046.345.207.851.345 1.288l1.932 5.428h-4.554l1.909-5.428Zm16.93.437v5.957c0 2.162-.851 3.197-2.622 3.197-1.564 0-2.415-.874-2.415-3.036v-6.118h-2.806v7.107c0 2.783 1.541 4.554 4.163 4.554 1.518 0 2.99-.736 3.68-1.817l.207 1.518h2.599V36.638h-2.806ZM444.638 48v-9.016h2.208v-2.346h-2.208v-3.542h-2.806v3.542h-2.185v2.346h2.185V48h2.806Zm3.173-5.704c0 3.542 2.553 5.98 6.072 5.98s6.072-2.438 6.072-5.98c0-3.542-2.553-5.98-6.072-5.98s-6.072 2.438-6.072 5.98Zm2.806 0c0-2.07 1.334-3.473 3.266-3.473s3.266 1.403 3.266 3.473-1.334 3.473-3.266 3.473-3.266-1.403-3.266-3.473ZM464.985 48v-6.44c0-1.84 1.081-2.714 2.415-2.714s2.185.851 2.185 2.438V48h2.806v-6.44c0-1.863 1.035-2.737 2.392-2.737 1.334 0 2.208.851 2.208 2.484V48h2.783v-7.429c0-2.622-1.518-4.278-4.278-4.278-1.725 0-3.059.851-3.634 2.162-.598-1.311-1.794-2.162-3.519-2.162-1.633 0-2.783.736-3.358 1.679l-.23-1.334h-2.576V48h2.806Zm16.877-5.704c0 3.542 2.553 5.98 6.072 5.98s6.072-2.438 6.072-5.98c0-3.542-2.553-5.98-6.072-5.98s-6.072 2.438-6.072 5.98Zm2.806 0c0-2.07 1.334-3.473 3.266-3.473s3.266 1.403 3.266 3.473-1.334 3.473-3.266 3.473-3.266-1.403-3.266-3.473ZM498.829 48l.184-1.771c.667 1.311 2.116 2.07 3.818 2.07 3.266 0 5.405-2.415 5.405-5.911 0-3.588-1.978-6.118-5.221-6.118-1.725 0-3.243.759-3.979 2.024v-7.406h-2.806V48h2.599Zm.23-5.727c0-2.047 1.265-3.473 3.197-3.473 1.978 0 3.151 1.449 3.151 3.473s-1.173 3.45-3.151 3.45c-1.932 0-3.197-1.403-3.197-3.45Zm12.814-7.912c.92 0 1.679-.759 1.679-1.702s-.759-1.679-1.679-1.679c-.966 0-1.725.736-1.725 1.679 0 .943.759 1.702 1.725 1.702ZM510.47 48h2.806V36.638h-2.806V48Zm8.535 0V30.888h-2.783V48h2.783Zm8.026.299c2.967 0 5.037-1.495 5.52-3.979h-2.599c-.322 1.081-1.334 1.679-2.875 1.679-1.863 0-2.921-1.012-3.128-3.013l8.556-.023v-.851c0-3.542-2.162-5.819-5.566-5.819-3.335 0-5.658 2.461-5.658 6.026 0 3.519 2.369 5.98 5.75 5.98Zm-.069-9.706c1.679 0 2.76 1.035 2.76 2.599h-5.704c.276-1.702 1.288-2.599 2.944-2.599Z" fill="#000"/>
    <rect x="193" y="1" width="381" height="84" rx="39" stroke="url(#u)" stroke-width="2"/>
    <rect x="193" y="1" width="381" height="84" rx="39" stroke="url(#v)" stroke-width="2"/>
    <rect x="193" y="1" width="381" height="84" rx="39" stroke="url(#w)" stroke-width="2"/>
  </g>
  <defs>
    <radialGradient id="e" cx="0" cy="0" r="1" gradientUnits="userSpaceOnUse" gradientTransform="rotate(30.219 -68.518 18.5) scale(917.712 658.237)">
      <stop stop-color="#fff" stop-opacity=".4"/>
      <stop offset="1" stop-color="#fff" stop-opacity="0"/>
    </radialGradient>
    <radialGradient id="f" cx="0" cy="0" r="1" gradientUnits="userSpaceOnUse" gradientTransform="matrix(-648.49824 -146.93055 60.21206 -265.75422 611.491 168.108)">
      <stop offset=".007" stop-color="#A8A8A8"/>
      <stop offset="1" stop-color="#BBA18F"/>
    </radialGradient>
    <radialGradient id="g" cx="0" cy="0" r="1" gradientUnits="userSpaceOnUse" gradientTransform="rotate(152.398 322.315 125.556) scale(821.268 541.338)">
      <stop stop-color="#F68537"/>
      <stop offset="1" stop-color="#FFDEC7"/>
    </radialGradient>
    <radialGradient id="h" cx="0" cy="0" r="1" gradientUnits="userSpaceOnUse" gradientTransform="rotate(-142.522 405.435 115.06) scale(612.008 541.306)">
      <stop offset=".004" stop-color="#fff" stop-opacity=".22"/>
      <stop offset=".067" stop-color="#fff" stop-opacity="0"/>
      <stop offset="1" stop-color="#fff" stop-opacity=".31"/>
    </radialGradient>
    <radialGradient id="j" cx="0" cy="0" r="1" gradientUnits="userSpaceOnUse" gradientTransform="rotate(16.292 -658.57 304.923) scale(208.386 92.5413)">
      <stop stop-color="#fff" stop-opacity=".4"/>
      <stop offset="1" stop-color="#fff" stop-opacity="0"/>
    </radialGradient>
    <radialGradient id="k" cx="0" cy="0" r="1" gradientUnits="userSpaceOnUse" gradientTransform="matrix(-163.57032 -18.596 3.96899 -34.91121 213.332 213.594)">
      <stop offset=".007" stop-color="#A8A8A8"/>
      <stop offset="1" stop-color="#BBA18F"/>
    </radialGradient>
    <radialGradient id="l" cx="0" cy="0" r="1" gradientUnits="userSpaceOnUse" gradientTransform="matrix(-183.57291 48.15945 -18.97706 -72.33625 227.111 203.39)">
      <stop stop-color="#F68537"/>
      <stop offset="1" stop-color="#FFDEC7"/>
    </radialGradient>
    <radialGradient id="m" cx="0" cy="0" r="1" gradientUnits="userSpaceOnUse" gradientTransform="matrix(-122.50187 -47.13203 28.93297 -75.2003 224.855 249.659)">
      <stop offset=".004" stop-color="#fff" stop-opacity=".22"/>
      <stop offset=".067" stop-color="#fff" stop-opacity="0"/>
      <stop offset="1" stop-color="#fff" stop-opacity=".31"/>
    </radialGradient>
    <radialGradient id="o" cx="0" cy="0" r="1" gradientUnits="userSpaceOnUse" gradientTransform="rotate(46.982 94.328 600.964) scale(103.28 84.9609)">
      <stop stop-color="#fff" stop-opacity=".4"/>
      <stop offset="1" stop-color="#fff" stop-opacity="0"/>
    </radialGradient>
    <radialGradient id="p" cx="0" cy="0" r="1" gradientUnits="userSpaceOnUse" gradientTransform="matrix(-57.62132 -24.02085 16.2222 -38.91387 523.694 143.434)">
      <stop offset=".007" stop-color="#A8A8A8"/>
      <stop offset="1" stop-color="#BBA18F"/>
    </radialGradient>
    <radialGradient id="q" cx="0" cy="0" r="1" gradientUnits="userSpaceOnUse" gradientTransform="rotate(136.111 238.035 171.602) scale(89.7311 71.9709)">
      <stop stop-color="#F68537"/>
      <stop offset="1" stop-color="#FFDEC7"/>
    </radialGradient>
    <radialGradient id="r" cx="0" cy="0" r="1" gradientUnits="userSpaceOnUse" gradientTransform="matrix(-43.15384 -60.87848 52.61083 -37.2933 527.753 190.018)">
      <stop offset=".004" stop-color="#fff" stop-opacity=".22"/>
      <stop offset=".067" stop-color="#fff" stop-opacity="0"/>
      <stop offset="1" stop-color="#fff" stop-opacity=".31"/>
    </radialGradient>
    <radialGradient id="t" cx="0" cy="0" r="1" gradientUnits="userSpaceOnUse" gradientTransform="matrix(382.99991 92.16439 -34.5743 143.67759 192 0)">
      <stop stop-color="#FFD282"/>
      <stop offset="1" stop-color="#FFD282"/>
    </radialGradient>
    <radialGradient id="u" cx="0" cy="0" r="1" gradientUnits="userSpaceOnUse" gradientTransform="rotate(-174.652 244.279 1.7) scale(314.578 55.5071)">
      <stop offset=".007" stop-color="#A8A8A8"/>
      <stop offset="1" stop-color="#BBA18F"/>
    </radialGradient>
    <radialGradient id="v" cx="0" cy="0" r="1" gradientUnits="userSpaceOnUse" gradientTransform="rotate(167.811 256.322 32.462) scale(359.616 119.141)">
      <stop stop-color="#F68537"/>
      <stop offset="1" stop-color="#FFDEC7"/>
    </radialGradient>
    <radialGradient id="w" cx="0" cy="0" r="1" gradientUnits="userSpaceOnUse" gradientTransform="rotate(-162.424 261.117 2.134) scale(246.058 129.75)">
      <stop offset=".004" stop-color="#fff" stop-opacity=".22"/>
      <stop offset=".067" stop-color="#fff" stop-opacity="0"/>
      <stop offset="1" stop-color="#fff" stop-opacity=".31"/>
    </radialGradient>
    <filter id="d" x="-42" y="-5" width="877" height="515" filterUnits="userSpaceOnUse" color-interpolation-filters="sRGB">
      <feFlood flood-opacity="0" result="BackgroundImageFix"/>
      <feGaussianBlur in="BackgroundImageFix" stdDeviation="21"/>
      <feComposite in2="SourceAlpha" operator="in" result="effect1_backgroundBlur_229_155"/>
      <feBlend in="SourceGraphic" in2="effect1_backgroundBlur_229_155" result="shape"/>
    </filter>
    <filter id="i" x="17.096" y="155" width="284.018" height="138.55" filterUnits="userSpaceOnUse" color-interpolation-filters="sRGB">
      <feFlood flood-opacity="0" result="BackgroundImageFix"/>
      <feGaussianBlur in="BackgroundImageFix" stdDeviation="21"/>
      <feComposite in2="SourceAlpha" operator="in" result="effect1_backgroundBlur_229_155"/>
      <feBlend in="SourceGraphic" in2="effect1_backgroundBlur_229_155" result="shape"/>
    </filter>
    <filter id="n" x="427.36" y="80" width="154.461" height="154.461" filterUnits="userSpaceOnUse" color-interpolation-filters="sRGB">
      <feFlood flood-opacity="0" result="BackgroundImageFix"/>
      <feGaussianBlur in="BackgroundImageFix" stdDeviation="21"/>
      <feComposite in2="SourceAlpha" operator="in" result="effect1_backgroundBlur_229_155"/>
      <feBlend in="SourceGraphic" in2="effect1_backgroundBlur_229_155" result="shape"/>
    </filter>
    <filter id="s" x="150" y="-42" width="467" height="170" filterUnits="userSpaceOnUse" color-interpolation-filters="sRGB">
      <feFlood flood-opacity="0" result="BackgroundImageFix"/>
      <feGaussianBlur in="BackgroundImageFix" stdDeviation="21"/>
      <feComposite in2="SourceAlpha" operator="in" result="effect1_backgroundBlur_229_155"/>
      <feBlend in="SourceGraphic" in2="effect1_backgroundBlur_229_155" result="shape"/>
    </filter>
    <linearGradient id="a" x1="301.59" y1="526.555" x2="363.122" y2="435.438" gradientUnits="userSpaceOnUse">
      <stop stop-color="#FEC34A"/>
      <stop offset="1" stop-color="#FFE067"/>
    </linearGradient>
    <linearGradient id="b" x1="361.635" y1="429.288" x2="339.368" y2="455.968" gradientUnits="userSpaceOnUse">
      <stop stop-color="#FE893E"/>
      <stop offset="1" stop-color="#FFAD44"/>
    </linearGradient>
    <linearGradient id="c" x1="311.82" y1="471.404" x2="365.216" y2="536.111" gradientUnits="userSpaceOnUse">
      <stop stop-color="#FE893E"/>
      <stop offset="1" stop-color="#FFAD44"/>
    </linearGradient>
  </defs>
</svg>
