<svg width="793" height="547" viewBox="0 0 793 547" fill="none" xmlns="http://www.w3.org/2000/svg">
<path d="M437.8 461.208L293.713 405L239 531.493L437.8 461.208ZM267.157 508.21L302.388 425.919L395.502 462.579L387.943 464.142L272.442 506.288L267.157 508.21Z" fill="url(#paint0_linear_229_155)"/>
<path d="M302.119 436.045L380.283 466.992L395.502 462.579L302.389 425.918L267.157 508.211L272.441 506.288L302.119 436.045Z" fill="url(#paint1_linear_229_155)"/>
<path d="M437.201 476.708L437.8 461.207L239 531.493L240.714 547L437.201 476.708Z" fill="url(#paint2_linear_229_155)"/>
<g filter="url(#filter0_b_229_155)">
<rect y="37" width="793" height="431" rx="40" fill="url(#paint3_radial_229_155)"/>
<rect x="1.5" y="38.5" width="790" height="428" rx="38.5" stroke="url(#paint4_radial_229_155)" stroke-width="3"/>
<rect x="1.5" y="38.5" width="790" height="428" rx="38.5" stroke="url(#paint5_radial_229_155)" stroke-width="3"/>
<rect x="1.5" y="38.5" width="790" height="428" rx="38.5" stroke="url(#paint6_radial_229_155)" stroke-width="3"/>
</g>
<g filter="url(#filter1_b_229_155)">
<rect x="59.0963" y="197" width="200.018" height="54.5504" rx="27.2752" fill="url(#paint7_radial_229_155)" fill-opacity="0.8"/>
<rect x="60.0963" y="198" width="198.018" height="52.5504" rx="26.2752" stroke="url(#paint8_radial_229_155)" stroke-width="2"/>
<rect x="60.0963" y="198" width="198.018" height="52.5504" rx="26.2752" stroke="url(#paint9_radial_229_155)" stroke-width="2"/>
<rect x="60.0963" y="198" width="198.018" height="52.5504" rx="26.2752" stroke="url(#paint10_radial_229_155)" stroke-width="2"/>
</g>
<path d="M88.9634 229.638L90.0254 226.596H94.9394L96.0014 229.638H98.4314L93.6794 216.48H91.3214L86.5694 229.638H88.9634ZM92.2034 220.404C92.3294 220.044 92.4374 219.648 92.4914 219.396C92.5274 219.666 92.6534 220.062 92.7614 220.404L94.2734 224.652H90.7094L92.2034 220.404ZM101.609 229.638H103.769L107.477 220.746H105.209L103.589 224.832C103.211 225.804 102.887 226.74 102.761 227.298C102.653 226.812 102.347 225.894 101.969 224.832L100.421 220.746H98.0814L101.609 229.638ZM110.946 229.872C112.332 229.872 113.538 229.242 113.916 228.324L114.078 229.638H116.004V224.238C116.004 221.772 114.528 220.476 112.134 220.476C109.722 220.476 108.138 221.736 108.138 223.662H110.01C110.01 222.726 110.73 222.186 112.026 222.186C113.142 222.186 113.862 222.672 113.862 223.878V224.076L111.198 224.274C109.092 224.436 107.904 225.462 107.904 227.1C107.904 228.774 109.056 229.872 110.946 229.872ZM111.666 228.216C110.676 228.216 110.136 227.82 110.136 227.01C110.136 226.29 110.658 225.84 112.026 225.714L113.88 225.57V226.038C113.88 227.406 113.016 228.216 111.666 228.216ZM119.26 218.964C119.98 218.964 120.574 218.37 120.574 217.632C120.574 216.894 119.98 216.318 119.26 216.318C118.504 216.318 117.91 216.894 117.91 217.632C117.91 218.37 118.504 218.964 119.26 218.964ZM118.162 229.638H120.358V220.746H118.162V229.638ZM124.841 229.638V216.246H122.663V229.638H124.841ZM129.79 229.872C131.176 229.872 132.382 229.242 132.76 228.324L132.922 229.638H134.848V224.238C134.848 221.772 133.372 220.476 130.978 220.476C128.566 220.476 126.982 221.736 126.982 223.662H128.854C128.854 222.726 129.574 222.186 130.87 222.186C131.986 222.186 132.706 222.672 132.706 223.878V224.076L130.042 224.274C127.936 224.436 126.748 225.462 126.748 227.1C126.748 228.774 127.9 229.872 129.79 229.872ZM130.51 228.216C129.52 228.216 128.98 227.82 128.98 227.01C128.98 226.29 129.502 225.84 130.87 225.714L132.724 225.57V226.038C132.724 227.406 131.86 228.216 130.51 228.216ZM139.039 229.638L139.183 228.252C139.705 229.278 140.839 229.872 142.171 229.872C144.727 229.872 146.401 227.982 146.401 225.246C146.401 222.438 144.853 220.458 142.315 220.458C140.965 220.458 139.777 221.052 139.201 222.042V216.246H137.005V229.638H139.039ZM139.219 225.156C139.219 223.554 140.209 222.438 141.721 222.438C143.269 222.438 144.187 223.572 144.187 225.156C144.187 226.74 143.269 227.856 141.721 227.856C140.209 227.856 139.219 226.758 139.219 225.156ZM150.364 229.638V216.246H148.186V229.638H150.364ZM156.646 229.872C158.968 229.872 160.588 228.702 160.966 226.758H158.932C158.68 227.604 157.888 228.072 156.682 228.072C155.224 228.072 154.396 227.28 154.234 225.714L160.93 225.696V225.03C160.93 222.258 159.238 220.476 156.574 220.476C153.964 220.476 152.146 222.402 152.146 225.192C152.146 227.946 154 229.872 156.646 229.872ZM156.592 222.276C157.906 222.276 158.752 223.086 158.752 224.31H154.288C154.504 222.978 155.296 222.276 156.592 222.276ZM169.735 229.638V224.778C169.735 223.446 170.545 222.474 171.931 222.474C173.047 222.474 173.785 223.194 173.785 224.688V229.638H175.981V224.166C175.981 221.862 174.829 220.476 172.633 220.476C171.355 220.476 170.311 221.034 169.753 221.898V216.246H167.539V229.638H169.735ZM177.616 225.174C177.616 227.946 179.614 229.854 182.368 229.854C185.122 229.854 187.12 227.946 187.12 225.174C187.12 222.402 185.122 220.494 182.368 220.494C179.614 220.494 177.616 222.402 177.616 225.174ZM179.812 225.174C179.812 223.554 180.856 222.456 182.368 222.456C183.88 222.456 184.924 223.554 184.924 225.174C184.924 226.794 183.88 227.892 182.368 227.892C180.856 227.892 179.812 226.794 179.812 225.174ZM194.68 220.746V225.408C194.68 227.1 194.014 227.91 192.628 227.91C191.404 227.91 190.738 227.226 190.738 225.534V220.746H188.542V226.308C188.542 228.486 189.748 229.872 191.8 229.872C192.988 229.872 194.14 229.296 194.68 228.45L194.842 229.638H196.876V220.746H194.68ZM204.724 220.71C204.364 220.62 204.058 220.584 203.752 220.584C202.564 220.584 201.718 221.178 201.34 222.06L201.214 220.764H199.144V229.638H201.34V225.318C201.34 223.59 202.33 222.744 203.914 222.744H204.724V220.71ZM205.526 226.938C205.526 228.684 206.93 229.872 209.144 229.872C211.34 229.872 212.87 228.756 212.87 226.956C212.87 225.588 212.114 224.904 210.62 224.562L209.018 224.184C208.262 224.004 207.866 223.68 207.866 223.176C207.866 222.51 208.37 222.114 209.234 222.114C210.08 222.114 210.584 222.6 210.602 223.356H212.69C212.672 221.628 211.322 220.476 209.324 220.476C207.272 220.476 205.796 221.52 205.796 223.266C205.796 224.688 206.57 225.444 208.172 225.804L209.774 226.182C210.566 226.362 210.8 226.686 210.8 227.136C210.8 227.784 210.242 228.198 209.216 228.198C208.208 228.198 207.632 227.712 207.614 226.938H205.526Z" fill="#F5F5F5"/>
<path d="M60.3563 308.79C60.3563 312.78 63.6263 315.36 68.6963 315.36C73.7963 315.36 77.0663 312.75 77.0663 308.79C77.0663 306.15 75.5663 304.02 73.2563 303.21C75.2063 302.4 76.2863 300.75 76.2863 298.62C76.2863 295.05 73.2563 292.68 68.7563 292.68C64.2263 292.68 61.1363 295.08 61.1363 298.56C61.1363 300.69 62.1863 302.34 64.1063 303.21C61.8263 304.08 60.3563 306.18 60.3563 308.79ZM64.6163 298.89C64.6163 297.09 66.2063 295.95 68.6963 295.95C71.1563 295.95 72.7163 297.09 72.7163 298.92C72.7163 300.75 71.1563 301.89 68.6963 301.89C66.2063 301.89 64.6163 300.72 64.6163 298.89ZM64.1063 308.52C64.1063 306.39 65.8763 305.07 68.6963 305.07C71.5163 305.07 73.2863 306.39 73.2863 308.52C73.2863 310.65 71.5163 311.97 68.7263 311.97C65.8763 311.97 64.1063 310.65 64.1063 308.52ZM82.9651 304.44C84.2851 304.44 85.3951 303.36 85.3951 302.07C85.3951 300.75 84.2851 299.67 82.9651 299.67C81.6451 299.67 80.5351 300.75 80.5351 302.07C80.5351 303.36 81.6451 304.44 82.9651 304.44ZM82.9651 315.36C84.2851 315.36 85.3951 314.28 85.3951 312.99C85.3951 311.67 84.2851 310.59 82.9651 310.59C81.6451 310.59 80.5351 311.67 80.5351 312.99C80.5351 314.28 81.6451 315.36 82.9651 315.36ZM88.9215 304.08C88.9215 310.86 92.3715 315.39 98.1915 315.39C104.011 315.39 107.491 310.86 107.491 304.08C107.491 297.27 103.801 292.65 98.1915 292.65C92.5815 292.65 88.9215 297.27 88.9215 304.08ZM92.7015 304.08C92.7015 298.89 94.7415 296.04 98.1915 296.04C101.671 296.04 103.711 298.89 103.711 304.08C103.711 309.15 101.671 312 98.1915 312C94.7415 312 92.7015 309.15 92.7015 304.08ZM110.074 304.08C110.074 310.86 113.524 315.39 119.344 315.39C125.164 315.39 128.644 310.86 128.644 304.08C128.644 297.27 124.954 292.65 119.344 292.65C113.734 292.65 110.074 297.27 110.074 304.08ZM113.854 304.08C113.854 298.89 115.894 296.04 119.344 296.04C122.824 296.04 124.864 298.89 124.864 304.08C124.864 309.15 122.824 312 119.344 312C115.894 312 113.854 309.15 113.854 304.08Z" fill="#F5F5F5"/>
<path d="M209.385 308.55C211.845 305.22 212.715 303.3 212.715 300.66C212.715 296.16 209.175 292.68 204.435 292.68C199.755 292.68 196.275 295.95 196.275 300.63C196.275 305.07 199.335 308.25 203.865 308.25C204.405 308.25 204.975 308.16 205.515 308.01L200.265 315H204.645L209.385 308.55ZM208.785 300.63C208.785 303.27 207.045 305.1 204.435 305.1C201.915 305.1 200.145 303.27 200.145 300.63C200.145 297.96 201.915 296.1 204.435 296.1C207.015 296.1 208.785 297.96 208.785 300.63ZM218.449 304.44C219.769 304.44 220.879 303.36 220.879 302.07C220.879 300.75 219.769 299.67 218.449 299.67C217.129 299.67 216.019 300.75 216.019 302.07C216.019 303.36 217.129 304.44 218.449 304.44ZM218.449 315.36C219.769 315.36 220.879 314.28 220.879 312.99C220.879 311.67 219.769 310.59 218.449 310.59C217.129 310.59 216.019 311.67 216.019 312.99C216.019 314.28 217.129 315.36 218.449 315.36ZM224.405 304.08C224.405 310.86 227.855 315.39 233.675 315.39C239.495 315.39 242.975 310.86 242.975 304.08C242.975 297.27 239.285 292.65 233.675 292.65C228.065 292.65 224.405 297.27 224.405 304.08ZM228.185 304.08C228.185 298.89 230.225 296.04 233.675 296.04C237.155 296.04 239.195 298.89 239.195 304.08C239.195 309.15 237.155 312 233.675 312C230.225 312 228.185 309.15 228.185 304.08ZM245.558 304.08C245.558 310.86 249.008 315.39 254.828 315.39C260.648 315.39 264.128 310.86 264.128 304.08C264.128 297.27 260.438 292.65 254.828 292.65C249.218 292.65 245.558 297.27 245.558 304.08ZM249.338 304.08C249.338 298.89 251.378 296.04 254.828 296.04C258.308 296.04 260.348 298.89 260.348 304.08C260.348 309.15 258.308 312 254.828 312C251.378 312 249.338 309.15 249.338 304.08Z" fill="#F5F5F5" fill-opacity="0.4"/>
<path d="M337.115 296.52V315H340.805V293.07H332.315V296.52H337.115ZM344.538 304.08C344.538 310.86 347.988 315.39 353.808 315.39C359.628 315.39 363.108 310.86 363.108 304.08C363.108 297.27 359.418 292.65 353.808 292.65C348.198 292.65 344.538 297.27 344.538 304.08ZM348.318 304.08C348.318 298.89 350.358 296.04 353.808 296.04C357.288 296.04 359.328 298.89 359.328 304.08C359.328 309.15 357.288 312 353.808 312C350.358 312 348.318 309.15 348.318 304.08ZM369.05 304.44C370.37 304.44 371.48 303.36 371.48 302.07C371.48 300.75 370.37 299.67 369.05 299.67C367.73 299.67 366.62 300.75 366.62 302.07C366.62 303.36 367.73 304.44 369.05 304.44ZM369.05 315.36C370.37 315.36 371.48 314.28 371.48 312.99C371.48 311.67 370.37 310.59 369.05 310.59C367.73 310.59 366.62 311.67 366.62 312.99C366.62 314.28 367.73 315.36 369.05 315.36ZM375.006 304.08C375.006 310.86 378.456 315.39 384.276 315.39C390.096 315.39 393.576 310.86 393.576 304.08C393.576 297.27 389.886 292.65 384.276 292.65C378.666 292.65 375.006 297.27 375.006 304.08ZM378.786 304.08C378.786 298.89 380.826 296.04 384.276 296.04C387.756 296.04 389.796 298.89 389.796 304.08C389.796 309.15 387.756 312 384.276 312C380.826 312 378.786 309.15 378.786 304.08ZM396.159 304.08C396.159 310.86 399.609 315.39 405.429 315.39C411.249 315.39 414.729 310.86 414.729 304.08C414.729 297.27 411.039 292.65 405.429 292.65C399.819 292.65 396.159 297.27 396.159 304.08ZM399.939 304.08C399.939 298.89 401.979 296.04 405.429 296.04C408.909 296.04 410.949 298.89 410.949 304.08C410.949 309.15 408.909 312 405.429 312C401.979 312 399.939 309.15 399.939 304.08Z" fill="#F5F5F5" fill-opacity="0.4"/>
<path d="M490.856 296.52V315H494.546V293.07H486.056V296.52H490.856ZM502.399 296.52V315H506.089V293.07H497.599V296.52H502.399ZM513.182 304.44C514.502 304.44 515.612 303.36 515.612 302.07C515.612 300.75 514.502 299.67 513.182 299.67C511.862 299.67 510.752 300.75 510.752 302.07C510.752 303.36 511.862 304.44 513.182 304.44ZM513.182 315.36C514.502 315.36 515.612 314.28 515.612 312.99C515.612 311.67 514.502 310.59 513.182 310.59C511.862 310.59 510.752 311.67 510.752 312.99C510.752 314.28 511.862 315.36 513.182 315.36ZM519.139 304.08C519.139 310.86 522.589 315.39 528.409 315.39C534.229 315.39 537.709 310.86 537.709 304.08C537.709 297.27 534.019 292.65 528.409 292.65C522.799 292.65 519.139 297.27 519.139 304.08ZM522.919 304.08C522.919 298.89 524.959 296.04 528.409 296.04C531.889 296.04 533.929 298.89 533.929 304.08C533.929 309.15 531.889 312 528.409 312C524.959 312 522.919 309.15 522.919 304.08ZM540.291 304.08C540.291 310.86 543.741 315.39 549.561 315.39C555.381 315.39 558.861 310.86 558.861 304.08C558.861 297.27 555.171 292.65 549.561 292.65C543.951 292.65 540.291 297.27 540.291 304.08ZM544.071 304.08C544.071 298.89 546.111 296.04 549.561 296.04C553.041 296.04 555.081 298.89 555.081 304.08C555.081 309.15 553.041 312 549.561 312C546.111 312 544.071 309.15 544.071 304.08Z" fill="#F5F5F5"/>
<path d="M644.598 296.52V315H648.288V293.07H639.798V296.52H644.598ZM667.321 314.97V311.4H658.201L662.161 308.01C665.491 305.16 667.171 302.85 667.171 299.79C667.171 295.35 664.261 292.68 659.581 292.68C654.931 292.68 651.871 295.8 651.841 300.6H655.651C655.681 297.78 657.181 296.1 659.581 296.1C661.891 296.1 663.241 297.51 663.241 300C663.241 302.1 662.251 303.54 659.281 306.06L652.111 312.12V315L667.321 314.97ZM673.047 304.44C674.367 304.44 675.477 303.36 675.477 302.07C675.477 300.75 674.367 299.67 673.047 299.67C671.727 299.67 670.617 300.75 670.617 302.07C670.617 303.36 671.727 304.44 673.047 304.44ZM673.047 315.36C674.367 315.36 675.477 314.28 675.477 312.99C675.477 311.67 674.367 310.59 673.047 310.59C671.727 310.59 670.617 311.67 670.617 312.99C670.617 314.28 671.727 315.36 673.047 315.36ZM679.003 304.08C679.003 310.86 682.453 315.39 688.273 315.39C694.093 315.39 697.573 310.86 697.573 304.08C697.573 297.27 693.883 292.65 688.273 292.65C682.663 292.65 679.003 297.27 679.003 304.08ZM682.783 304.08C682.783 298.89 684.823 296.04 688.273 296.04C691.753 296.04 693.793 298.89 693.793 304.08C693.793 309.15 691.753 312 688.273 312C684.823 312 682.783 309.15 682.783 304.08ZM700.156 304.08C700.156 310.86 703.606 315.39 709.426 315.39C715.246 315.39 718.726 310.86 718.726 304.08C718.726 297.27 715.036 292.65 709.426 292.65C703.816 292.65 700.156 297.27 700.156 304.08ZM703.936 304.08C703.936 298.89 705.976 296.04 709.426 296.04C712.906 296.04 714.946 298.89 714.946 304.08C714.946 309.15 712.906 312 709.426 312C705.976 312 703.936 309.15 703.936 304.08Z" fill="#F5F5F5"/>
<path d="M64.9163 367.09V385.57H68.6063V363.64H60.1163V367.09H64.9163ZM75.6994 375.01C77.0194 375.01 78.1294 373.93 78.1294 372.64C78.1294 371.32 77.0194 370.24 75.6994 370.24C74.3794 370.24 73.2694 371.32 73.2694 372.64C73.2694 373.93 74.3794 375.01 75.6994 375.01ZM75.6994 385.93C77.0194 385.93 78.1294 384.85 78.1294 383.56C78.1294 382.24 77.0194 381.16 75.6994 381.16C74.3794 381.16 73.2694 382.24 73.2694 383.56C73.2694 384.85 74.3794 385.93 75.6994 385.93ZM81.6558 374.65C81.6558 381.43 85.1058 385.96 90.9258 385.96C96.7458 385.96 100.226 381.43 100.226 374.65C100.226 367.84 96.5358 363.22 90.9258 363.22C85.3158 363.22 81.6558 367.84 81.6558 374.65ZM85.4358 374.65C85.4358 369.46 87.4758 366.61 90.9258 366.61C94.4058 366.61 96.4458 369.46 96.4458 374.65C96.4458 379.72 94.4058 382.57 90.9258 382.57C87.4758 382.57 85.4358 379.72 85.4358 374.65ZM102.808 374.65C102.808 381.43 106.258 385.96 112.078 385.96C117.898 385.96 121.378 381.43 121.378 374.65C121.378 367.84 117.688 363.22 112.078 363.22C106.468 363.22 102.808 367.84 102.808 374.65ZM106.588 374.65C106.588 369.46 108.628 366.61 112.078 366.61C115.558 366.61 117.598 369.46 117.598 374.65C117.598 379.72 115.558 382.57 112.078 382.57C108.628 382.57 106.588 379.72 106.588 374.65Z" fill="#F5F5F5" fill-opacity="0.4"/>
<path d="M214.306 385.54V381.97H205.186L209.146 378.58C212.476 375.73 214.156 373.42 214.156 370.36C214.156 365.92 211.246 363.25 206.566 363.25C201.916 363.25 198.856 366.37 198.826 371.17H202.636C202.666 368.35 204.166 366.67 206.566 366.67C208.876 366.67 210.226 368.08 210.226 370.57C210.226 372.67 209.236 374.11 206.266 376.63L199.096 382.69V385.57L214.306 385.54ZM220.032 375.01C221.352 375.01 222.462 373.93 222.462 372.64C222.462 371.32 221.352 370.24 220.032 370.24C218.712 370.24 217.602 371.32 217.602 372.64C217.602 373.93 218.712 375.01 220.032 375.01ZM220.032 385.93C221.352 385.93 222.462 384.85 222.462 383.56C222.462 382.24 221.352 381.16 220.032 381.16C218.712 381.16 217.602 382.24 217.602 383.56C217.602 384.85 218.712 385.93 220.032 385.93ZM225.988 374.65C225.988 381.43 229.438 385.96 235.258 385.96C241.078 385.96 244.558 381.43 244.558 374.65C244.558 367.84 240.868 363.22 235.258 363.22C229.648 363.22 225.988 367.84 225.988 374.65ZM229.768 374.65C229.768 369.46 231.808 366.61 235.258 366.61C238.738 366.61 240.778 369.46 240.778 374.65C240.778 379.72 238.738 382.57 235.258 382.57C231.808 382.57 229.768 379.72 229.768 374.65ZM247.14 374.65C247.14 381.43 250.59 385.96 256.41 385.96C262.23 385.96 265.71 381.43 265.71 374.65C265.71 367.84 262.02 363.22 256.41 363.22C250.8 363.22 247.14 367.84 247.14 374.65ZM250.92 374.65C250.92 369.46 252.96 366.61 256.41 366.61C259.89 366.61 261.93 369.46 261.93 374.65C261.93 379.72 259.89 382.57 256.41 382.57C252.96 382.57 250.92 379.72 250.92 374.65Z" fill="#F5F5F5"/>
<path d="M359.228 374.71C362.288 374.71 363.728 376.33 363.728 378.55C363.728 380.98 362.138 382.54 359.738 382.54C357.398 382.54 355.838 381.1 355.838 378.58H352.058C352.058 383.32 355.388 385.96 359.678 385.96C364.118 385.96 367.628 383.11 367.628 378.61C367.628 374.74 365.018 372.28 361.658 371.62L366.998 366.7V363.64H353.078V367.03H362.198L356.558 372.22V374.71H359.228ZM373.188 375.01C374.508 375.01 375.618 373.93 375.618 372.64C375.618 371.32 374.508 370.24 373.188 370.24C371.868 370.24 370.758 371.32 370.758 372.64C370.758 373.93 371.868 375.01 373.188 375.01ZM373.188 385.93C374.508 385.93 375.618 384.85 375.618 383.56C375.618 382.24 374.508 381.16 373.188 381.16C371.868 381.16 370.758 382.24 370.758 383.56C370.758 384.85 371.868 385.93 373.188 385.93ZM379.144 374.65C379.144 381.43 382.594 385.96 388.414 385.96C394.234 385.96 397.714 381.43 397.714 374.65C397.714 367.84 394.024 363.22 388.414 363.22C382.804 363.22 379.144 367.84 379.144 374.65ZM382.924 374.65C382.924 369.46 384.964 366.61 388.414 366.61C391.894 366.61 393.934 369.46 393.934 374.65C393.934 379.72 391.894 382.57 388.414 382.57C384.964 382.57 382.924 379.72 382.924 374.65ZM400.296 374.65C400.296 381.43 403.746 385.96 409.566 385.96C415.386 385.96 418.866 381.43 418.866 374.65C418.866 367.84 415.176 363.22 409.566 363.22C403.956 363.22 400.296 367.84 400.296 374.65ZM404.076 374.65C404.076 369.46 406.116 366.61 409.566 366.61C413.046 366.61 415.086 369.46 415.086 374.65C415.086 379.72 413.046 382.57 409.566 382.57C406.116 382.57 404.076 379.72 404.076 374.65Z" fill="#F5F5F5"/>
<path d="M509.607 381.4V378.04H506.937V363.64H502.107L492.177 378.04V381.4H503.307V385.57H506.937V381.4H509.607ZM496.257 378.04L503.307 367.78V378.04H496.257ZM515.382 375.01C516.702 375.01 517.812 373.93 517.812 372.64C517.812 371.32 516.702 370.24 515.382 370.24C514.062 370.24 512.952 371.32 512.952 372.64C512.952 373.93 514.062 375.01 515.382 375.01ZM515.382 385.93C516.702 385.93 517.812 384.85 517.812 383.56C517.812 382.24 516.702 381.16 515.382 381.16C514.062 381.16 512.952 382.24 512.952 383.56C512.952 384.85 514.062 385.93 515.382 385.93ZM521.338 374.65C521.338 381.43 524.788 385.96 530.608 385.96C536.428 385.96 539.908 381.43 539.908 374.65C539.908 367.84 536.218 363.22 530.608 363.22C524.998 363.22 521.338 367.84 521.338 374.65ZM525.118 374.65C525.118 369.46 527.158 366.61 530.608 366.61C534.088 366.61 536.128 369.46 536.128 374.65C536.128 379.72 534.088 382.57 530.608 382.57C527.158 382.57 525.118 379.72 525.118 374.65ZM542.49 374.65C542.49 381.43 545.94 385.96 551.76 385.96C557.58 385.96 561.06 381.43 561.06 374.65C561.06 367.84 557.37 363.22 551.76 363.22C546.15 363.22 542.49 367.84 542.49 374.65ZM546.27 374.65C546.27 369.46 548.31 366.61 551.76 366.61C555.24 366.61 557.28 369.46 557.28 374.65C557.28 379.72 555.24 382.57 551.76 382.57C548.31 382.57 546.27 379.72 546.27 374.65Z" fill="#F5F5F5"/>
<path d="M662.75 385.93C667.64 385.93 670.97 382.69 670.97 377.95C670.97 373.63 668.06 370.66 663.68 370.66C662.18 370.66 660.86 371.05 659.81 371.74L660.98 367.18H669.65V363.64H658.22L655.52 375.13L658.91 375.85C659.69 374.71 661.22 373.87 662.9 373.87C665.54 373.87 667.07 375.61 667.07 378.16C667.07 380.83 665.42 382.51 662.84 382.51C660.41 382.51 658.94 381.04 658.94 378.55H655.13C655.13 382.99 658.16 385.93 662.75 385.93ZM676.538 375.01C677.858 375.01 678.968 373.93 678.968 372.64C678.968 371.32 677.858 370.24 676.538 370.24C675.218 370.24 674.108 371.32 674.108 372.64C674.108 373.93 675.218 375.01 676.538 375.01ZM676.538 385.93C677.858 385.93 678.968 384.85 678.968 383.56C678.968 382.24 677.858 381.16 676.538 381.16C675.218 381.16 674.108 382.24 674.108 383.56C674.108 384.85 675.218 385.93 676.538 385.93ZM682.495 374.65C682.495 381.43 685.945 385.96 691.765 385.96C697.585 385.96 701.065 381.43 701.065 374.65C701.065 367.84 697.375 363.22 691.765 363.22C686.155 363.22 682.495 367.84 682.495 374.65ZM686.275 374.65C686.275 369.46 688.315 366.61 691.765 366.61C695.245 366.61 697.285 369.46 697.285 374.65C697.285 379.72 695.245 382.57 691.765 382.57C688.315 382.57 686.275 379.72 686.275 374.65ZM703.647 374.65C703.647 381.43 707.097 385.96 712.917 385.96C718.737 385.96 722.217 381.43 722.217 374.65C722.217 367.84 718.527 363.22 712.917 363.22C707.307 363.22 703.647 367.84 703.647 374.65ZM707.427 374.65C707.427 369.46 709.467 366.61 712.917 366.61C716.397 366.61 718.437 369.46 718.437 374.65C718.437 379.72 716.397 382.57 712.917 382.57C709.467 382.57 707.427 379.72 707.427 374.65Z" fill="#F5F5F5" fill-opacity="0.4"/>
<path d="M62.6963 160.047V153.867C62.6963 151.847 62.6563 150.367 62.5563 149.667L66.7563 160.047H68.5963L72.8163 149.627C72.7163 150.647 72.6963 151.627 72.6963 154.327V160.047H74.6163V145.587H72.6563L67.6763 157.747L62.6963 145.587H60.7763V160.047H62.6963ZM77.0233 155.147C77.0233 158.167 79.1833 160.287 82.1233 160.287C85.0433 160.287 87.2033 158.167 87.2033 155.147C87.2033 152.127 85.0433 150.007 82.1233 150.007C79.1833 150.007 77.0233 152.127 77.0233 155.147ZM78.9233 155.147C78.9233 153.107 80.2233 151.687 82.1233 151.687C84.0033 151.687 85.3233 153.107 85.3233 155.147C85.3233 157.187 84.0033 158.607 82.1233 158.607C80.2233 158.607 78.9233 157.187 78.9233 155.147Z" fill="#ADADAD"/>
<path d="M595.212 149.487C595.212 151.567 596.432 152.927 598.792 153.467L601.172 154.007C602.552 154.327 603.172 155.047 603.172 156.187C603.172 157.627 601.952 158.527 600.032 158.527C598.212 158.527 597.052 157.647 597.012 156.267H595.012C595.132 158.747 597.092 160.287 600.032 160.287C603.112 160.287 605.132 158.627 605.132 156.027C605.132 153.987 603.932 152.707 601.572 152.167L599.192 151.607C597.832 151.287 597.172 150.587 597.172 149.427C597.172 148.007 598.352 147.087 600.172 147.087C601.792 147.087 602.812 147.927 602.912 149.367H604.892C604.732 146.867 602.952 145.327 600.192 145.327C597.212 145.327 595.212 147.007 595.212 149.487ZM610.135 160.287C611.715 160.287 613.055 159.587 613.555 158.467L613.755 160.047H615.355V153.907C615.355 151.267 613.715 149.987 611.295 149.987C608.775 149.987 607.095 151.327 607.095 153.367H608.735C608.735 152.187 609.635 151.487 611.215 151.487C612.535 151.487 613.515 152.067 613.515 153.707V153.987L610.435 154.227C608.135 154.407 606.795 155.527 606.795 157.327C606.795 159.107 608.035 160.287 610.135 160.287ZM610.675 158.827C609.455 158.827 608.695 158.307 608.695 157.267C608.695 156.307 609.375 155.667 611.035 155.507L613.535 155.307V155.827C613.535 157.667 612.455 158.827 610.675 158.827Z" fill="#ADADAD"/>
<path d="M509.365 153.907V152.127H503.685V147.387H510.445V145.587H501.725V160.047H503.685V153.907H509.365ZM517.493 150.187C517.113 150.107 516.833 150.067 516.493 150.067C515.153 150.067 514.173 150.747 513.773 151.767L513.653 150.287H511.893V160.047H513.773V154.867C513.773 152.987 514.873 151.907 516.653 151.907H517.493V150.187Z" fill="#ADADAD"/>
<path d="M384.405 147.387H388.765V160.047H390.725V147.387H395.065V145.587H384.405V147.387ZM398.596 160.027V154.707C398.596 153.027 399.576 151.707 401.396 151.707C402.796 151.707 403.736 152.507 403.736 154.487V160.047H405.616V154.067C405.616 151.567 404.416 149.987 401.916 149.987C400.396 149.987 399.216 150.707 398.596 151.767V145.327H396.716V160.027H398.596Z" fill="#ADADAD"/>
<path d="M269.397 160.047H271.317L274.857 148.607L278.357 160.047H280.237L284.597 145.587H282.597L279.937 154.447C279.737 155.087 279.537 155.827 279.297 157.047C279.077 155.967 278.877 155.207 278.637 154.427L275.917 145.587H273.797L271.057 154.427C270.837 155.187 270.617 155.887 270.377 157.047C270.177 155.947 269.977 155.187 269.777 154.427L267.137 145.587H265.097L269.397 160.047ZM289.205 160.287C291.625 160.287 293.265 159.107 293.745 157.007H291.985C291.665 158.127 290.705 158.727 289.245 158.727C287.385 158.727 286.305 157.587 286.165 155.527L293.725 155.507V154.807C293.725 151.907 291.905 149.987 289.125 149.987C286.285 149.987 284.345 152.107 284.345 155.167C284.345 158.207 286.325 160.287 289.205 160.287ZM289.125 151.567C290.785 151.567 291.845 152.647 291.845 154.267H286.205C286.445 152.547 287.485 151.567 289.125 151.567Z" fill="#ADADAD"/>
<path d="M161.658 147.387H166.018V160.047H167.978V147.387H172.318V145.587H161.658V147.387ZM179.537 150.267V155.427C179.537 157.527 178.597 158.627 176.877 158.627C175.437 158.627 174.537 157.827 174.537 155.727V150.267H172.657V156.347C172.657 158.747 173.937 160.287 176.217 160.287C177.657 160.287 178.957 159.587 179.517 158.567L179.717 160.047H181.397V150.267H179.537Z" fill="#ADADAD"/>
<path d="M694.162 154.902C694.162 154.57 694.11 154.277 694.006 154.023C693.908 153.763 693.732 153.528 693.478 153.32C693.231 153.112 692.886 152.913 692.443 152.724C692.007 152.535 691.454 152.343 690.783 152.148C690.08 151.94 689.445 151.709 688.879 151.455C688.312 151.194 687.827 150.898 687.424 150.566C687.02 150.234 686.711 149.853 686.496 149.423C686.281 148.994 686.174 148.502 686.174 147.949C686.174 147.395 686.288 146.884 686.515 146.416C686.743 145.947 687.069 145.54 687.492 145.195C687.922 144.843 688.433 144.57 689.025 144.375C689.618 144.179 690.278 144.082 691.008 144.082C692.075 144.082 692.98 144.287 693.722 144.697C694.471 145.1 695.041 145.631 695.431 146.289C695.822 146.94 696.017 147.636 696.017 148.378H694.142C694.142 147.845 694.028 147.373 693.801 146.962C693.573 146.546 693.228 146.22 692.765 145.986C692.303 145.745 691.717 145.625 691.008 145.625C690.337 145.625 689.784 145.725 689.347 145.927C688.911 146.129 688.586 146.403 688.371 146.748C688.163 147.093 688.058 147.487 688.058 147.929C688.058 148.229 688.12 148.502 688.244 148.75C688.374 148.99 688.573 149.215 688.84 149.423C689.113 149.632 689.458 149.824 689.875 150C690.298 150.175 690.802 150.345 691.388 150.507C692.196 150.735 692.892 150.989 693.478 151.269C694.064 151.549 694.546 151.865 694.924 152.216C695.308 152.561 695.591 152.955 695.773 153.398C695.962 153.834 696.056 154.329 696.056 154.882C696.056 155.462 695.939 155.986 695.705 156.455C695.47 156.923 695.135 157.324 694.699 157.656C694.263 157.988 693.739 158.245 693.127 158.427C692.521 158.603 691.844 158.691 691.095 158.691C690.438 158.691 689.79 158.6 689.152 158.418C688.521 158.235 687.944 157.962 687.424 157.597C686.909 157.233 686.496 156.783 686.183 156.25C685.877 155.709 685.724 155.084 685.724 154.375H687.599C687.599 154.863 687.694 155.283 687.883 155.634C688.071 155.979 688.329 156.266 688.654 156.494C688.986 156.722 689.36 156.891 689.777 157.001C690.2 157.106 690.64 157.158 691.095 157.158C691.753 157.158 692.31 157.067 692.765 156.884C693.221 156.702 693.566 156.442 693.801 156.103C694.041 155.765 694.162 155.364 694.162 154.902ZM704.65 156.054V147.929H706.467V158.496H704.738L704.65 156.054ZM704.992 153.828L705.744 153.808C705.744 154.511 705.669 155.162 705.519 155.761C705.376 156.354 705.142 156.868 704.816 157.304C704.491 157.74 704.064 158.082 703.537 158.33C703.01 158.571 702.368 158.691 701.613 158.691C701.099 158.691 700.627 158.616 700.197 158.466C699.774 158.317 699.409 158.085 699.103 157.773C698.797 157.46 698.56 157.054 698.39 156.552C698.228 156.051 698.146 155.449 698.146 154.746V147.929H699.953V154.765C699.953 155.24 700.005 155.634 700.109 155.947C700.22 156.253 700.366 156.497 700.549 156.679C700.737 156.855 700.946 156.979 701.174 157.05C701.408 157.122 701.649 157.158 701.896 157.158C702.664 157.158 703.273 157.011 703.722 156.718C704.172 156.419 704.494 156.018 704.689 155.517C704.891 155.009 704.992 154.446 704.992 153.828Z" fill="#ADADAD"/>
<g filter="url(#filter2_b_229_155)">
<rect x="469.36" y="122" width="70.4609" height="70.4609" rx="35.2304" fill="url(#paint11_radial_229_155)" fill-opacity="0.8"/>
<rect x="470.36" y="123" width="68.4609" height="68.4609" rx="34.2304" stroke="url(#paint12_radial_229_155)" stroke-width="2"/>
<rect x="470.36" y="123" width="68.4609" height="68.4609" rx="34.2304" stroke="url(#paint13_radial_229_155)" stroke-width="2"/>
<rect x="470.36" y="123" width="68.4609" height="68.4609" rx="34.2304" stroke="url(#paint14_radial_229_155)" stroke-width="2"/>
</g>
<path d="M505.119 156.34V154.04H499.679V150.06H506.159V147.7H497.119V162.32H499.679V156.34H505.119ZM513.701 152.4C513.301 152.3 512.961 152.26 512.621 152.26C511.301 152.26 510.361 152.92 509.941 153.9L509.801 152.46H507.501V162.32H509.941V157.52C509.941 155.6 511.041 154.66 512.801 154.66H513.701V152.4Z" fill="white"/>
<g filter="url(#filter3_b_229_155)">
<rect x="192" width="383" height="86" rx="40" fill="url(#paint15_radial_229_155)"/>
<path d="M239.965 40.4437L238.255 35.3137C238.007 34.5669 237.53 33.9171 236.891 33.4569C236.253 32.9966 235.486 32.7493 234.699 32.75H223.301C222.514 32.7493 221.747 32.9966 221.109 33.4569C220.47 33.9171 219.993 34.5669 219.745 35.3137L218.035 40.4437C217.58 40.6342 217.192 40.9546 216.919 41.3649C216.646 41.7753 216.5 42.2571 216.5 42.75V46.5C216.5 47.4225 217.005 48.22 217.75 48.6537V50.25C217.75 50.5815 217.882 50.8995 218.116 51.1339C218.351 51.3683 218.668 51.5 219 51.5H220.25C220.582 51.5 220.899 51.3683 221.134 51.1339C221.368 50.8995 221.5 50.5815 221.5 50.25V49H236.5V50.25C236.5 50.5815 236.632 50.8995 236.866 51.1339C237.101 51.3683 237.418 51.5 237.75 51.5H239C239.332 51.5 239.649 51.3683 239.884 51.1339C240.118 50.8995 240.25 50.5815 240.25 50.25V48.6537C240.629 48.4363 240.944 48.1227 241.164 47.7446C241.383 47.3664 241.499 46.9372 241.5 46.5V42.75C241.5 41.7112 240.866 40.8225 239.965 40.4437ZM223.301 35.25H234.697C234.96 35.2499 235.216 35.3325 235.429 35.4859C235.642 35.6394 235.801 35.856 235.884 36.105L237.266 40.25H220.734L222.115 36.105C222.286 35.5937 222.764 35.25 223.301 35.25ZM220.875 46.5C220.629 46.4999 220.385 46.4513 220.157 46.357C219.93 46.2626 219.723 46.1244 219.549 45.9502C219.197 45.5983 219 45.1212 219 44.6237C219 44.1263 219.198 43.6493 219.55 43.2977C219.902 42.946 220.379 42.7486 220.876 42.7487C221.374 42.7489 221.851 42.9467 222.202 43.2985C222.554 43.6504 222.751 44.1276 222.751 44.625C222.751 45.1224 222.553 45.5995 222.201 45.9511C221.85 46.3027 221.372 46.5002 220.875 46.5ZM237.125 46.5C236.628 46.4998 236.151 46.3021 235.799 45.9502C235.447 45.5983 235.25 45.1212 235.25 44.6237C235.25 44.1263 235.448 43.6493 235.8 43.2977C236.152 42.946 236.629 42.7486 237.126 42.7487C237.624 42.7489 238.101 42.9467 238.452 43.2985C238.804 43.6504 239.001 44.1276 239.001 44.625C239.001 45.1224 238.803 45.5995 238.451 45.9511C238.1 46.3027 237.622 46.5002 237.125 46.5ZM220.596 30.25C221.03 30.9937 221.827 31.5 222.75 31.5C223.672 31.5 224.47 30.9937 224.904 30.25H233.097C233.53 30.9937 234.327 31.5 235.25 31.5C236.172 31.5 236.97 30.9937 237.404 30.25H235.25V27.75H237.404C236.97 27.0062 236.172 26.5 235.25 26.5C234.327 26.5 233.53 27.0062 233.096 27.75H224.904C224.47 27.0062 223.672 26.5 222.75 26.5C221.827 26.5 221.03 27.0062 220.596 27.75H222.75V30.25H220.596Z" fill="black"/>
<path d="M266.305 48V45.286H258.807V40.824H265.523V38.225H258.807V33.901H266.305V31.187H255.863V48H266.305ZM271.889 48V41.56C271.889 39.72 272.97 38.846 274.304 38.846C275.638 38.846 276.489 39.697 276.489 41.284V48H279.295V41.56C279.295 39.697 280.33 38.823 281.687 38.823C283.021 38.823 283.895 39.674 283.895 41.307V48H286.678V40.571C286.678 37.949 285.16 36.293 282.4 36.293C280.675 36.293 279.341 37.144 278.766 38.455C278.168 37.144 276.972 36.293 275.247 36.293C273.614 36.293 272.464 37.029 271.889 37.972L271.659 36.638H269.083V48H271.889ZM294.515 48.299C297.482 48.299 299.552 46.804 300.035 44.32H297.436C297.114 45.401 296.102 45.999 294.561 45.999C292.698 45.999 291.64 44.987 291.433 42.986L299.989 42.963V42.112C299.989 38.57 297.827 36.293 294.423 36.293C291.088 36.293 288.765 38.754 288.765 42.319C288.765 45.838 291.134 48.299 294.515 48.299ZM294.446 38.593C296.125 38.593 297.206 39.628 297.206 41.192H291.502C291.778 39.49 292.79 38.593 294.446 38.593ZM305.064 48V44.941L306.72 43.216L309.687 48H312.907L308.675 41.146L312.999 36.638H309.48L305.064 41.399V30.888H302.281V48H305.064ZM317.633 48.299C319.404 48.299 320.945 47.494 321.428 46.321L321.635 48H324.096V41.1C324.096 37.949 322.21 36.293 319.151 36.293C316.069 36.293 314.045 37.903 314.045 40.364H316.437C316.437 39.168 317.357 38.478 319.013 38.478C320.439 38.478 321.359 39.099 321.359 40.64V40.893L317.955 41.146C315.264 41.353 313.746 42.664 313.746 44.757C313.746 46.896 315.218 48.299 317.633 48.299ZM318.553 46.183C317.288 46.183 316.598 45.677 316.598 44.642C316.598 43.722 317.265 43.147 319.013 42.986L321.382 42.802V43.4C321.382 45.148 320.278 46.183 318.553 46.183ZM344.269 48H347.535L344.798 44.918C345.649 43.584 346.109 41.905 346.109 39.95H343.372C343.372 41.054 343.211 42.02 342.912 42.825L339.531 39.03C341.624 37.627 342.521 36.293 342.521 34.614C342.521 32.429 340.819 30.911 338.358 30.911C335.874 30.911 334.057 32.521 334.057 34.752C334.057 36.017 334.563 37.052 335.874 38.57C333.298 39.812 331.964 41.491 331.964 43.538C331.964 46.367 334.425 48.299 338.082 48.299C340.106 48.299 341.808 47.747 343.142 46.735L344.269 48ZM336.725 34.729C336.725 33.74 337.346 33.142 338.358 33.142C339.324 33.142 339.922 33.717 339.922 34.706C339.922 35.856 339.347 36.799 338.174 37.489C337.093 36.247 336.725 35.557 336.725 34.729ZM334.931 43.262C334.931 41.951 335.644 40.985 337.231 40.088L341.509 44.895C340.704 45.539 339.669 45.884 338.404 45.884C336.242 45.884 334.931 44.895 334.931 43.262ZM354.017 35.879C354.017 38.455 355.512 40.088 358.364 40.709L361.032 41.307C362.412 41.606 362.987 42.273 362.987 43.4C362.987 44.803 361.745 45.654 359.79 45.654C357.904 45.654 356.754 44.803 356.731 43.377H353.787C353.856 46.39 356.202 48.299 359.79 48.299C363.493 48.299 365.931 46.275 365.931 43.147C365.931 40.64 364.528 39.168 361.653 38.547L359.008 37.972C357.605 37.65 356.961 36.983 356.961 35.787C356.961 34.384 358.134 33.51 359.951 33.51C361.607 33.51 362.642 34.361 362.711 35.81H365.655C365.563 32.774 363.401 30.888 359.997 30.888C356.455 30.888 354.017 32.935 354.017 35.879ZM367.513 42.296C367.513 45.838 370.066 48.276 373.585 48.276C377.104 48.276 379.657 45.838 379.657 42.296C379.657 38.754 377.104 36.316 373.585 36.316C370.066 36.316 367.513 38.754 367.513 42.296ZM370.319 42.296C370.319 40.226 371.653 38.823 373.585 38.823C375.517 38.823 376.851 40.226 376.851 42.296C376.851 44.366 375.517 45.769 373.585 45.769C371.653 45.769 370.319 44.366 370.319 42.296ZM384.688 48V41.882C384.688 40.042 385.746 38.846 387.471 38.846C388.92 38.846 389.863 39.766 389.863 41.675V48H392.669V41.008C392.669 38.064 391.197 36.293 388.345 36.293C386.804 36.293 385.424 36.96 384.711 38.11L384.481 36.638H381.882V48H384.688ZM394.417 44.55C394.417 46.781 396.211 48.299 399.04 48.299C401.846 48.299 403.801 46.873 403.801 44.573C403.801 42.825 402.835 41.951 400.926 41.514L398.879 41.031C397.913 40.801 397.407 40.387 397.407 39.743C397.407 38.892 398.051 38.386 399.155 38.386C400.236 38.386 400.88 39.007 400.903 39.973H403.571C403.548 37.765 401.823 36.293 399.27 36.293C396.648 36.293 394.762 37.627 394.762 39.858C394.762 41.675 395.751 42.641 397.798 43.101L399.845 43.584C400.857 43.814 401.156 44.228 401.156 44.803C401.156 45.631 400.443 46.16 399.132 46.16C397.844 46.16 397.108 45.539 397.085 44.55H394.417ZM414 48L415.357 44.113H421.636L422.993 48H426.098L420.026 31.187H417.013L410.941 48H414ZM418.14 36.201C418.301 35.741 418.439 35.235 418.508 34.913C418.554 35.258 418.715 35.764 418.853 36.201L420.785 41.629H416.231L418.14 36.201ZM435.07 36.638V42.595C435.07 44.757 434.219 45.792 432.448 45.792C430.884 45.792 430.033 44.918 430.033 42.756V36.638H427.227V43.745C427.227 46.528 428.768 48.299 431.39 48.299C432.908 48.299 434.38 47.563 435.07 46.482L435.277 48H437.876V36.638H435.07ZM444.638 48V38.984H446.846V36.638H444.638V33.096H441.832V36.638H439.647V38.984H441.832V48H444.638ZM447.811 42.296C447.811 45.838 450.364 48.276 453.883 48.276C457.402 48.276 459.955 45.838 459.955 42.296C459.955 38.754 457.402 36.316 453.883 36.316C450.364 36.316 447.811 38.754 447.811 42.296ZM450.617 42.296C450.617 40.226 451.951 38.823 453.883 38.823C455.815 38.823 457.149 40.226 457.149 42.296C457.149 44.366 455.815 45.769 453.883 45.769C451.951 45.769 450.617 44.366 450.617 42.296ZM464.985 48V41.56C464.985 39.72 466.066 38.846 467.4 38.846C468.734 38.846 469.585 39.697 469.585 41.284V48H472.391V41.56C472.391 39.697 473.426 38.823 474.783 38.823C476.117 38.823 476.991 39.674 476.991 41.307V48H479.774V40.571C479.774 37.949 478.256 36.293 475.496 36.293C473.771 36.293 472.437 37.144 471.862 38.455C471.264 37.144 470.068 36.293 468.343 36.293C466.71 36.293 465.56 37.029 464.985 37.972L464.755 36.638H462.179V48H464.985ZM481.862 42.296C481.862 45.838 484.415 48.276 487.934 48.276C491.453 48.276 494.006 45.838 494.006 42.296C494.006 38.754 491.453 36.316 487.934 36.316C484.415 36.316 481.862 38.754 481.862 42.296ZM484.668 42.296C484.668 40.226 486.002 38.823 487.934 38.823C489.866 38.823 491.2 40.226 491.2 42.296C491.2 44.366 489.866 45.769 487.934 45.769C486.002 45.769 484.668 44.366 484.668 42.296ZM498.829 48L499.013 46.229C499.68 47.54 501.129 48.299 502.831 48.299C506.097 48.299 508.236 45.884 508.236 42.388C508.236 38.8 506.258 36.27 503.015 36.27C501.29 36.27 499.772 37.029 499.036 38.294V30.888H496.23V48H498.829ZM499.059 42.273C499.059 40.226 500.324 38.8 502.256 38.8C504.234 38.8 505.407 40.249 505.407 42.273C505.407 44.297 504.234 45.723 502.256 45.723C500.324 45.723 499.059 44.32 499.059 42.273ZM511.873 34.361C512.793 34.361 513.552 33.602 513.552 32.659C513.552 31.716 512.793 30.98 511.873 30.98C510.907 30.98 510.148 31.716 510.148 32.659C510.148 33.602 510.907 34.361 511.873 34.361ZM510.47 48H513.276V36.638H510.47V48ZM519.005 48V30.888H516.222V48H519.005ZM527.031 48.299C529.998 48.299 532.068 46.804 532.551 44.32H529.952C529.63 45.401 528.618 45.999 527.077 45.999C525.214 45.999 524.156 44.987 523.949 42.986L532.505 42.963V42.112C532.505 38.57 530.343 36.293 526.939 36.293C523.604 36.293 521.281 38.754 521.281 42.319C521.281 45.838 523.65 48.299 527.031 48.299ZM526.962 38.593C528.641 38.593 529.722 39.628 529.722 41.192H524.018C524.294 39.49 525.306 38.593 526.962 38.593Z" fill="black"/>
<rect x="193" y="1" width="381" height="84" rx="39" stroke="url(#paint16_radial_229_155)" stroke-width="2"/>
<rect x="193" y="1" width="381" height="84" rx="39" stroke="url(#paint17_radial_229_155)" stroke-width="2"/>
<rect x="193" y="1" width="381" height="84" rx="39" stroke="url(#paint18_radial_229_155)" stroke-width="2"/>
</g>
<defs>
<filter id="filter0_b_229_155" x="-42" y="-5" width="877" height="515" filterUnits="userSpaceOnUse" color-interpolation-filters="sRGB">
<feFlood flood-opacity="0" result="BackgroundImageFix"/>
<feGaussianBlur in="BackgroundImageFix" stdDeviation="21"/>
<feComposite in2="SourceAlpha" operator="in" result="effect1_backgroundBlur_229_155"/>
<feBlend mode="normal" in="SourceGraphic" in2="effect1_backgroundBlur_229_155" result="shape"/>
</filter>
<filter id="filter1_b_229_155" x="17.0963" y="155" width="284.018" height="138.55" filterUnits="userSpaceOnUse" color-interpolation-filters="sRGB">
<feFlood flood-opacity="0" result="BackgroundImageFix"/>
<feGaussianBlur in="BackgroundImageFix" stdDeviation="21"/>
<feComposite in2="SourceAlpha" operator="in" result="effect1_backgroundBlur_229_155"/>
<feBlend mode="normal" in="SourceGraphic" in2="effect1_backgroundBlur_229_155" result="shape"/>
</filter>
<filter id="filter2_b_229_155" x="427.36" y="80" width="154.461" height="154.461" filterUnits="userSpaceOnUse" color-interpolation-filters="sRGB">
<feFlood flood-opacity="0" result="BackgroundImageFix"/>
<feGaussianBlur in="BackgroundImageFix" stdDeviation="21"/>
<feComposite in2="SourceAlpha" operator="in" result="effect1_backgroundBlur_229_155"/>
<feBlend mode="normal" in="SourceGraphic" in2="effect1_backgroundBlur_229_155" result="shape"/>
</filter>
<filter id="filter3_b_229_155" x="150" y="-42" width="467" height="170" filterUnits="userSpaceOnUse" color-interpolation-filters="sRGB">
<feFlood flood-opacity="0" result="BackgroundImageFix"/>
<feGaussianBlur in="BackgroundImageFix" stdDeviation="21"/>
<feComposite in2="SourceAlpha" operator="in" result="effect1_backgroundBlur_229_155"/>
<feBlend mode="normal" in="SourceGraphic" in2="effect1_backgroundBlur_229_155" result="shape"/>
</filter>
<linearGradient id="paint0_linear_229_155" x1="301.59" y1="526.555" x2="363.122" y2="435.438" gradientUnits="userSpaceOnUse">
<stop stop-color="#FEC34A"/>
<stop offset="1" stop-color="#FFE067"/>
</linearGradient>
<linearGradient id="paint1_linear_229_155" x1="361.635" y1="429.288" x2="339.368" y2="455.968" gradientUnits="userSpaceOnUse">
<stop stop-color="#FE893E"/>
<stop offset="1" stop-color="#FFAD44"/>
</linearGradient>
<linearGradient id="paint2_linear_229_155" x1="311.82" y1="471.404" x2="365.216" y2="536.111" gradientUnits="userSpaceOnUse">
<stop stop-color="#FE893E"/>
<stop offset="1" stop-color="#FFAD44"/>
</linearGradient>
<radialGradient id="paint3_radial_229_155" cx="0" cy="0" r="1" gradientUnits="userSpaceOnUse" gradientTransform="translate(0 37) rotate(30.2192) scale(917.712 658.237)">
<stop stop-color="white" stop-opacity="0.4"/>
<stop offset="1" stop-color="white" stop-opacity="0"/>
</radialGradient>
<radialGradient id="paint4_radial_229_155" cx="0" cy="0" r="1" gradientUnits="userSpaceOnUse" gradientTransform="translate(611.491 168.108) rotate(-167.234) scale(664.935 272.49)">
<stop offset="0.00697081" stop-color="#A8A8A8"/>
<stop offset="1" stop-color="#BBA18F"/>
</radialGradient>
<radialGradient id="paint5_radial_229_155" cx="0" cy="0" r="1" gradientUnits="userSpaceOnUse" gradientTransform="translate(666.12 87.4842) rotate(152.398) scale(821.268 541.338)">
<stop stop-color="#F68537"/>
<stop offset="1" stop-color="#FFDEC7"/>
</radialGradient>
<radialGradient id="paint6_radial_229_155" cx="0" cy="0" r="1" gradientUnits="userSpaceOnUse" gradientTransform="translate(657.175 453.059) rotate(-142.522) scale(612.008 541.306)">
<stop offset="0.0038041" stop-color="white" stop-opacity="0.22"/>
<stop offset="0.0670888" stop-color="white" stop-opacity="0"/>
<stop offset="1" stop-color="white" stop-opacity="0.31"/>
</radialGradient>
<radialGradient id="paint7_radial_229_155" cx="0" cy="0" r="1" gradientUnits="userSpaceOnUse" gradientTransform="translate(59.0963 197) rotate(16.2924) scale(208.386 92.5413)">
<stop stop-color="white" stop-opacity="0.4"/>
<stop offset="1" stop-color="white" stop-opacity="0"/>
</radialGradient>
<radialGradient id="paint8_radial_229_155" cx="0" cy="0" r="1" gradientUnits="userSpaceOnUse" gradientTransform="translate(213.332 213.594) rotate(-173.514) scale(164.624 35.1361)">
<stop offset="0.00697081" stop-color="#A8A8A8"/>
<stop offset="1" stop-color="#BBA18F"/>
</radialGradient>
<radialGradient id="paint9_radial_229_155" cx="0" cy="0" r="1" gradientUnits="userSpaceOnUse" gradientTransform="translate(227.111 203.39) rotate(165.3) scale(189.785 74.7841)">
<stop stop-color="#F68537"/>
<stop offset="1" stop-color="#FFDEC7"/>
</radialGradient>
<radialGradient id="paint10_radial_229_155" cx="0" cy="0" r="1" gradientUnits="userSpaceOnUse" gradientTransform="translate(224.855 249.659) rotate(-158.956) scale(131.256 80.5742)">
<stop offset="0.0038041" stop-color="white" stop-opacity="0.22"/>
<stop offset="0.0670888" stop-color="white" stop-opacity="0"/>
<stop offset="1" stop-color="white" stop-opacity="0.31"/>
</radialGradient>
<radialGradient id="paint11_radial_229_155" cx="0" cy="0" r="1" gradientUnits="userSpaceOnUse" gradientTransform="translate(469.36 122) rotate(46.9816) scale(103.28 84.9609)">
<stop stop-color="white" stop-opacity="0.4"/>
<stop offset="1" stop-color="white" stop-opacity="0"/>
</radialGradient>
<radialGradient id="paint12_radial_229_155" cx="0" cy="0" r="1" gradientUnits="userSpaceOnUse" gradientTransform="translate(523.694 143.434) rotate(-157.37) scale(62.4277 42.1598)">
<stop offset="0.00697081" stop-color="#A8A8A8"/>
<stop offset="1" stop-color="#BBA18F"/>
</radialGradient>
<radialGradient id="paint13_radial_229_155" cx="0" cy="0" r="1" gradientUnits="userSpaceOnUse" gradientTransform="translate(528.548 130.253) rotate(136.111) scale(89.7311 71.9709)">
<stop stop-color="#F68537"/>
<stop offset="1" stop-color="#FFDEC7"/>
</radialGradient>
<radialGradient id="paint14_radial_229_155" cx="0" cy="0" r="1" gradientUnits="userSpaceOnUse" gradientTransform="translate(527.753 190.018) rotate(-125.331) scale(74.622 64.4879)">
<stop offset="0.0038041" stop-color="white" stop-opacity="0.22"/>
<stop offset="0.0670888" stop-color="white" stop-opacity="0"/>
<stop offset="1" stop-color="white" stop-opacity="0.31"/>
</radialGradient>
<radialGradient id="paint15_radial_229_155" cx="0" cy="0" r="1" gradientUnits="userSpaceOnUse" gradientTransform="translate(192) rotate(13.5303) scale(393.933 147.779)">
<stop stop-color="#FFD282"/>
<stop offset="1" stop-color="#FFD282"/>
</radialGradient>
<radialGradient id="paint16_radial_229_155" cx="0" cy="0" r="1" gradientUnits="userSpaceOnUse" gradientTransform="translate(487.336 26.1608) rotate(-174.652) scale(314.578 55.5071)">
<stop offset="0.00697081" stop-color="#A8A8A8"/>
<stop offset="1" stop-color="#BBA18F"/>
</radialGradient>
<radialGradient id="paint17_radial_229_155" cx="0" cy="0" r="1" gradientUnits="userSpaceOnUse" gradientTransform="translate(513.72 10.0734) rotate(167.811) scale(359.616 119.141)">
<stop stop-color="#F68537"/>
<stop offset="1" stop-color="#FFDEC7"/>
</radialGradient>
<radialGradient id="paint18_radial_229_155" cx="0" cy="0" r="1" gradientUnits="userSpaceOnUse" gradientTransform="translate(509.4 83.0187) rotate(-162.424) scale(246.058 129.75)">
<stop offset="0.0038041" stop-color="white" stop-opacity="0.22"/>
<stop offset="0.0670888" stop-color="white" stop-opacity="0"/>
<stop offset="1" stop-color="white" stop-opacity="0.31"/>
</radialGradient>
</defs>
</svg>
