<svg width="837" height="708" viewBox="0 0 837 708" fill="none" xmlns="http://www.w3.org/2000/svg">
<g filter="url(#filter0_b_229_74)">
<rect x="143" width="694" height="658" rx="40" fill="url(#paint0_radial_229_74)"/>
<g filter="url(#filter1_b_229_74)">
<rect x="200" y="521" width="326" height="74" rx="37" fill="url(#paint1_radial_229_74)" fill-opacity="0.8"/>
<path d="M244.503 559.251L243.021 554.805C242.806 554.158 242.392 553.595 241.839 553.196C241.286 552.797 240.621 552.583 239.939 552.583H230.061C229.379 552.583 228.714 552.797 228.161 553.196C227.607 553.595 227.194 554.158 226.979 554.805L225.497 559.251C225.103 559.416 224.766 559.694 224.53 560.05C224.293 560.405 224.167 560.823 224.167 561.25V564.5C224.167 565.3 224.604 565.991 225.25 566.367V567.75C225.25 568.037 225.364 568.313 225.567 568.516C225.77 568.719 226.046 568.833 226.333 568.833H227.417C227.704 568.833 227.979 568.719 228.183 568.516C228.386 568.313 228.5 568.037 228.5 567.75V566.667H241.5V567.75C241.5 568.037 241.614 568.313 241.817 568.516C242.02 568.719 242.296 568.833 242.583 568.833H243.667C243.954 568.833 244.229 568.719 244.433 568.516C244.636 568.313 244.75 568.037 244.75 567.75V566.367C245.079 566.178 245.352 565.906 245.542 565.579C245.732 565.251 245.833 564.879 245.833 564.5V561.25C245.833 560.35 245.284 559.58 244.503 559.251ZM230.061 554.75H239.938C240.165 554.75 240.387 554.822 240.571 554.955C240.756 555.088 240.894 555.275 240.966 555.491L242.164 559.083H227.836L229.033 555.491C229.181 555.048 229.595 554.75 230.061 554.75ZM227.958 564.5C227.745 564.5 227.533 564.458 227.336 564.376C227.139 564.294 226.96 564.175 226.809 564.024C226.504 563.719 226.333 563.305 226.333 562.874C226.333 562.443 226.505 562.029 226.81 561.725C227.115 561.42 227.528 561.249 227.959 561.249C228.39 561.249 228.804 561.42 229.109 561.725C229.413 562.03 229.585 562.444 229.584 562.875C229.584 563.306 229.413 563.72 229.108 564.024C228.803 564.329 228.389 564.5 227.958 564.5ZM242.042 564.5C241.611 564.5 241.197 564.328 240.892 564.024C240.588 563.719 240.416 563.305 240.417 562.874C240.417 562.443 240.588 562.029 240.893 561.725C241.198 561.42 241.612 561.249 242.043 561.249C242.474 561.249 242.887 561.42 243.192 561.725C243.497 562.03 243.668 562.444 243.668 562.875C243.668 563.306 243.496 563.72 243.191 564.024C242.886 564.329 242.473 564.5 242.042 564.5ZM227.717 550.417C228.093 551.061 228.784 551.5 229.583 551.5C230.383 551.5 231.074 551.061 231.45 550.417H238.551C238.926 551.061 239.617 551.5 240.417 551.5C241.216 551.5 241.907 551.061 242.283 550.417H240.417V548.25H242.283C241.907 547.605 241.216 547.167 240.417 547.167C239.617 547.167 238.926 547.605 238.55 548.25H231.45C231.074 547.605 230.383 547.167 229.583 547.167C228.784 547.167 228.093 547.605 227.717 548.25H229.583V550.417H227.717Z" fill="white"/>
<path d="M268.7 566V563.64H262.18V559.76H268.02V557.5H262.18V553.74H268.7V551.38H259.62V566H268.7ZM273.555 566V560.4C273.555 558.8 274.495 558.04 275.655 558.04C276.815 558.04 277.555 558.78 277.555 560.16V566H279.995V560.4C279.995 558.78 280.895 558.02 282.075 558.02C283.235 558.02 283.995 558.76 283.995 560.18V566H286.415V559.54C286.415 557.26 285.095 555.82 282.695 555.82C281.195 555.82 280.035 556.56 279.535 557.7C279.015 556.56 277.975 555.82 276.475 555.82C275.055 555.82 274.055 556.46 273.555 557.28L273.355 556.12H271.115V566H273.555ZM293.231 566.26C295.811 566.26 297.611 564.96 298.031 562.8H295.771C295.491 563.74 294.611 564.26 293.271 564.26C291.651 564.26 290.731 563.38 290.551 561.64L297.991 561.62V560.88C297.991 557.8 296.111 555.82 293.151 555.82C290.251 555.82 288.231 557.96 288.231 561.06C288.231 564.12 290.291 566.26 293.231 566.26ZM293.171 557.82C294.631 557.82 295.571 558.72 295.571 560.08H290.611C290.851 558.6 291.731 557.82 293.171 557.82ZM302.404 566V563.34L303.844 561.84L306.424 566H309.224L305.544 560.04L309.304 556.12H306.244L302.404 560.26V551.12H299.984V566H302.404ZM313.333 566.26C314.873 566.26 316.213 565.56 316.633 564.54L316.813 566H318.953V560C318.953 557.26 317.313 555.82 314.653 555.82C311.973 555.82 310.213 557.22 310.213 559.36H312.293C312.293 558.32 313.093 557.72 314.533 557.72C315.773 557.72 316.573 558.26 316.573 559.6V559.82L313.613 560.04C311.273 560.22 309.953 561.36 309.953 563.18C309.953 565.04 311.233 566.26 313.333 566.26ZM314.133 564.42C313.033 564.42 312.433 563.98 312.433 563.08C312.433 562.28 313.013 561.78 314.533 561.64L316.593 561.48V562C316.593 563.52 315.633 564.42 314.133 564.42ZM336.495 566H339.335L336.955 563.32C337.695 562.16 338.095 560.7 338.095 559H335.715C335.715 559.96 335.575 560.8 335.315 561.5L332.375 558.2C334.195 556.98 334.975 555.82 334.975 554.36C334.975 552.46 333.495 551.14 331.355 551.14C329.195 551.14 327.615 552.54 327.615 554.48C327.615 555.58 328.055 556.48 329.195 557.8C326.955 558.88 325.795 560.34 325.795 562.12C325.795 564.58 327.935 566.26 331.115 566.26C332.875 566.26 334.355 565.78 335.515 564.9L336.495 566ZM329.935 554.46C329.935 553.6 330.475 553.08 331.355 553.08C332.195 553.08 332.715 553.58 332.715 554.44C332.715 555.44 332.215 556.26 331.195 556.86C330.255 555.78 329.935 555.18 329.935 554.46ZM328.375 561.88C328.375 560.74 328.995 559.9 330.375 559.12L334.095 563.3C333.395 563.86 332.495 564.16 331.395 564.16C329.515 564.16 328.375 563.3 328.375 561.88ZM344.971 555.46C344.971 557.7 346.271 559.12 348.751 559.66L351.071 560.18C352.271 560.44 352.771 561.02 352.771 562C352.771 563.22 351.691 563.96 349.991 563.96C348.351 563.96 347.351 563.22 347.331 561.98H344.771C344.831 564.6 346.871 566.26 349.991 566.26C353.211 566.26 355.331 564.5 355.331 561.78C355.331 559.6 354.111 558.32 351.611 557.78L349.311 557.28C348.091 557 347.531 556.42 347.531 555.38C347.531 554.16 348.551 553.4 350.131 553.4C351.571 553.4 352.471 554.14 352.531 555.4H355.091C355.011 552.76 353.131 551.12 350.171 551.12C347.091 551.12 344.971 552.9 344.971 555.46ZM356.707 561.04C356.707 564.12 358.927 566.24 361.987 566.24C365.047 566.24 367.267 564.12 367.267 561.04C367.267 557.96 365.047 555.84 361.987 555.84C358.927 555.84 356.707 557.96 356.707 561.04ZM359.147 561.04C359.147 559.24 360.307 558.02 361.987 558.02C363.667 558.02 364.827 559.24 364.827 561.04C364.827 562.84 363.667 564.06 361.987 564.06C360.307 564.06 359.147 562.84 359.147 561.04ZM371.641 566V560.68C371.641 559.08 372.561 558.04 374.061 558.04C375.321 558.04 376.141 558.84 376.141 560.5V566H378.581V559.92C378.581 557.36 377.301 555.82 374.821 555.82C373.481 555.82 372.281 556.4 371.661 557.4L371.461 556.12H369.201V566H371.641ZM380.102 563C380.102 564.94 381.662 566.26 384.122 566.26C386.562 566.26 388.262 565.02 388.262 563.02C388.262 561.5 387.422 560.74 385.762 560.36L383.982 559.94C383.142 559.74 382.702 559.38 382.702 558.82C382.702 558.08 383.262 557.64 384.222 557.64C385.162 557.64 385.722 558.18 385.742 559.02H388.062C388.042 557.1 386.542 555.82 384.322 555.82C382.042 555.82 380.402 556.98 380.402 558.92C380.402 560.5 381.262 561.34 383.042 561.74L384.822 562.16C385.702 562.36 385.962 562.72 385.962 563.22C385.962 563.94 385.342 564.4 384.202 564.4C383.082 564.4 382.442 563.86 382.422 563H380.102ZM397.13 566L398.31 562.62H403.77L404.95 566H407.65L402.37 551.38H399.75L394.47 566H397.13ZM400.73 555.74C400.87 555.34 400.99 554.9 401.05 554.62C401.09 554.92 401.23 555.36 401.35 555.74L403.03 560.46H399.07L400.73 555.74ZM415.452 556.12V561.3C415.452 563.18 414.712 564.08 413.172 564.08C411.812 564.08 411.072 563.32 411.072 561.44V556.12H408.632V562.3C408.632 564.72 409.972 566.26 412.252 566.26C413.572 566.26 414.852 565.62 415.452 564.68L415.632 566H417.892V556.12H415.452ZM423.772 566V558.16H425.692V556.12H423.772V553.04H421.332V556.12H419.432V558.16H421.332V566H423.772ZM426.532 561.04C426.532 564.12 428.752 566.24 431.812 566.24C434.872 566.24 437.092 564.12 437.092 561.04C437.092 557.96 434.872 555.84 431.812 555.84C428.752 555.84 426.532 557.96 426.532 561.04ZM428.972 561.04C428.972 559.24 430.132 558.02 431.812 558.02C433.492 558.02 434.652 559.24 434.652 561.04C434.652 562.84 433.492 564.06 431.812 564.06C430.132 564.06 428.972 562.84 428.972 561.04ZM441.466 566V560.4C441.466 558.8 442.406 558.04 443.566 558.04C444.726 558.04 445.466 558.78 445.466 560.16V566H447.906V560.4C447.906 558.78 448.806 558.02 449.986 558.02C451.146 558.02 451.906 558.76 451.906 560.18V566H454.326V559.54C454.326 557.26 453.006 555.82 450.606 555.82C449.106 555.82 447.946 556.56 447.446 557.7C446.926 556.56 445.886 555.82 444.386 555.82C442.966 555.82 441.966 556.46 441.466 557.28L441.266 556.12H439.026V566H441.466ZM456.141 561.04C456.141 564.12 458.361 566.24 461.421 566.24C464.481 566.24 466.701 564.12 466.701 561.04C466.701 557.96 464.481 555.84 461.421 555.84C458.361 555.84 456.141 557.96 456.141 561.04ZM458.581 561.04C458.581 559.24 459.741 558.02 461.421 558.02C463.101 558.02 464.261 559.24 464.261 561.04C464.261 562.84 463.101 564.06 461.421 564.06C459.741 564.06 458.581 562.84 458.581 561.04ZM470.895 566L471.055 564.46C471.635 565.6 472.895 566.26 474.375 566.26C477.215 566.26 479.075 564.16 479.075 561.12C479.075 558 477.355 555.8 474.535 555.8C473.035 555.8 471.715 556.46 471.075 557.56V551.12H468.635V566H470.895ZM471.095 561.02C471.095 559.24 472.195 558 473.875 558C475.595 558 476.615 559.26 476.615 561.02C476.615 562.78 475.595 564.02 473.875 564.02C472.195 564.02 471.095 562.8 471.095 561.02ZM482.238 554.14C483.038 554.14 483.698 553.48 483.698 552.66C483.698 551.84 483.038 551.2 482.238 551.2C481.398 551.2 480.738 551.84 480.738 552.66C480.738 553.48 481.398 554.14 482.238 554.14ZM481.018 566H483.458V556.12H481.018V566ZM488.439 566V551.12H486.019V566H488.439ZM495.418 566.26C497.998 566.26 499.798 564.96 500.218 562.8H497.958C497.678 563.74 496.798 564.26 495.458 564.26C493.838 564.26 492.918 563.38 492.738 561.64L500.178 561.62V560.88C500.178 557.8 498.298 555.82 495.338 555.82C492.438 555.82 490.418 557.96 490.418 561.06C490.418 564.12 492.478 566.26 495.418 566.26ZM495.358 557.82C496.818 557.82 497.758 558.72 497.758 560.08H492.798C493.038 558.6 493.918 557.82 495.358 557.82Z" fill="white"/>
<rect x="201" y="522" width="324" height="72" rx="36" stroke="url(#paint2_radial_229_74)" stroke-width="2"/>
<rect x="201" y="522" width="324" height="72" rx="36" stroke="url(#paint3_radial_229_74)" stroke-width="2"/>
<rect x="201" y="522" width="324" height="72" rx="36" stroke="url(#paint4_radial_229_74)" stroke-width="2"/>
</g>
<rect x="144.5" y="1.5" width="691" height="655" rx="38.5" stroke="url(#paint5_radial_229_74)" stroke-width="3"/>
<rect x="144.5" y="1.5" width="691" height="655" rx="38.5" stroke="url(#paint6_radial_229_74)" stroke-width="3"/>
<rect x="144.5" y="1.5" width="691" height="655" rx="38.5" stroke="url(#paint7_radial_229_74)" stroke-width="3"/>
</g>
<path d="M226.6 177V170.82C226.6 168.8 226.56 167.32 226.46 166.62L230.66 177H232.5L236.72 166.58C236.62 167.6 236.6 168.58 236.6 171.28V177H238.52V162.54H236.56L231.58 174.7L226.6 162.54H224.68V177H226.6ZM240.927 172.1C240.927 175.12 243.087 177.24 246.027 177.24C248.947 177.24 251.107 175.12 251.107 172.1C251.107 169.08 248.947 166.96 246.027 166.96C243.087 166.96 240.927 169.08 240.927 172.1ZM242.827 172.1C242.827 170.06 244.127 168.64 246.027 168.64C247.907 168.64 249.227 170.06 249.227 172.1C249.227 174.14 247.907 175.56 246.027 175.56C244.127 175.56 242.827 174.14 242.827 172.1Z" fill="#ADADAD"/>
<path d="M639.188 166.44C639.188 168.52 640.408 169.88 642.768 170.42L645.148 170.96C646.528 171.28 647.148 172 647.148 173.14C647.148 174.58 645.928 175.48 644.008 175.48C642.188 175.48 641.028 174.6 640.988 173.22H638.988C639.108 175.7 641.068 177.24 644.008 177.24C647.088 177.24 649.108 175.58 649.108 172.98C649.108 170.94 647.908 169.66 645.548 169.12L643.168 168.56C641.808 168.24 641.148 167.54 641.148 166.38C641.148 164.96 642.328 164.04 644.148 164.04C645.768 164.04 646.788 164.88 646.888 166.32H648.868C648.708 163.82 646.928 162.28 644.168 162.28C641.188 162.28 639.188 163.96 639.188 166.44ZM654.111 177.24C655.691 177.24 657.031 176.54 657.531 175.42L657.731 177H659.331V170.86C659.331 168.22 657.691 166.94 655.271 166.94C652.751 166.94 651.071 168.28 651.071 170.32H652.711C652.711 169.14 653.611 168.44 655.191 168.44C656.511 168.44 657.491 169.02 657.491 170.66V170.94L654.411 171.18C652.111 171.36 650.771 172.48 650.771 174.28C650.771 176.06 652.011 177.24 654.111 177.24ZM654.651 175.78C653.431 175.78 652.671 175.26 652.671 174.22C652.671 173.26 653.351 172.62 655.011 172.46L657.511 172.26V172.78C657.511 174.62 656.431 175.78 654.651 175.78Z" fill="#ADADAD"/>
<path d="M574.567 170.86V169.08H568.887V164.34H575.647V162.54H566.927V177H568.887V170.86H574.567ZM582.695 167.14C582.315 167.06 582.035 167.02 581.695 167.02C580.355 167.02 579.375 167.7 578.975 168.72L578.855 167.24H577.095V177H578.975V171.82C578.975 169.94 580.075 168.86 581.855 168.86H582.695V167.14Z" fill="#ADADAD"/>
<path d="M475.812 164.34H480.172V177H482.132V164.34H486.472V162.54H475.812V164.34ZM490.002 176.98V171.66C490.002 169.98 490.982 168.66 492.802 168.66C494.202 168.66 495.142 169.46 495.142 171.44V177H497.022V171.02C497.022 168.52 495.822 166.94 493.322 166.94C491.802 166.94 490.622 167.66 490.002 168.72V162.28H488.122V176.98H490.002Z" fill="#ADADAD"/>
<path d="M387.094 177H389.014L392.554 165.56L396.054 177H397.934L402.294 162.54H400.294L397.634 171.4C397.434 172.04 397.234 172.78 396.994 174C396.774 172.92 396.574 172.16 396.334 171.38L393.614 162.54H391.494L388.754 171.38C388.534 172.14 388.314 172.84 388.074 174C387.874 172.9 387.674 172.14 387.474 171.38L384.834 162.54H382.794L387.094 177ZM406.902 177.24C409.322 177.24 410.962 176.06 411.442 173.96H409.682C409.362 175.08 408.402 175.68 406.942 175.68C405.082 175.68 404.002 174.54 403.862 172.48L411.422 172.46V171.76C411.422 168.86 409.602 166.94 406.822 166.94C403.982 166.94 402.042 169.06 402.042 172.12C402.042 175.16 404.022 177.24 406.902 177.24ZM406.822 168.52C408.482 168.52 409.542 169.6 409.542 171.22H403.902C404.142 169.5 405.182 168.52 406.822 168.52Z" fill="#ADADAD"/>
<path d="M303.027 164.34H307.387V177H309.347V164.34H313.687V162.54H303.027V164.34ZM320.906 167.22V172.38C320.906 174.48 319.966 175.58 318.246 175.58C316.806 175.58 315.906 174.78 315.906 172.68V167.22H314.026V173.3C314.026 175.7 315.306 177.24 317.586 177.24C319.026 177.24 320.326 176.54 320.886 175.52L321.086 177H322.766V167.22H320.906Z" fill="#ADADAD"/>
<path d="M240.326 233.102V231.282H233.646L236.646 228.682C239.206 226.462 240.226 225.002 240.226 222.942C240.226 220.162 238.366 218.402 235.466 218.402C232.526 218.402 230.566 220.422 230.506 223.522H232.466C232.506 221.462 233.666 220.162 235.446 220.162C237.186 220.162 238.226 221.242 238.226 223.062C238.226 224.602 237.566 225.582 235.226 227.602L230.566 231.622V233.122L240.326 233.102ZM250.549 228.542C252.029 226.522 252.549 225.302 252.549 223.602C252.549 220.662 250.229 218.402 247.229 218.402C244.249 218.402 241.969 220.582 241.969 223.582C241.969 226.462 243.989 228.622 246.989 228.622C247.489 228.622 248.009 228.522 248.509 228.322L244.889 233.122H247.169L250.549 228.542ZM250.549 223.582C250.549 225.562 249.189 226.962 247.229 226.962C245.309 226.962 243.949 225.562 243.949 223.582C243.949 221.602 245.309 220.162 247.229 220.162C249.189 220.162 250.549 221.602 250.549 223.582Z" fill="#A0A0A0"/>
<path d="M715.189 362.599V375.299H717.069V360.839H712.149V362.599H715.189ZM728.135 370.719C729.615 368.699 730.135 367.479 730.135 365.779C730.135 362.839 727.815 360.579 724.815 360.579C721.835 360.579 719.555 362.759 719.555 365.759C719.555 368.639 721.575 370.799 724.575 370.799C725.075 370.799 725.595 370.699 726.095 370.499L722.475 375.299H724.755L728.135 370.719ZM728.135 365.759C728.135 367.739 726.775 369.139 724.815 369.139C722.895 369.139 721.535 367.739 721.535 365.759C721.535 363.779 722.895 362.339 724.815 362.339C726.775 362.339 728.135 363.779 728.135 365.759Z" fill="#F5F5F5"/>
<path d="M648.734 362.599V375.299H650.614V360.839H645.694V362.599H648.734ZM653.141 371.279C653.141 373.839 655.241 375.539 658.461 375.539C661.661 375.539 663.781 373.839 663.781 371.299C663.781 369.519 662.741 368.079 661.121 367.559C662.481 367.019 663.241 365.879 663.241 364.399C663.241 362.119 661.321 360.579 658.481 360.579C655.601 360.579 653.661 362.119 653.661 364.379C653.661 365.839 654.401 366.979 655.761 367.559C654.161 368.139 653.141 369.539 653.141 371.279ZM655.461 364.499C655.461 363.159 656.641 362.279 658.441 362.279C660.261 362.279 661.401 363.159 661.401 364.539C661.401 365.939 660.261 366.839 658.441 366.839C656.641 366.839 655.461 365.919 655.461 364.499ZM655.061 371.139C655.061 369.539 656.381 368.519 658.441 368.519C660.521 368.519 661.841 369.539 661.841 371.139C661.841 372.759 660.501 373.799 658.461 373.799C656.401 373.799 655.061 372.759 655.061 371.139Z" fill="#F5F5F5"/>
<path d="M572.31 362.599V375.299H574.19V360.839H569.27V362.599H572.31ZM576.347 360.839V362.639H584.467L578.927 375.299H580.967L586.447 362.639V360.839H576.347Z" fill="#F5F5F5"/>
<path d="M489.24 362.599V375.299H491.12V360.839H486.2V362.599H489.24ZM495.605 365.419C494.125 367.439 493.605 368.639 493.605 370.359C493.605 373.279 495.925 375.539 498.925 375.539C501.905 375.539 504.185 373.379 504.185 370.359C504.185 367.499 502.165 365.339 499.165 365.339C498.665 365.339 498.145 365.439 497.645 365.639L501.265 360.839H498.985L495.605 365.419ZM495.605 370.379C495.605 368.399 496.965 366.999 498.925 366.999C500.845 366.999 502.205 368.399 502.205 370.379C502.205 372.359 500.845 373.779 498.925 373.779C496.965 373.779 495.605 372.359 495.605 370.379Z" fill="#F5F5F5"/>
<path d="M399.525 362.599V375.299H401.405V360.839H396.485V362.599H399.525ZM408.832 375.539C411.952 375.539 414.092 373.439 414.092 370.439C414.092 367.659 412.192 365.599 409.252 365.599C408.172 365.599 407.212 365.899 406.452 366.479L407.412 362.639H413.232V360.839H405.992L404.232 368.259L405.892 368.679C406.552 367.859 407.672 367.279 408.892 367.279C410.912 367.279 412.092 368.659 412.092 370.519C412.092 372.479 410.832 373.779 408.872 373.779C407.032 373.779 405.892 372.639 405.892 370.779H403.952C403.952 373.659 405.872 375.539 408.832 375.539Z" fill="#F5F5F5"/>
<path d="M715.189 291.511V304.211H717.069V289.751H712.149V291.511H715.189ZM729.415 304.191V302.371H722.735L725.735 299.771C728.295 297.551 729.315 296.091 729.315 294.031C729.315 291.251 727.455 289.491 724.555 289.491C721.615 289.491 719.655 291.511 719.595 294.611H721.555C721.595 292.551 722.755 291.251 724.535 291.251C726.275 291.251 727.315 292.331 727.315 294.151C727.315 295.691 726.655 296.671 724.315 298.691L719.655 302.711V304.211L729.415 304.191Z" fill="#F5F5F5"/>
<path d="M652.057 291.511V304.211H653.937V289.751H649.017V291.511H652.057ZM659.166 291.511V304.211H661.046V289.751H656.126V291.511H659.166Z" fill="#F5F5F5"/>
<path d="M498.223 299.631C499.703 297.611 500.223 296.391 500.223 294.691C500.223 291.751 497.903 289.491 494.903 289.491C491.923 289.491 489.643 291.671 489.643 294.671C489.643 297.551 491.663 299.711 494.663 299.711C495.163 299.711 495.683 299.611 496.183 299.411L492.563 304.211H494.843L498.223 299.631ZM498.223 294.671C498.223 296.651 496.863 298.051 494.903 298.051C492.983 298.051 491.623 296.651 491.623 294.671C491.623 292.691 492.983 291.251 494.903 291.251C496.863 291.251 498.223 292.691 498.223 294.671Z" fill="#F5F5F5"/>
<path d="M309.81 362.599V375.299H311.69V360.839H306.77V362.599H309.81ZM325.115 372.379V370.639H323.395V360.839H320.855L314.035 370.639V372.379H321.515V375.299H323.395V372.379H325.115ZM316.155 370.639L321.515 362.919V370.639H316.155Z" fill="#F5F5F5"/>
<path d="M400.048 300.191C400.048 302.751 402.148 304.451 405.368 304.451C408.568 304.451 410.688 302.751 410.688 300.211C410.688 298.431 409.648 296.991 408.028 296.471C409.388 295.931 410.148 294.791 410.148 293.311C410.148 291.031 408.228 289.491 405.388 289.491C402.508 289.491 400.568 291.031 400.568 293.291C400.568 294.751 401.308 295.891 402.668 296.471C401.068 297.051 400.048 298.451 400.048 300.191ZM402.368 293.411C402.368 292.071 403.548 291.191 405.348 291.191C407.168 291.191 408.308 292.071 408.308 293.451C408.308 294.851 407.168 295.751 405.348 295.751C403.548 295.751 402.368 294.831 402.368 293.411ZM401.968 300.051C401.968 298.451 403.288 297.431 405.348 297.431C407.428 297.431 408.748 298.451 408.748 300.051C408.748 301.671 407.408 302.711 405.368 302.711C403.308 302.711 401.968 301.671 401.968 300.051Z" fill="#F5F5F5"/>
<path d="M312.875 289.751V291.551H320.995L315.455 304.211H317.495L322.975 291.551V289.751H312.875Z" fill="#F5F5F5"/>
<path d="M720.612 233.362C723.732 233.362 725.872 231.262 725.872 228.262C725.872 225.482 723.972 223.422 721.032 223.422C719.952 223.422 718.992 223.722 718.232 224.302L719.192 220.462H725.012V218.662H717.772L716.012 226.082L717.672 226.502C718.332 225.682 719.452 225.102 720.672 225.102C722.692 225.102 723.872 226.482 723.872 228.342C723.872 230.302 722.612 231.602 720.652 231.602C718.812 231.602 717.672 230.462 717.672 228.602H715.732C715.732 231.482 717.652 233.362 720.612 233.362Z" fill="#F5F5F5"/>
<path d="M660.077 230.202V228.462H658.357V218.662H655.817L648.997 228.462V230.202H656.477V233.122H658.357V230.202H660.077ZM651.117 228.462L656.477 220.742V228.462H651.117Z" fill="#F5F5F5"/>
<path d="M577.012 225.642C579.312 225.642 580.512 226.802 580.512 228.542C580.512 230.402 579.292 231.602 577.412 231.602C575.592 231.602 574.432 230.502 574.432 228.622H572.492C572.492 231.622 574.532 233.362 577.372 233.362C580.312 233.362 582.512 231.502 582.512 228.582C582.512 225.982 580.652 224.322 578.192 224.022L582.152 220.242V218.662H573.172V220.402H579.672L575.572 224.342V225.642H577.012Z" fill="#F5F5F5"/>
<path d="M499.503 233.102V231.282H492.823L495.823 228.682C498.383 226.462 499.403 225.002 499.403 222.942C499.403 220.162 497.543 218.402 494.643 218.402C491.703 218.402 489.743 220.422 489.683 223.522H491.643C491.683 221.462 492.843 220.162 494.623 220.162C496.363 220.162 497.403 221.242 497.403 223.062C497.403 224.602 496.743 225.582 494.403 227.602L489.743 231.622V233.122L499.503 233.102Z" fill="#F5F5F5"/>
<path d="M402.848 220.422V233.122H404.728V218.662H399.808V220.422H402.848Z" fill="#F5F5F5"/>
<path d="M232.904 361.581V373.299H234.146V360.411H230.276V361.581H232.904ZM240.211 366.387C242.515 366.387 243.775 367.485 243.775 369.249C243.775 371.121 242.533 372.345 240.607 372.345C238.789 372.345 237.637 371.229 237.637 369.375H236.359C236.359 371.949 238.069 373.515 240.607 373.515C243.217 373.515 245.089 371.841 245.089 369.285C245.089 366.945 243.361 365.415 240.949 365.289L244.801 361.455V360.411H236.989V361.563H243.163L239.185 365.487V366.387H240.211Z" fill="#F5F5F5"/>
<path d="M242.062 293.661C240.856 295.317 240.442 296.361 240.442 297.855C240.442 300.429 242.476 302.427 245.068 302.427C247.642 302.427 249.64 300.501 249.64 297.855C249.64 295.335 247.858 293.373 245.176 293.373C244.582 293.373 244.024 293.499 243.412 293.805L246.796 289.323H245.284L242.062 293.661ZM241.756 297.873C241.756 295.911 243.106 294.507 245.068 294.507C246.976 294.507 248.344 295.911 248.344 297.873C248.344 299.835 246.976 301.257 245.068 301.257C243.106 301.257 241.756 299.835 241.756 297.873Z" fill="#F5F5F5"/>
<path d="M307.301 224.21C309.605 224.21 310.865 225.308 310.865 227.072C310.865 228.944 309.623 230.168 307.697 230.168C305.879 230.168 304.727 229.052 304.727 227.198H303.449C303.449 229.772 305.159 231.338 307.697 231.338C310.307 231.338 312.179 229.664 312.179 227.108C312.179 224.768 310.451 223.238 308.039 223.112L311.891 219.278V218.234H304.079V219.386H310.253L306.275 223.31V224.21H307.301ZM313.967 224.678C313.967 228.692 315.893 231.356 319.133 231.356C322.355 231.356 324.281 228.692 324.281 224.678C324.281 220.682 322.319 217.982 319.133 217.982C315.929 217.982 313.967 220.682 313.967 224.678ZM315.245 224.678C315.245 221.312 316.667 219.17 319.133 219.17C321.599 219.17 323.021 221.312 323.021 224.678C323.021 228.026 321.599 230.186 319.133 230.186C316.667 230.186 315.245 228.026 315.245 224.678Z" fill="#ADADAD"/>
<path d="M552.203 272.204C552.203 268.89 554.889 266.204 558.203 266.204H602.017C603.674 266.204 605.017 267.547 605.017 269.204V316.697C605.017 320.011 602.331 322.697 599.017 322.697H555.203C553.546 322.697 552.203 321.354 552.203 319.697V272.204Z" fill="#F68537"/>
<path d="M568.505 286.751V298.469H569.747V285.581H565.877V286.751H568.505ZM572.248 292.025C572.248 296.039 574.174 298.703 577.414 298.703C580.636 298.703 582.562 296.039 582.562 292.025C582.562 288.029 580.6 285.329 577.414 285.329C574.21 285.329 572.248 288.029 572.248 292.025ZM573.526 292.025C573.526 288.659 574.948 286.517 577.414 286.517C579.88 286.517 581.302 288.659 581.302 292.025C581.302 295.373 579.88 297.533 577.414 297.533C574.948 297.533 573.526 295.373 573.526 292.025Z" fill="#F5F5F5"/>
<path d="M717.995 171.338C717.995 171.045 717.949 170.785 717.858 170.557C717.773 170.329 717.62 170.12 717.399 169.932C717.177 169.743 716.865 169.561 716.461 169.385C716.064 169.202 715.556 169.017 714.938 168.828C714.261 168.62 713.636 168.389 713.063 168.135C712.496 167.874 712.002 167.575 711.578 167.236C711.155 166.891 710.827 166.497 710.592 166.055C710.358 165.605 710.241 165.088 710.241 164.502C710.241 163.923 710.361 163.395 710.602 162.92C710.849 162.445 711.198 162.035 711.647 161.689C712.103 161.338 712.64 161.068 713.258 160.879C713.877 160.684 714.56 160.586 715.309 160.586C716.364 160.586 717.272 160.781 718.034 161.172C718.802 161.562 719.391 162.087 719.801 162.744C720.218 163.402 720.426 164.128 720.426 164.922H717.995C717.995 164.453 717.894 164.04 717.692 163.682C717.496 163.317 717.197 163.031 716.793 162.822C716.396 162.614 715.892 162.51 715.28 162.51C714.7 162.51 714.218 162.598 713.834 162.773C713.45 162.949 713.164 163.187 712.975 163.486C712.786 163.786 712.692 164.124 712.692 164.502C712.692 164.769 712.754 165.013 712.877 165.234C713.001 165.449 713.19 165.651 713.444 165.84C713.698 166.022 714.017 166.195 714.401 166.357C714.785 166.52 715.237 166.676 715.758 166.826C716.546 167.061 717.233 167.321 717.819 167.607C718.405 167.887 718.893 168.206 719.284 168.564C719.674 168.923 719.967 169.329 720.162 169.785C720.358 170.234 720.455 170.745 720.455 171.318C720.455 171.917 720.335 172.458 720.094 172.939C719.853 173.415 719.508 173.822 719.059 174.16C718.616 174.492 718.082 174.749 717.457 174.932C716.839 175.107 716.149 175.195 715.387 175.195C714.703 175.195 714.03 175.104 713.366 174.922C712.708 174.74 712.109 174.463 711.569 174.092C711.028 173.714 710.599 173.245 710.28 172.686C709.961 172.119 709.801 171.458 709.801 170.703H712.252C712.252 171.165 712.33 171.559 712.487 171.885C712.649 172.21 712.874 172.477 713.161 172.686C713.447 172.887 713.779 173.037 714.157 173.135C714.541 173.232 714.951 173.281 715.387 173.281C715.96 173.281 716.439 173.2 716.823 173.037C717.213 172.874 717.506 172.646 717.702 172.354C717.897 172.061 717.995 171.722 717.995 171.338ZM728.746 172.51V164.434H731.11V175H728.883L728.746 172.51ZM729.078 170.312L729.87 170.293C729.87 171.003 729.791 171.657 729.635 172.256C729.479 172.848 729.238 173.366 728.912 173.809C728.587 174.245 728.17 174.587 727.662 174.834C727.155 175.075 726.546 175.195 725.836 175.195C725.322 175.195 724.85 175.12 724.42 174.971C723.991 174.821 723.62 174.59 723.307 174.277C723.001 173.965 722.763 173.558 722.594 173.057C722.425 172.555 722.34 171.956 722.34 171.26V164.434H724.694V171.279C724.694 171.663 724.739 171.986 724.83 172.246C724.922 172.5 725.045 172.705 725.202 172.861C725.358 173.018 725.54 173.128 725.748 173.193C725.957 173.258 726.178 173.291 726.412 173.291C727.083 173.291 727.61 173.161 727.995 172.9C728.385 172.633 728.662 172.275 728.825 171.826C728.994 171.377 729.078 170.872 729.078 170.312Z" fill="#ADADAD"/>
<path d="M341.08 87.4V84.8H329.36V74H343.36V71.36H326.48V100H329.36V87.4H341.08ZM356.508 80.4C355.828 80.24 355.308 80.2 354.708 80.2C351.988 80.2 349.948 81.56 349.188 83.64L348.988 80.64H346.388V100H349.148V88.96C349.148 85.28 351.428 82.88 354.988 82.88H356.508V80.4ZM361.537 75.32C362.657 75.32 363.617 74.4 363.617 73.28C363.617 72.16 362.657 71.2 361.537 71.2C360.417 71.2 359.497 72.16 359.497 73.28C359.497 74.4 360.417 75.32 361.537 75.32ZM360.177 100H362.937V80.64H360.177V100ZM384.146 73.96V100H386.906V71.36H378.306V73.96H384.146ZM392.466 85.68C392.466 94.6 396.746 100.52 403.946 100.52C411.106 100.52 415.386 94.6 415.386 85.68C415.386 76.8 411.026 70.8 403.946 70.8C396.826 70.8 392.466 76.8 392.466 85.68ZM395.306 85.68C395.306 78.2 398.466 73.44 403.946 73.44C409.426 73.44 412.586 78.2 412.586 85.68C412.586 93.12 409.426 97.92 403.946 97.92C398.466 97.92 395.306 93.12 395.306 85.68ZM424.89 100V82.96H428.77V80.64H424.89V74.52H422.17V80.64H418.29V82.96H422.17V100H424.89ZM435.124 99.96V89.44C435.124 85.72 437.284 82.64 441.444 82.64C444.444 82.64 446.564 84.24 446.564 88.76V100H449.324V88.16C449.324 83.28 447.044 80.12 441.964 80.12C438.724 80.12 436.364 81.68 435.124 84V70.84H432.364V99.96H435.124ZM469.399 100V76.16L485.199 100H488.039V71.36H485.199V95.2L469.439 71.36H466.519V100H469.399ZM493.075 90.32C493.075 96.2 497.235 100.48 502.915 100.48C508.595 100.48 512.755 96.2 512.755 90.32C512.755 84.4 508.595 80.12 502.915 80.12C497.235 80.12 493.075 84.4 493.075 90.32ZM495.875 90.28C495.875 85.8 498.755 82.6 502.915 82.6C507.035 82.6 509.955 85.8 509.955 90.28C509.955 94.84 507.035 98 502.915 98C498.755 98 495.875 94.84 495.875 90.28ZM521.71 100H524.47L532.51 80.64H529.67L524.59 93.12C524.03 94.52 523.51 95.8 523.15 97.12C522.79 95.84 522.27 94.52 521.75 93.12L516.75 80.64H513.79L521.71 100ZM537.596 98.64C537.596 96.64 536.356 95.48 534.916 95.48C533.516 95.48 532.556 96.48 532.556 97.88C532.556 99.24 533.516 100.04 534.636 100.04C535.116 100.04 535.436 99.92 535.676 99.76C535.676 100.88 534.636 101.92 533.196 102.16V103.64C535.676 103.28 537.596 101.12 537.596 98.64ZM572.078 100V97.32H557.638L564.318 91.48C570.038 86.48 571.918 83.72 571.918 79.56C571.918 74.32 568.318 70.84 562.918 70.84C557.278 70.84 553.478 74.8 553.318 80.8H556.198C556.318 76.36 558.918 73.48 562.878 73.48C566.678 73.48 568.998 75.84 568.998 79.72C568.998 83.12 567.638 85.12 562.358 89.72L553.198 97.72V100H572.078ZM576.059 85.68C576.059 94.6 580.339 100.52 587.539 100.52C594.699 100.52 598.979 94.6 598.979 85.68C598.979 76.8 594.619 70.8 587.539 70.8C580.419 70.8 576.059 76.8 576.059 85.68ZM578.899 85.68C578.899 78.2 582.059 73.44 587.539 73.44C593.019 73.44 596.179 78.2 596.179 85.68C596.179 93.12 593.019 97.92 587.539 97.92C582.059 97.92 578.899 93.12 578.899 85.68ZM621.844 100V97.32H607.404L614.084 91.48C619.804 86.48 621.684 83.72 621.684 79.56C621.684 74.32 618.084 70.84 612.684 70.84C607.044 70.84 603.244 74.8 603.084 80.8H605.964C606.084 76.36 608.684 73.48 612.644 73.48C616.444 73.48 618.764 75.84 618.764 79.72C618.764 83.12 617.404 85.12 612.124 89.72L602.964 97.72V100H621.844ZM644.383 100V97.32H629.943L636.623 91.48C642.343 86.48 644.223 83.72 644.223 79.56C644.223 74.32 640.623 70.84 635.223 70.84C629.583 70.84 625.783 74.8 625.623 80.8H628.503C628.623 76.36 631.223 73.48 635.183 73.48C638.983 73.48 641.303 75.84 641.303 79.72C641.303 83.12 639.943 85.12 634.663 89.72L625.503 97.72V100H644.383Z" fill="#F5F5F5"/>
<rect x="545" y="520" width="240" height="76" rx="38" fill="#FFD282"/>
<path d="M577 561.856V550.744" stroke="black" stroke-width="2" stroke-linecap="round" stroke-linejoin="round"/>
<path d="M572.556 557.411L577 561.856L581.445 557.411" stroke="black" stroke-width="2" stroke-linecap="round" stroke-linejoin="round"/>
<path d="M577 566.3C582.523 566.3 587 561.823 587 556.3C587 550.777 582.523 546.3 577 546.3C571.477 546.3 567 550.777 567 556.3C567 561.823 571.477 566.3 577 566.3Z" stroke="black" stroke-width="2" stroke-linecap="round" stroke-linejoin="round"/>
<path d="M603.46 563.8C607.74 563.8 610.62 560.88 610.62 556.58C610.62 552.26 607.7 549.34 603.38 549.34H598.68V563.8H603.46ZM603.24 551.14C606.54 551.14 608.58 553.22 608.58 556.58C608.58 559.9 606.54 561.98 603.32 561.98H600.64V551.14H603.24ZM612.154 558.9C612.154 561.92 614.314 564.04 617.254 564.04C620.174 564.04 622.334 561.92 622.334 558.9C622.334 555.88 620.174 553.76 617.254 553.76C614.314 553.76 612.154 555.88 612.154 558.9ZM614.054 558.9C614.054 556.86 615.354 555.44 617.254 555.44C619.134 555.44 620.454 556.86 620.454 558.9C620.454 560.94 619.134 562.36 617.254 562.36C615.354 562.36 614.054 560.94 614.054 558.9ZM626.066 563.8H627.926L629.626 558.58C629.986 557.4 630.166 556.76 630.266 556.28C630.366 556.82 630.566 557.58 630.886 558.56L632.586 563.8H634.366L637.706 554.02H635.746L634.106 559.1C633.826 559.96 633.646 560.64 633.486 561.42C633.326 560.72 633.006 559.58 632.846 559.1L631.226 554.02H629.306L627.666 559.1C627.446 559.74 627.186 560.56 627.026 561.42C626.846 560.56 626.646 559.82 626.426 559.1L624.806 554.02H622.866L626.066 563.8ZM641.197 563.8V558.62C641.197 556.72 642.217 555.46 643.977 555.46C645.417 555.46 646.337 556.26 646.337 558.24V563.8H648.217V557.82C648.217 555.32 647.037 553.74 644.457 553.74C643.077 553.74 641.837 554.4 641.217 555.52L641.017 554.02H639.317V563.8H641.197ZM652.741 563.8V549.08H650.861V563.8H652.741ZM654.869 558.9C654.869 561.92 657.029 564.04 659.969 564.04C662.889 564.04 665.049 561.92 665.049 558.9C665.049 555.88 662.889 553.76 659.969 553.76C657.029 553.76 654.869 555.88 654.869 558.9ZM656.769 558.9C656.769 556.86 658.069 555.44 659.969 555.44C661.849 555.44 663.169 556.86 663.169 558.9C663.169 560.94 661.849 562.36 659.969 562.36C658.069 562.36 656.769 560.94 656.769 558.9ZM669.99 564.04C671.57 564.04 672.91 563.34 673.41 562.22L673.61 563.8H675.21V557.66C675.21 555.02 673.57 553.74 671.15 553.74C668.63 553.74 666.95 555.08 666.95 557.12H668.59C668.59 555.94 669.49 555.24 671.07 555.24C672.39 555.24 673.37 555.82 673.37 557.46V557.74L670.29 557.98C667.99 558.16 666.65 559.28 666.65 561.08C666.65 562.86 667.89 564.04 669.99 564.04ZM670.53 562.58C669.31 562.58 668.55 562.06 668.55 561.02C668.55 560.06 669.23 559.42 670.89 559.26L673.39 559.06V559.58C673.39 561.42 672.31 562.58 670.53 562.58ZM681.733 564.04C683.293 564.04 684.613 563.36 685.253 562.02L685.413 563.8H687.093V549.08H685.233V555.6C684.573 554.4 683.313 553.74 681.813 553.74C678.913 553.74 677.173 555.94 677.173 558.94C677.173 561.92 678.893 564.04 681.733 564.04ZM682.113 562.34C680.193 562.34 679.073 560.9 679.073 558.88C679.073 556.88 680.193 555.44 682.113 555.44C684.033 555.44 685.213 556.88 685.213 558.88C685.213 560.92 684.033 562.34 682.113 562.34ZM697.554 549.34H695.594V563.8H697.554V549.34ZM702.486 563.8V558.62C702.486 556.72 703.506 555.46 705.266 555.46C706.706 555.46 707.626 556.26 707.626 558.24V563.8H709.506V557.82C709.506 555.32 708.326 553.74 705.746 553.74C704.366 553.74 703.126 554.4 702.506 555.52L702.306 554.02H700.606V563.8H702.486ZM714.655 563.8H716.515L720.595 554.02H718.635L716.455 559.48C716.115 560.34 715.795 561.18 715.635 561.82C715.475 561.22 715.195 560.4 714.855 559.48L712.715 554.02H710.715L714.655 563.8ZM721.001 558.9C721.001 561.92 723.161 564.04 726.101 564.04C729.021 564.04 731.181 561.92 731.181 558.9C731.181 555.88 729.021 553.76 726.101 553.76C723.161 553.76 721.001 555.88 721.001 558.9ZM722.901 558.9C722.901 556.86 724.201 555.44 726.101 555.44C727.981 555.44 729.301 556.86 729.301 558.9C729.301 560.94 727.981 562.36 726.101 562.36C724.201 562.36 722.901 560.94 722.901 558.9ZM734.182 551.7C734.862 551.7 735.422 551.14 735.422 550.46C735.422 549.76 734.862 549.22 734.182 549.22C733.502 549.22 732.942 549.76 732.942 550.46C732.942 551.14 733.502 551.7 734.182 551.7ZM733.262 563.8H735.142V554.02H733.262V563.8ZM737.232 558.92C737.232 562 739.132 564.04 742.012 564.04C744.372 564.04 746.192 562.62 746.572 560.5H744.692C744.352 561.66 743.352 562.36 742.012 562.36C740.232 562.36 739.092 561 739.092 558.9C739.092 556.78 740.312 555.42 742.092 555.42C743.352 555.42 744.352 556.08 744.672 557.32H746.552C746.212 555.14 744.492 553.74 742.032 553.74C739.172 553.74 737.232 555.86 737.232 558.92ZM752.775 564.04C755.195 564.04 756.835 562.86 757.315 560.76H755.555C755.235 561.88 754.275 562.48 752.815 562.48C750.955 562.48 749.875 561.34 749.735 559.28L757.295 559.26V558.56C757.295 555.66 755.475 553.74 752.695 553.74C749.855 553.74 747.915 555.86 747.915 558.92C747.915 561.96 749.895 564.04 752.775 564.04ZM752.695 555.32C754.355 555.32 755.415 556.4 755.415 558.02H749.775C750.015 556.3 751.055 555.32 752.695 555.32Z" fill="black"/>
<g filter="url(#filter2_b_229_74)">
<rect x="195" y="424" width="590" height="74" rx="37" fill="url(#paint8_radial_229_74)" fill-opacity="0.8"/>
<path d="M234.32 470V462.584C234.32 460.16 234.272 458.384 234.152 457.544L239.192 470H241.4L246.464 457.496C246.344 458.72 246.32 459.896 246.32 463.136V470H248.624V452.648H246.272L240.296 467.24L234.32 452.648H232.016V470H234.32ZM257.344 470.288C260.248 470.288 262.216 468.872 262.792 466.352H260.68C260.296 467.696 259.144 468.416 257.392 468.416C255.16 468.416 253.864 467.048 253.696 464.576L262.768 464.552V463.712C262.768 460.232 260.584 457.928 257.248 457.928C253.84 457.928 251.512 460.472 251.512 464.144C251.512 467.792 253.888 470.288 257.344 470.288ZM257.248 459.824C259.24 459.824 260.512 461.12 260.512 463.064H253.744C254.032 461 255.28 459.824 257.248 459.824ZM272.008 458.168C271.552 458.072 271.216 458.024 270.808 458.024C269.2 458.024 268.024 458.84 267.544 460.064L267.4 458.288H265.288V470H267.544V463.784C267.544 461.528 268.864 460.232 271 460.232H272.008V458.168ZM272.934 464.144C272.934 467.84 275.214 470.288 278.67 470.288C281.502 470.288 283.686 468.584 284.142 466.04H281.886C281.478 467.432 280.278 468.272 278.67 468.272C276.534 468.272 275.166 466.64 275.166 464.12C275.166 461.576 276.63 459.944 278.766 459.944C280.278 459.944 281.478 460.736 281.862 462.224H284.118C283.71 459.608 281.646 457.928 278.694 457.928C275.262 457.928 272.934 460.472 272.934 464.144ZM291.587 470.288C294.491 470.288 296.459 468.872 297.035 466.352H294.923C294.539 467.696 293.387 468.416 291.635 468.416C289.403 468.416 288.107 467.048 287.939 464.576L297.011 464.552V463.712C297.011 460.232 294.827 457.928 291.491 457.928C288.083 457.928 285.755 460.472 285.755 464.144C285.755 467.792 288.131 470.288 291.587 470.288ZM291.491 459.824C293.483 459.824 294.755 461.12 294.755 463.064H287.987C288.275 461 289.523 459.824 291.491 459.824ZM304.234 470.288C306.106 470.288 307.69 469.472 308.458 467.864L308.65 470H310.666V452.336H308.434V460.16C307.642 458.72 306.13 457.928 304.33 457.928C300.85 457.928 298.762 460.568 298.762 464.168C298.762 467.744 300.826 470.288 304.234 470.288ZM304.69 468.248C302.386 468.248 301.042 466.52 301.042 464.096C301.042 461.696 302.386 459.968 304.69 459.968C306.994 459.968 308.41 461.696 308.41 464.096C308.41 466.544 306.994 468.248 304.69 468.248ZM318.985 470.288C321.889 470.288 323.857 468.872 324.433 466.352H322.321C321.937 467.696 320.785 468.416 319.033 468.416C316.801 468.416 315.505 467.048 315.337 464.576L324.409 464.552V463.712C324.409 460.232 322.225 457.928 318.889 457.928C315.481 457.928 313.153 460.472 313.153 464.144C313.153 467.792 315.529 470.288 318.985 470.288ZM318.889 459.824C320.881 459.824 322.153 461.12 322.153 463.064H315.385C315.673 461 316.921 459.824 318.889 459.824ZM335.119 470V468.104H328.735L335.119 460.112V458.264H325.975V460.16H332.311L325.975 468.176V470H335.119ZM344.61 470H351.474C354.906 470 356.994 468.248 356.994 465.368C356.994 463.304 356.01 461.912 354.09 461.288C355.818 460.568 356.682 459.224 356.682 457.232C356.682 454.376 354.618 452.648 351.234 452.648H344.61V470ZM351.09 454.736C353.13 454.736 354.282 455.72 354.282 457.448C354.282 459.248 353.178 460.304 351.234 460.304H346.962V454.736H351.09ZM351.426 462.344C353.418 462.344 354.57 463.352 354.57 465.08C354.57 466.88 353.442 467.912 351.426 467.912H346.962V462.344H351.426ZM364.618 470.288C367.522 470.288 369.49 468.872 370.066 466.352H367.954C367.57 467.696 366.418 468.416 364.666 468.416C362.434 468.416 361.138 467.048 360.97 464.576L370.042 464.552V463.712C370.042 460.232 367.858 457.928 364.522 457.928C361.114 457.928 358.786 460.472 358.786 464.144C358.786 467.792 361.162 470.288 364.618 470.288ZM364.522 459.824C366.514 459.824 367.786 461.12 367.786 463.064H361.018C361.306 461 362.554 459.824 364.522 459.824ZM374.818 470V463.784C374.818 461.504 376.042 459.992 378.154 459.992C379.882 459.992 380.986 460.952 380.986 463.328V470H383.242V462.824C383.242 459.824 381.826 457.928 378.73 457.928C377.074 457.928 375.586 458.72 374.842 460.064L374.602 458.264H372.562V470H374.818ZM394.79 470V468.104H388.406L394.79 460.112V458.264H385.646V460.16H391.982L385.646 468.176V470H394.79ZM411.482 470.264C415.394 470.264 418.49 467.96 419.234 464.504H416.738C416.09 466.64 414.074 468.008 411.53 468.008C408.026 468.008 405.722 465.368 405.722 461.312C405.722 457.256 408.026 454.616 411.53 454.616C414.05 454.616 415.994 455.984 416.642 458.24H419.162C418.514 454.688 415.514 452.36 411.602 452.36C406.634 452.36 403.25 455.984 403.25 461.336C403.25 466.712 406.538 470.264 411.482 470.264ZM426.246 461.024C429.006 461.024 430.446 462.416 430.446 464.504C430.446 466.736 428.982 468.176 426.726 468.176C424.542 468.176 423.15 466.856 423.15 464.6H420.822C420.822 468.2 423.27 470.288 426.678 470.288C430.206 470.288 432.846 468.056 432.846 464.552C432.846 461.432 430.614 459.44 427.662 459.08L432.414 454.544V452.648H421.638V454.736H429.438L424.518 459.464V461.024H426.246ZM434.918 461.336C434.918 466.736 437.582 470.312 442.07 470.312C446.534 470.312 449.198 466.736 449.198 461.336C449.198 455.96 446.414 452.312 442.07 452.312C437.702 452.312 434.918 455.96 434.918 461.336ZM437.246 461.336C437.246 457.016 439.022 454.424 442.07 454.424C445.118 454.424 446.87 457.016 446.87 461.336C446.87 465.608 445.118 468.2 442.07 468.2C439.022 468.2 437.246 465.608 437.246 461.336ZM451.559 461.336C451.559 466.736 454.223 470.312 458.711 470.312C463.175 470.312 465.839 466.736 465.839 461.336C465.839 455.96 463.055 452.312 458.711 452.312C454.343 452.312 451.559 455.96 451.559 461.336ZM453.887 461.336C453.887 457.016 455.663 454.424 458.711 454.424C461.759 454.424 463.511 457.016 463.511 461.336C463.511 465.608 461.759 468.2 458.711 468.2C455.663 468.2 453.887 465.608 453.887 461.336ZM474.594 457.328C474.594 459.824 476.058 461.456 478.89 462.104L481.746 462.752C483.402 463.136 484.146 464 484.146 465.368C484.146 467.096 482.682 468.176 480.378 468.176C478.194 468.176 476.802 467.12 476.754 465.464H474.354C474.498 468.44 476.85 470.288 480.378 470.288C484.074 470.288 486.498 468.296 486.498 465.176C486.498 462.728 485.058 461.192 482.226 460.544L479.37 459.872C477.738 459.488 476.946 458.648 476.946 457.256C476.946 455.552 478.362 454.448 480.546 454.448C482.49 454.448 483.714 455.456 483.834 457.184H486.21C486.018 454.184 483.882 452.336 480.57 452.336C476.994 452.336 474.594 454.352 474.594 457.328ZM494.134 470.288C497.038 470.288 499.006 468.872 499.582 466.352H497.47C497.086 467.696 495.934 468.416 494.182 468.416C491.95 468.416 490.654 467.048 490.486 464.576L499.557 464.552V463.712C499.557 460.232 497.374 457.928 494.038 457.928C490.63 457.928 488.302 460.472 488.302 464.144C488.302 467.792 490.678 470.288 494.134 470.288ZM494.038 459.824C496.03 459.824 497.302 461.12 497.302 463.064H490.534C490.822 461 492.07 459.824 494.038 459.824ZM508.797 458.168C508.341 458.072 508.005 458.024 507.597 458.024C505.989 458.024 504.813 458.84 504.333 460.064L504.189 458.288H502.077V470H504.333V463.784C504.333 461.528 505.653 460.232 507.789 460.232H508.797V458.168ZM514.553 470H516.785L521.681 458.264H519.329L516.713 464.816C516.305 465.848 515.921 466.856 515.729 467.624C515.537 466.904 515.201 465.92 514.793 464.816L512.225 458.264H509.825L514.553 470ZM524.58 455.48C525.396 455.48 526.068 454.808 526.068 453.992C526.068 453.152 525.396 452.504 524.58 452.504C523.764 452.504 523.092 453.152 523.092 453.992C523.092 454.808 523.764 455.48 524.58 455.48ZM523.476 470H525.732V458.264H523.476V470ZM528.239 464.144C528.239 467.84 530.519 470.288 533.975 470.288C536.807 470.288 538.991 468.584 539.447 466.04H537.191C536.783 467.432 535.583 468.272 533.975 468.272C531.839 468.272 530.471 466.64 530.471 464.12C530.471 461.576 531.935 459.944 534.071 459.944C535.583 459.944 536.783 460.736 537.167 462.224H539.423C539.015 459.608 536.951 457.928 533.999 457.928C530.567 457.928 528.239 460.472 528.239 464.144ZM542.931 455.48C543.747 455.48 544.419 454.808 544.419 453.992C544.419 453.152 543.747 452.504 542.931 452.504C542.115 452.504 541.443 453.152 541.443 453.992C541.443 454.808 542.115 455.48 542.931 455.48ZM541.827 470H544.083V458.264H541.827V470ZM549.615 470V463.784C549.615 461.504 550.839 459.992 552.951 459.992C554.679 459.992 555.783 460.952 555.783 463.328V470H558.039V462.824C558.039 459.824 556.623 457.928 553.527 457.928C551.871 457.928 550.383 458.72 549.639 460.064L549.399 458.264H547.359V470H549.615ZM560.419 463.832C560.419 467.12 562.531 469.688 565.867 469.688C567.715 469.688 569.251 468.872 570.019 467.504V469.856C570.019 472.088 568.579 473.528 566.371 473.528C564.403 473.528 563.107 472.52 562.819 470.792H560.563C560.995 473.768 563.179 475.568 566.371 475.568C569.971 475.568 572.251 473.216 572.251 469.52V458.264H570.235L570.067 460.256C569.323 458.792 567.859 457.928 565.963 457.928C562.555 457.928 560.419 460.52 560.419 463.832ZM562.675 463.784C562.675 461.624 564.019 459.896 566.275 459.896C568.579 459.896 569.923 461.528 569.923 463.784C569.923 466.088 568.531 467.72 566.251 467.72C564.043 467.72 562.675 465.992 562.675 463.784Z" fill="white"/>
<rect x="196" y="425" width="588" height="72" rx="36" stroke="url(#paint9_radial_229_74)" stroke-width="2"/>
<rect x="196" y="425" width="588" height="72" rx="36" stroke="url(#paint10_radial_229_74)" stroke-width="2"/>
<rect x="196" y="425" width="588" height="72" rx="36" stroke="url(#paint11_radial_229_74)" stroke-width="2"/>
</g>
<rect x="344" y="638" width="160" height="70" rx="35" fill="#FFD282"/>
<path fill-rule="evenodd" clip-rule="evenodd" d="M378.823 673.934V670.65H379.811L381.992 673.934H378.823ZM376.065 676.122V680.5H378.823V676.122H383.445L386.352 680.5H389.11V676.122H392.897V673.934H389.11V670.65H392.897V668.462H389.11V664.5H386.352V668.462H381.468L378.845 664.5H376.065V668.462H372.103V670.65H376.065V673.934H372.103V676.122H376.065ZM386.352 673.934V670.65H382.917L385.091 673.934H386.352Z" fill="black"/>
<path d="M408.077 672.76C410.117 672.76 411.077 673.84 411.077 675.32C411.077 676.94 410.017 677.98 408.417 677.98C406.857 677.98 405.817 677.02 405.817 675.34H403.297C403.297 678.5 405.517 680.26 408.377 680.26C411.337 680.26 413.677 678.36 413.677 675.36C413.677 672.78 411.937 671.14 409.697 670.7L413.257 667.42V665.38H403.977V667.64H410.057L406.297 671.1V672.76H408.077ZM415.143 672.72C415.143 677.24 417.443 680.26 421.323 680.26C425.203 680.26 427.523 677.24 427.523 672.72C427.523 668.18 425.063 665.1 421.323 665.1C417.583 665.1 415.143 668.18 415.143 672.72ZM417.663 672.72C417.663 669.26 419.023 667.36 421.323 667.36C423.643 667.36 425.003 669.26 425.003 672.72C425.003 676.1 423.643 678 421.323 678C419.023 678 417.663 676.1 417.663 672.72ZM432.182 679.12C432.182 677.88 431.462 677.06 430.462 677.06C429.562 677.06 428.942 677.7 428.942 678.66C428.942 679.46 429.582 680.04 430.362 680.04C430.602 680.04 430.782 680 430.942 679.92C430.942 680.62 430.262 681.16 429.362 681.32V682.3C430.982 682.1 432.182 680.78 432.182 679.12ZM433.62 672.72C433.62 677.24 435.92 680.26 439.8 680.26C443.68 680.26 446 677.24 446 672.72C446 668.18 443.54 665.1 439.8 665.1C436.06 665.1 433.62 668.18 433.62 672.72ZM436.14 672.72C436.14 669.26 437.5 667.36 439.8 667.36C442.12 667.36 443.48 669.26 443.48 672.72C443.48 676.1 442.12 678 439.8 678C437.5 678 436.14 676.1 436.14 672.72ZM447.721 672.72C447.721 677.24 450.021 680.26 453.901 680.26C457.781 680.26 460.101 677.24 460.101 672.72C460.101 668.18 457.641 665.1 453.901 665.1C450.161 665.1 447.721 668.18 447.721 672.72ZM450.241 672.72C450.241 669.26 451.601 667.36 453.901 667.36C456.221 667.36 457.581 669.26 457.581 672.72C457.581 676.1 456.221 678 453.901 678C451.601 678 450.241 676.1 450.241 672.72ZM461.823 672.72C461.823 677.24 464.123 680.26 468.003 680.26C471.883 680.26 474.203 677.24 474.203 672.72C474.203 668.18 471.743 665.1 468.003 665.1C464.263 665.1 461.823 668.18 461.823 672.72ZM464.343 672.72C464.343 669.26 465.703 667.36 468.003 667.36C470.323 667.36 471.683 669.26 471.683 672.72C471.683 676.1 470.323 678 468.003 678C465.703 678 464.343 676.1 464.343 672.72Z" fill="black"/>
<rect y="47" width="259" height="70" rx="35" fill="#FFD282"/>
<path d="M38.1819 74.5L24.1819 88.5L17.8182 82.1364" stroke="black" stroke-width="3" stroke-linecap="round" stroke-linejoin="round"/>
<path d="M55.5819 83.96C58.5019 83.96 60.4219 81.98 60.4219 79.16C60.4219 76.3 58.5219 74.38 55.5819 74.38H49.8019V89H52.3619V83.96H55.5819ZM55.0819 76.66C56.7819 76.66 57.7419 77.54 57.7419 79.14C57.7419 80.74 56.8019 81.68 55.0419 81.68H52.3619V76.66H55.0819ZM64.7647 89.26C66.3047 89.26 67.6447 88.56 68.0647 87.54L68.2447 89H70.3847V83C70.3847 80.26 68.7447 78.82 66.0847 78.82C63.4047 78.82 61.6447 80.22 61.6447 82.36H63.7247C63.7247 81.32 64.5247 80.72 65.9647 80.72C67.2047 80.72 68.0047 81.26 68.0047 82.6V82.82L65.0447 83.04C62.7047 83.22 61.3847 84.36 61.3847 86.18C61.3847 88.04 62.6647 89.26 64.7647 89.26ZM65.5647 87.42C64.4647 87.42 63.8647 86.98 63.8647 86.08C63.8647 85.28 64.4447 84.78 65.9647 84.64L68.0247 84.48V85C68.0247 86.52 67.0647 87.42 65.5647 87.42ZM71.6483 93.58C72.1883 93.72 72.7883 93.8 73.4683 93.8C75.0883 93.8 76.1283 93.04 76.8683 91.2L81.7083 79.12H79.1883L76.5083 86.32L73.9683 79.12H71.3883L75.3683 89.42L75.0883 90.16C74.6683 91.32 74.0683 91.54 73.1083 91.54H71.6483V93.58ZM85.5342 89V83.4C85.5342 81.8 86.4742 81.04 87.6342 81.04C88.7942 81.04 89.5342 81.78 89.5342 83.16V89H91.9742V83.4C91.9742 81.78 92.8742 81.02 94.0542 81.02C95.2142 81.02 95.9742 81.76 95.9742 83.18V89H98.3942V82.54C98.3942 80.26 97.0742 78.82 94.6742 78.82C93.1742 78.82 92.0142 79.56 91.5142 80.7C90.9942 79.56 89.9542 78.82 88.4542 78.82C87.0342 78.82 86.0342 79.46 85.5342 80.28L85.3342 79.12H83.0942V89H85.5342ZM105.21 89.26C107.79 89.26 109.59 87.96 110.01 85.8H107.75C107.47 86.74 106.59 87.26 105.25 87.26C103.63 87.26 102.71 86.38 102.53 84.64L109.97 84.62V83.88C109.97 80.8 108.09 78.82 105.13 78.82C102.23 78.82 100.21 80.96 100.21 84.06C100.21 87.12 102.27 89.26 105.21 89.26ZM105.15 80.82C106.61 80.82 107.55 81.72 107.55 83.08H102.59C102.83 81.6 103.71 80.82 105.15 80.82ZM114.362 89V83.68C114.362 82.08 115.282 81.04 116.782 81.04C118.042 81.04 118.862 81.84 118.862 83.5V89H121.302V82.92C121.302 80.36 120.022 78.82 117.542 78.82C116.202 78.82 115.002 79.4 114.382 80.4L114.182 79.12H111.922V89H114.362ZM127.06 89V81.16H128.98V79.12H127.06V76.04H124.62V79.12H122.72V81.16H124.62V89H127.06ZM135.407 78.46C135.407 80.7 136.707 82.12 139.187 82.66L141.507 83.18C142.707 83.44 143.207 84.02 143.207 85C143.207 86.22 142.127 86.96 140.427 86.96C138.787 86.96 137.787 86.22 137.767 84.98H135.207C135.267 87.6 137.307 89.26 140.427 89.26C143.647 89.26 145.767 87.5 145.767 84.78C145.767 82.6 144.547 81.32 142.047 80.78L139.747 80.28C138.527 80 137.967 79.42 137.967 78.38C137.967 77.16 138.987 76.4 140.567 76.4C142.007 76.4 142.907 77.14 142.967 78.4H145.527C145.447 75.76 143.567 74.12 140.607 74.12C137.527 74.12 135.407 75.9 135.407 78.46ZM154.423 79.12V84.3C154.423 86.18 153.683 87.08 152.143 87.08C150.783 87.08 150.043 86.32 150.043 84.44V79.12H147.603V85.3C147.603 87.72 148.943 89.26 151.223 89.26C152.543 89.26 153.823 88.62 154.423 87.68L154.603 89H156.863V79.12H154.423ZM158.608 84.04C158.608 87.18 160.568 89.26 163.568 89.26C166.148 89.26 168.068 87.68 168.368 85.38H165.908C165.648 86.46 164.788 87.06 163.568 87.06C162.008 87.06 161.048 85.9 161.048 84.04C161.048 82.18 162.088 81 163.648 81C164.808 81 165.628 81.58 165.908 82.7H168.348C168.088 80.32 166.248 78.82 163.548 78.82C160.628 78.82 158.608 80.98 158.608 84.04ZM169.604 84.04C169.604 87.18 171.564 89.26 174.564 89.26C177.144 89.26 179.064 87.68 179.364 85.38H176.904C176.644 86.46 175.784 87.06 174.564 87.06C173.004 87.06 172.044 85.9 172.044 84.04C172.044 82.18 173.084 81 174.644 81C175.804 81 176.624 81.58 176.904 82.7H179.344C179.084 80.32 177.244 78.82 174.544 78.82C171.624 78.82 169.604 80.98 169.604 84.04ZM185.6 89.26C188.18 89.26 189.98 87.96 190.4 85.8H188.14C187.86 86.74 186.98 87.26 185.64 87.26C184.02 87.26 183.1 86.38 182.92 84.64L190.36 84.62V83.88C190.36 80.8 188.48 78.82 185.52 78.82C182.62 78.82 180.6 80.96 180.6 84.06C180.6 87.12 182.66 89.26 185.6 89.26ZM185.54 80.82C187 80.82 187.94 81.72 187.94 83.08H182.98C183.22 81.6 184.1 80.82 185.54 80.82ZM191.553 86C191.553 87.94 193.113 89.26 195.573 89.26C198.013 89.26 199.713 88.02 199.713 86.02C199.713 84.5 198.873 83.74 197.213 83.36L195.433 82.94C194.593 82.74 194.153 82.38 194.153 81.82C194.153 81.08 194.713 80.64 195.673 80.64C196.613 80.64 197.173 81.18 197.193 82.02H199.513C199.493 80.1 197.993 78.82 195.773 78.82C193.493 78.82 191.853 79.98 191.853 81.92C191.853 83.5 192.713 84.34 194.493 84.74L196.273 85.16C197.153 85.36 197.413 85.72 197.413 86.22C197.413 86.94 196.793 87.4 195.653 87.4C194.533 87.4 193.893 86.86 193.873 86H191.553ZM200.591 79.12V81.16H202.011V89H204.431V81.16H206.791V79.12H204.431V77.92C204.431 76.94 204.731 76.3 205.971 76.3H206.831V74.22C206.411 74.14 205.951 74.12 205.571 74.12C203.431 74.12 202.011 75.24 202.011 77.92V79.12H200.591ZM215.048 79.12V84.3C215.048 86.18 214.308 87.08 212.768 87.08C211.408 87.08 210.668 86.32 210.668 84.44V79.12H208.228V85.3C208.228 87.72 209.568 89.26 211.848 89.26C213.168 89.26 214.448 88.62 215.048 87.68L215.228 89H217.488V79.12H215.048ZM222.468 89V74.12H220.048V89H222.468ZM227.928 84.62C228.208 83.08 228.408 80.4 228.408 77.74V74.38H225.528V77.74C225.528 80.34 225.708 83.02 225.968 84.62H227.928ZM226.968 89.26C227.828 89.26 228.568 88.54 228.568 87.68C228.568 86.8 227.828 86.08 226.968 86.08C226.068 86.08 225.328 86.8 225.328 87.68C225.328 88.54 226.068 89.26 226.968 89.26Z" fill="black"/>
<defs>
<filter id="filter0_b_229_74" x="101" y="-42" width="778" height="742" filterUnits="userSpaceOnUse" color-interpolation-filters="sRGB">
<feFlood flood-opacity="0" result="BackgroundImageFix"/>
<feGaussianBlur in="BackgroundImageFix" stdDeviation="21"/>
<feComposite in2="SourceAlpha" operator="in" result="effect1_backgroundBlur_229_74"/>
<feBlend mode="normal" in="SourceGraphic" in2="effect1_backgroundBlur_229_74" result="shape"/>
</filter>
<filter id="filter1_b_229_74" x="158" y="479" width="410" height="158" filterUnits="userSpaceOnUse" color-interpolation-filters="sRGB">
<feFlood flood-opacity="0" result="BackgroundImageFix"/>
<feGaussianBlur in="BackgroundImageFix" stdDeviation="21"/>
<feComposite in2="SourceAlpha" operator="in" result="effect1_backgroundBlur_229_74"/>
<feBlend mode="normal" in="SourceGraphic" in2="effect1_backgroundBlur_229_74" result="shape"/>
</filter>
<filter id="filter2_b_229_74" x="153" y="382" width="674" height="158" filterUnits="userSpaceOnUse" color-interpolation-filters="sRGB">
<feFlood flood-opacity="0" result="BackgroundImageFix"/>
<feGaussianBlur in="BackgroundImageFix" stdDeviation="21"/>
<feComposite in2="SourceAlpha" operator="in" result="effect1_backgroundBlur_229_74"/>
<feBlend mode="normal" in="SourceGraphic" in2="effect1_backgroundBlur_229_74" result="shape"/>
</filter>
<radialGradient id="paint0_radial_229_74" cx="0" cy="0" r="1" gradientUnits="userSpaceOnUse" gradientTransform="translate(143) rotate(45.4572) scale(989.39 815.747)">
<stop stop-color="white" stop-opacity="0.4"/>
<stop offset="1" stop-color="white" stop-opacity="0"/>
</radialGradient>
<radialGradient id="paint1_radial_229_74" cx="0" cy="0" r="1" gradientUnits="userSpaceOnUse" gradientTransform="translate(200 521) rotate(13.6725) scale(335.507 127.082)">
<stop stop-color="white" stop-opacity="0.4"/>
<stop offset="1" stop-color="white" stop-opacity="0"/>
</radialGradient>
<radialGradient id="paint2_radial_229_74" cx="0" cy="0" r="1" gradientUnits="userSpaceOnUse" gradientTransform="translate(451.382 543.51) rotate(-174.594) scale(267.787 47.7574)">
<stop offset="0.00697081" stop-color="#A8A8A8"/>
<stop offset="1" stop-color="#BBA18F"/>
</radialGradient>
<radialGradient id="paint3_radial_229_74" cx="0" cy="0" r="1" gradientUnits="userSpaceOnUse" gradientTransform="translate(473.84 529.668) rotate(167.682) scale(306.245 102.467)">
<stop stop-color="#F68537"/>
<stop offset="1" stop-color="#FFDEC7"/>
</radialGradient>
<radialGradient id="paint4_radial_229_74" cx="0" cy="0" r="1" gradientUnits="userSpaceOnUse" gradientTransform="translate(470.163 592.435) rotate(-162.244) scale(209.648 111.534)">
<stop offset="0.0038041" stop-color="white" stop-opacity="0.22"/>
<stop offset="0.0670888" stop-color="white" stop-opacity="0"/>
<stop offset="1" stop-color="white" stop-opacity="0.31"/>
</radialGradient>
<radialGradient id="paint5_radial_229_74" cx="0" cy="0" r="1" gradientUnits="userSpaceOnUse" gradientTransform="translate(678.151 200.161) rotate(-158.434) scale(610.26 396.689)">
<stop offset="0.00697081" stop-color="#A8A8A8"/>
<stop offset="1" stop-color="#BBA18F"/>
</radialGradient>
<radialGradient id="paint6_radial_229_74" cx="0" cy="0" r="1" gradientUnits="userSpaceOnUse" gradientTransform="translate(859 -9.99998) rotate(139.056) scale(1019.36 814.76)">
<stop stop-color="#F68537"/>
<stop offset="1" stop-color="#F79E61" stop-opacity="0.1"/>
</radialGradient>
<radialGradient id="paint7_radial_229_74" cx="0" cy="0" r="1" gradientUnits="userSpaceOnUse" gradientTransform="translate(175 658) rotate(-44.493) scale(958.874 842.323)">
<stop offset="3.78877e-08" stop-color="white" stop-opacity="0.12"/>
<stop offset="1" stop-color="white" stop-opacity="0.4"/>
</radialGradient>
<radialGradient id="paint8_radial_229_74" cx="0" cy="0" r="1" gradientUnits="userSpaceOnUse" gradientTransform="translate(195 424) rotate(7.65546) scale(595.306 129.623)">
<stop stop-color="white" stop-opacity="0.4"/>
<stop offset="1" stop-color="white" stop-opacity="0"/>
</radialGradient>
<radialGradient id="paint9_radial_229_74" cx="0" cy="0" r="1" gradientUnits="userSpaceOnUse" gradientTransform="translate(649.956 446.51) rotate(-177.007) scale(483.148 47.9053)">
<stop offset="0.00697081" stop-color="#A8A8A8"/>
<stop offset="1" stop-color="#BBA18F"/>
</radialGradient>
<radialGradient id="paint10_radial_229_74" cx="0" cy="0" r="1" gradientUnits="userSpaceOnUse" gradientTransform="translate(690.6 432.668) rotate(173.12) scale(545.416 104.126)">
<stop stop-color="#F68537"/>
<stop offset="1" stop-color="#FFDEC7"/>
</radialGradient>
<radialGradient id="paint11_radial_229_74" cx="0" cy="0" r="1" gradientUnits="userSpaceOnUse" gradientTransform="translate(683.945 495.435) rotate(-169.966) scale(366.962 115.322)">
<stop offset="0.0038041" stop-color="white" stop-opacity="0.22"/>
<stop offset="0.0670888" stop-color="white" stop-opacity="0"/>
<stop offset="1" stop-color="white" stop-opacity="0.31"/>
</radialGradient>
</defs>
</svg>
