<svg width="694" height="532" fill="none" xmlns="http://www.w3.org/2000/svg">
  <g filter="url(#a)">
    <rect width="694" height="532" rx="40" fill="url(#b)"/>
    <rect x="110" y="329" width="196" height="40" rx="20" fill="#FFD282"/>
    <path d="M140 353.444v-8.888M136.445 349.889l3.555 3.555 3.556-3.555" stroke="#000" stroke-width="2" stroke-linecap="round" stroke-linejoin="round"/>
    <path d="M140 357a8 8 0 1 0 0-16 8 8 0 0 0 0 16Z" stroke="#000" stroke-width="2" stroke-linecap="round" stroke-linejoin="round"/>
    <path d="M163.168 355c3.424 0 5.728-2.336 5.728-5.776 0-3.456-2.336-5.792-5.792-5.792h-3.76V355h3.824Zm-.176-10.128c2.64 0 4.272 1.664 4.272 4.352 0 2.656-1.632 4.32-4.208 4.32h-2.144v-8.672h2.08Zm7.131 6.208c0 2.416 1.728 4.112 4.08 4.112 2.336 0 4.064-1.696 4.064-4.112 0-2.416-1.728-4.112-4.064-4.112-2.352 0-4.08 1.696-4.08 4.112Zm1.52 0c0-1.632 1.04-2.768 2.56-2.768 1.504 0 2.56 1.136 2.56 2.768s-1.056 2.768-2.56 2.768c-1.52 0-2.56-1.136-2.56-2.768Zm9.609 3.92h1.488l1.36-4.176c.288-.944.432-1.456.512-1.84.08.432.24 1.04.496 1.824l1.36 4.192h1.424l2.672-7.824h-1.568l-1.312 4.064a16.136 16.136 0 0 0-.496 1.856 26.294 26.294 0 0 0-.512-1.856l-1.296-4.064h-1.536l-1.312 4.064a13.244 13.244 0 0 0-.512 1.856 20.734 20.734 0 0 0-.48-1.856l-1.296-4.064h-1.552l2.56 7.824Zm12.106 0v-4.144c0-1.52.816-2.528 2.224-2.528 1.152 0 1.888.64 1.888 2.224V355h1.504v-4.784c0-2-.944-3.264-3.008-3.264-1.104 0-2.096.528-2.592 1.424l-.16-1.2h-1.36V355h1.504Zm9.235 0v-11.776h-1.504V355h1.504Zm1.702-3.92c0 2.416 1.728 4.112 4.08 4.112 2.336 0 4.064-1.696 4.064-4.112 0-2.416-1.728-4.112-4.064-4.112-2.352 0-4.08 1.696-4.08 4.112Zm1.52 0c0-1.632 1.04-2.768 2.56-2.768 1.504 0 2.56 1.136 2.56 2.768s-1.056 2.768-2.56 2.768c-1.52 0-2.56-1.136-2.56-2.768Zm10.577 4.112c1.264 0 2.336-.56 2.736-1.456l.16 1.264h1.28v-4.912c0-2.112-1.312-3.136-3.248-3.136-2.016 0-3.36 1.072-3.36 2.704h1.312c0-.944.72-1.504 1.984-1.504 1.056 0 1.84.464 1.84 1.776v.224l-2.464.192c-1.84.144-2.912 1.04-2.912 2.48 0 1.424.992 2.368 2.672 2.368Zm.432-1.168c-.976 0-1.584-.416-1.584-1.248 0-.768.544-1.28 1.872-1.408l2-.16v.416c0 1.472-.864 2.4-2.288 2.4Zm8.962 1.168c1.249 0 2.305-.544 2.817-1.616l.128 1.424h1.344v-11.776h-1.488v5.216c-.528-.96-1.536-1.488-2.736-1.488-2.32 0-3.712 1.76-3.712 4.16 0 2.384 1.376 4.08 3.647 4.08Zm.305-1.36c-1.536 0-2.432-1.152-2.432-2.768 0-1.6.896-2.752 2.432-2.752s2.48 1.152 2.48 2.752c0 1.632-.944 2.768-2.48 2.768Zm12.352-10.4h-1.568V355h1.568v-11.568ZM242.389 355v-4.144c0-1.52.816-2.528 2.224-2.528 1.152 0 1.888.64 1.888 2.224V355h1.504v-4.784c0-2-.944-3.264-3.008-3.264-1.104 0-2.096.528-2.592 1.424l-.16-1.2h-1.36V355h1.504Zm9.735 0h1.488l3.264-7.824h-1.568l-1.744 4.368c-.272.688-.528 1.36-.656 1.872-.128-.48-.352-1.136-.624-1.872l-1.712-4.368h-1.6l3.152 7.824Zm5.077-3.92c0 2.416 1.728 4.112 4.08 4.112 2.336 0 4.064-1.696 4.064-4.112 0-2.416-1.728-4.112-4.064-4.112-2.352 0-4.08 1.696-4.08 4.112Zm1.52 0c0-1.632 1.04-2.768 2.56-2.768 1.504 0 2.56 1.136 2.56 2.768s-1.056 2.768-2.56 2.768c-1.52 0-2.56-1.136-2.56-2.768Zm9.025-5.76a.997.997 0 0 0 .992-.992.987.987 0 0 0-.992-.992.987.987 0 0 0-.992.992c0 .544.448.992.992.992Zm-.736 9.68h1.504v-7.824h-1.504V355Zm3.175-3.904c0 2.464 1.52 4.096 3.824 4.096 1.888 0 3.344-1.136 3.648-2.832h-1.504c-.272.928-1.072 1.488-2.144 1.488-1.424 0-2.336-1.088-2.336-2.768 0-1.696.976-2.784 2.4-2.784 1.008 0 1.808.528 2.064 1.52h1.504c-.272-1.744-1.648-2.864-3.616-2.864-2.288 0-3.84 1.696-3.84 4.144Zm12.435 4.096c1.936 0 3.248-.944 3.632-2.624h-1.408c-.256.896-1.024 1.376-2.192 1.376-1.488 0-2.352-.912-2.464-2.56l6.048-.016v-.56c0-2.32-1.456-3.856-3.68-3.856-2.272 0-3.824 1.696-3.824 4.144 0 2.432 1.584 4.096 3.888 4.096Zm-.064-6.976c1.328 0 2.176.864 2.176 2.16h-4.512c.192-1.376 1.024-2.16 2.336-2.16Z" fill="#000"/>
    <rect x="1.5" y="1.5" width="691" height="529" rx="38.5" stroke="url(#c)" stroke-width="3"/>
    <rect x="1.5" y="1.5" width="691" height="529" rx="38.5" stroke="url(#d)" stroke-width="3"/>
    <rect x="1.5" y="1.5" width="691" height="529" rx="38.5" stroke="url(#e)" stroke-width="3"/>
  </g>
  <circle cx="73" cy="109" r="19" fill="#D9D9D9"/>
  <circle cx="73" cy="348" r="19" fill="#D9D9D9"/>
  <circle cx="624" cy="249" r="19" fill="#D9D9D9"/>
  <circle cx="624" cy="420" r="19" fill="#D9D9D9"/>
  <g filter="url(#f)">
    <rect x="440" y="227" width="155" height="43" rx="19" fill="url(#g)" fill-opacity=".8"/>
    <path d="M467.14 256h1.728l3.186-10.296 3.15 10.296h1.692l3.924-13.014h-1.8l-2.394 7.974c-.18.576-.36 1.242-.576 2.34a23.497 23.497 0 0 0-.594-2.358l-2.448-7.956H471.1l-2.466 7.956c-.198.684-.396 1.314-.612 2.358-.18-.99-.36-1.674-.54-2.358l-2.376-7.956h-1.836L467.14 256Zm16-10.89c.612 0 1.116-.504 1.116-1.116a1.11 1.11 0 0 0-1.116-1.116 1.11 1.11 0 0 0-1.116 1.116c0 .612.504 1.116 1.116 1.116Zm-.828 10.89h1.692v-8.802h-1.692V256Zm5.876 0v-13.248h-1.692V256h1.692Zm4.219 0v-13.248h-1.692V256h1.692Zm8.943 0 .126-1.602c.576 1.206 1.746 1.818 3.132 1.818 2.556 0 4.14-1.908 4.14-4.572 0-2.718-1.512-4.698-4.032-4.698-1.44 0-2.628.612-3.204 1.764v-5.958h-1.692V256h1.53Zm.18-4.428c0-1.8 1.044-3.096 2.772-3.096 1.728 0 2.754 1.296 2.754 3.096 0 1.818-1.026 3.114-2.754 3.114s-2.772-1.278-2.772-3.114Zm12.881 4.644c2.178 0 3.654-1.062 4.086-2.952h-1.584c-.288 1.008-1.152 1.548-2.466 1.548-1.674 0-2.646-1.026-2.772-2.88l6.804-.018v-.63c0-2.61-1.638-4.338-4.14-4.338-2.556 0-4.302 1.908-4.302 4.662 0 2.736 1.782 4.608 4.374 4.608Zm-.072-7.848c1.494 0 2.448.972 2.448 2.43h-5.076c.216-1.548 1.152-2.43 2.628-2.43ZM527.774 256v-7.38h1.728v-1.422h-1.728v-2.754h-1.692v2.754h-1.728v1.422h1.728V256h1.692Zm4.939-.018v-4.788c0-1.512.882-2.7 2.52-2.7 1.26 0 2.106.72 2.106 2.502V256h1.692v-5.382c0-2.25-1.08-3.672-3.33-3.672-1.368 0-2.43.648-2.988 1.602v-5.796h-1.692v13.23h1.692Zm12.459.234c2.178 0 3.654-1.062 4.086-2.952h-1.584c-.288 1.008-1.152 1.548-2.466 1.548-1.674 0-2.646-1.026-2.772-2.88l6.804-.018v-.63c0-2.61-1.638-4.338-4.14-4.338-2.556 0-4.302 1.908-4.302 4.662 0 2.736 1.782 4.608 4.374 4.608Zm-.072-7.848c1.494 0 2.448.972 2.448 2.43h-5.076c.216-1.548 1.152-2.43 2.628-2.43Zm11.07-1.242a4.083 4.083 0 0 0-.9-.108c-1.206 0-2.088.612-2.448 1.53l-.108-1.332h-1.584V256h1.692v-4.662c0-1.692.99-2.664 2.592-2.664h.756v-1.548Zm5.069 9.09c2.178 0 3.654-1.062 4.086-2.952h-1.584c-.288 1.008-1.152 1.548-2.466 1.548-1.674 0-2.646-1.026-2.772-2.88l6.804-.018v-.63c0-2.61-1.638-4.338-4.14-4.338-2.556 0-4.302 1.908-4.302 4.662 0 2.736 1.782 4.608 4.374 4.608Zm-.072-7.848c1.494 0 2.448.972 2.448 2.43h-5.076c.216-1.548 1.152-2.43 2.628-2.43Zm8.1 3.726c.18-1.332.324-3.708.324-6.084v-3.024h-1.944v3.024c0 2.34.126 4.734.306 6.084h1.314Zm-.648 4.158c.684 0 1.278-.576 1.278-1.278 0-.702-.594-1.278-1.278-1.278-.72 0-1.296.576-1.296 1.278 0 .702.576 1.278 1.296 1.278Z" fill="#fff"/>
    <rect x="441" y="228" width="153" height="41" rx="18" stroke="url(#h)" stroke-width="2"/>
    <rect x="441" y="228" width="153" height="41" rx="18" stroke="url(#i)" stroke-width="2"/>
    <rect x="441" y="228" width="153" height="41" rx="18" stroke="url(#j)" stroke-width="2"/>
  </g>
  <g filter="url(#k)">
    <rect x="391" y="401" width="204" height="101" rx="19" fill="url(#l)" fill-opacity=".8"/>
    <path d="m443.197 432 1.152-3.24h5.472l1.17 3.24h1.854l-4.77-13.014h-1.962L441.361 432h1.836Zm3.672-10.206c.09-.27.18-.576.216-.756.036.198.126.504.216.756l1.998 5.436h-4.41l1.98-5.436Zm9.11 10.206v-5.22c0-1.404.846-2.286 2.124-2.286 1.188 0 1.944.756 1.944 2.142V432h1.674v-5.22c0-1.404.845-2.304 2.124-2.304 1.188 0 1.962.792 1.962 2.178V432h1.656v-5.76c0-2.034-1.224-3.294-3.24-3.294-1.368 0-2.43.684-2.844 1.782-.45-1.098-1.422-1.782-2.79-1.782-1.242 0-2.178.576-2.628 1.404l-.162-1.152h-1.512V432h1.692Zm16.403.216c1.422 0 2.628-.63 3.078-1.638l.18 1.422h1.44v-5.526c0-2.376-1.476-3.528-3.654-3.528-2.268 0-3.78 1.206-3.78 3.042h1.476c0-1.062.81-1.692 2.232-1.692 1.188 0 2.07.522 2.07 1.998v.252l-2.772.216c-2.07.162-3.276 1.17-3.276 2.79 0 1.602 1.116 2.664 3.006 2.664Zm.486-1.314c-1.098 0-1.782-.468-1.782-1.404 0-.864.612-1.44 2.106-1.584l2.25-.18v.468c0 1.656-.972 2.7-2.574 2.7ZM485.741 432v-1.422h-4.788l4.788-5.994v-1.386h-6.858v1.422h4.752l-4.752 6.012V432h6.858Zm2.737-10.89c.612 0 1.116-.504 1.116-1.116a1.11 1.11 0 0 0-1.116-1.116 1.11 1.11 0 0 0-1.116 1.116c0 .612.504 1.116 1.116 1.116ZM487.65 432h1.692v-8.802h-1.692V432Zm5.84 0v-4.662c0-1.71.918-2.844 2.502-2.844 1.296 0 2.124.72 2.124 2.502V432h1.692v-5.382c0-2.25-1.062-3.672-3.384-3.672-1.242 0-2.358.594-2.916 1.602l-.18-1.35h-1.53V432h1.692Zm8.104-4.626c0 2.466 1.584 4.392 4.086 4.392 1.386 0 2.538-.612 3.114-1.638v1.764c0 1.674-1.08 2.754-2.736 2.754-1.476 0-2.448-.756-2.664-2.052h-1.692c.324 2.232 1.962 3.582 4.356 3.582 2.7 0 4.41-1.764 4.41-4.536v-8.442h-1.512l-.126 1.494c-.558-1.098-1.656-1.746-3.078-1.746-2.556 0-4.158 1.944-4.158 4.428Zm1.692-.036c0-1.62 1.008-2.916 2.7-2.916 1.728 0 2.736 1.224 2.736 2.916 0 1.728-1.044 2.952-2.754 2.952-1.656 0-2.682-1.296-2.682-2.952Zm13.825 2.106c0 1.674 1.314 2.772 3.384 2.772 2.088 0 3.528-1.062 3.528-2.736 0-1.314-.738-1.998-2.232-2.358l-1.548-.378c-.864-.216-1.296-.612-1.296-1.206 0-.81.594-1.278 1.656-1.278 1.026 0 1.62.558 1.656 1.44h1.62c-.036-1.674-1.296-2.754-3.222-2.754-1.944 0-3.312 1.026-3.312 2.646 0 1.296.738 2.07 2.304 2.448l1.548.36c.918.234 1.206.594 1.206 1.188 0 .81-.684 1.296-1.872 1.296-1.116 0-1.8-.54-1.8-1.44h-1.62Zm12.587 2.772c2.178 0 3.654-1.062 4.086-2.952H532.2c-.288 1.008-1.152 1.548-2.466 1.548-1.674 0-2.646-1.026-2.772-2.88l6.804-.018v-.63c0-2.61-1.638-4.338-4.14-4.338-2.556 0-4.302 1.908-4.302 4.662 0 2.736 1.782 4.608 4.374 4.608Zm-.072-7.848c1.494 0 2.448.972 2.448 2.43h-5.076c.216-1.548 1.152-2.43 2.628-2.43Zm11.07-1.242a4.083 4.083 0 0 0-.9-.108c-1.206 0-2.088.612-2.448 1.53l-.108-1.332h-1.584V432h1.692v-4.662c0-1.692.99-2.664 2.592-2.664h.756v-1.548Zm4.316 8.874h1.674l3.672-8.802h-1.764l-1.962 4.914c-.306.774-.594 1.53-.738 2.106-.144-.54-.396-1.278-.702-2.106l-1.926-4.914h-1.8l3.546 8.802Zm7.52-10.89c.612 0 1.116-.504 1.116-1.116a1.11 1.11 0 0 0-1.116-1.116 1.11 1.11 0 0 0-1.116 1.116c0 .612.504 1.116 1.116 1.116Zm-.828 10.89h1.692v-8.802h-1.692V432Zm3.573-4.392c0 2.772 1.71 4.608 4.302 4.608 2.124 0 3.762-1.278 4.104-3.186h-1.692c-.306 1.044-1.206 1.674-2.412 1.674-1.602 0-2.628-1.224-2.628-3.114 0-1.908 1.098-3.132 2.7-3.132 1.134 0 2.034.594 2.322 1.71h1.692c-.306-1.962-1.854-3.222-4.068-3.222-2.574 0-4.32 1.908-4.32 4.662Zm13.989 4.608c2.178 0 3.654-1.062 4.086-2.952h-1.584c-.288 1.008-1.152 1.548-2.466 1.548-1.674 0-2.646-1.026-2.772-2.88l6.804-.018v-.63c0-2.61-1.638-4.338-4.14-4.338-2.556 0-4.302 1.908-4.302 4.662 0 2.736 1.782 4.608 4.374 4.608Zm-.072-7.848c1.494 0 2.448.972 2.448 2.43h-5.076c.216-1.548 1.152-2.43 2.628-2.43ZM409.731 456v-7.38h1.728v-1.422h-1.728v-2.754h-1.692v2.754h-1.728v1.422h1.728V456h1.692Zm2.583-4.41c0 2.718 1.944 4.626 4.59 4.626 2.628 0 4.572-1.908 4.572-4.626 0-2.718-1.944-4.626-4.572-4.626-2.646 0-4.59 1.908-4.59 4.626Zm1.71 0c0-1.836 1.17-3.114 2.88-3.114 1.692 0 2.88 1.278 2.88 3.114 0 1.836-1.188 3.114-2.88 3.114-1.71 0-2.88-1.278-2.88-3.114Zm12.853 4.626c1.404 0 2.592-.612 3.168-1.818l.144 1.602h1.512v-13.248h-1.674v5.868c-.594-1.08-1.728-1.674-3.078-1.674-2.61 0-4.176 1.98-4.176 4.68 0 2.682 1.548 4.59 4.104 4.59Zm.342-1.53c-1.728 0-2.736-1.296-2.736-3.114 0-1.8 1.008-3.096 2.736-3.096 1.728 0 2.79 1.296 2.79 3.096 0 1.836-1.062 3.114-2.79 3.114Zm9.497 1.53c1.422 0 2.628-.63 3.078-1.638l.18 1.422h1.44v-5.526c0-2.376-1.476-3.528-3.654-3.528-2.268 0-3.78 1.206-3.78 3.042h1.476c0-1.062.81-1.692 2.232-1.692 1.188 0 2.07.522 2.07 1.998v.252l-2.772.216c-2.07.162-3.276 1.17-3.276 2.79 0 1.602 1.116 2.664 3.006 2.664Zm.486-1.314c-1.098 0-1.782-.468-1.782-1.404 0-.864.612-1.44 2.106-1.584l2.25-.18v.468c0 1.656-.972 2.7-2.574 2.7Zm5.498 5.04c.45.108.918.18 1.476.18 1.35 0 2.232-.63 2.826-2.142l4.158-10.782h-1.746l-2.61 7.092-2.556-7.092h-1.782l3.546 9.27-.306.846c-.414 1.116-1.062 1.242-1.872 1.242H442.7v1.386Zm9.577-3.726c.684 0 1.278-.576 1.278-1.26 0-.702-.594-1.278-1.278-1.278-.702 0-1.296.576-1.296 1.278 0 .684.594 1.26 1.296 1.26Zm10.688-13.23h-1.764V456h1.764v-13.014Zm5.123 1.314c0-.972-.576-1.566-1.296-1.566-.72 0-1.188.504-1.188 1.188 0 .702.468 1.098 1.008 1.098.216 0 .378-.036.504-.108 0 .576-.504 1.044-1.206 1.17v.756c1.26-.162 2.178-1.224 2.178-2.538Zm4.801 11.7h1.674l3.672-8.802h-1.764l-1.962 4.914c-.306.774-.594 1.53-.738 2.106-.144-.54-.396-1.278-.702-2.106l-1.926-4.914h-1.8l3.546 8.802Zm10.086.216c2.178 0 3.654-1.062 4.086-2.952h-1.584c-.288 1.008-1.152 1.548-2.466 1.548-1.674 0-2.646-1.026-2.772-2.88l6.804-.018v-.63c0-2.61-1.638-4.338-4.14-4.338-2.556 0-4.302 1.908-4.302 4.662 0 2.736 1.782 4.608 4.374 4.608Zm-.072-7.848c1.494 0 2.448.972 2.448 2.43h-5.076c.216-1.548 1.152-2.43 2.628-2.43ZM495.547 456v-5.22c0-1.404.846-2.286 2.124-2.286 1.188 0 1.944.756 1.944 2.142V456h1.674v-5.22c0-1.404.846-2.304 2.124-2.304 1.188 0 1.962.792 1.962 2.178V456h1.656v-5.76c0-2.034-1.224-3.294-3.24-3.294-1.368 0-2.43.684-2.844 1.782-.45-1.098-1.422-1.782-2.79-1.782-1.242 0-2.178.576-2.628 1.404l-.162-1.152h-1.512V456h1.692Zm16.403.216c1.422 0 2.628-.63 3.078-1.638l.18 1.422h1.44v-5.526c0-2.376-1.476-3.528-3.654-3.528-2.268 0-3.78 1.206-3.78 3.042h1.476c0-1.062.81-1.692 2.232-1.692 1.188 0 2.07.522 2.07 1.998v.252l-2.772.216c-2.07.162-3.276 1.17-3.276 2.79 0 1.602 1.116 2.664 3.006 2.664Zm.486-1.314c-1.098 0-1.782-.468-1.782-1.404 0-.864.612-1.44 2.106-1.584l2.25-.18v.468c0 1.656-.972 2.7-2.574 2.7Zm10.084 1.314c1.404 0 2.592-.612 3.168-1.818l.144 1.602h1.512v-13.248h-1.674v5.868c-.594-1.08-1.728-1.674-3.078-1.674-2.61 0-4.176 1.98-4.176 4.68 0 2.682 1.548 4.59 4.104 4.59Zm.342-1.53c-1.728 0-2.736-1.296-2.736-3.114 0-1.8 1.008-3.096 2.736-3.096 1.728 0 2.79 1.296 2.79 3.096 0 1.836-1.062 3.114-2.79 3.114Zm10.721 1.53c2.178 0 3.654-1.062 4.086-2.952h-1.584c-.288 1.008-1.152 1.548-2.466 1.548-1.674 0-2.646-1.026-2.772-2.88l6.804-.018v-.63c0-2.61-1.638-4.338-4.14-4.338-2.556 0-4.302 1.908-4.302 4.662 0 2.736 1.782 4.608 4.374 4.608Zm-.072-7.848c1.494 0 2.448.972 2.448 2.43h-5.076c.216-1.548 1.152-2.43 2.628-2.43ZM546.946 456v-7.38h1.728v-1.422h-1.728v-2.754h-1.692v2.754h-1.728v1.422h1.728V456h1.692Zm4.939-.018v-4.788c0-1.512.882-2.7 2.52-2.7 1.26 0 2.106.72 2.106 2.502V456h1.692v-5.382c0-2.25-1.08-3.672-3.33-3.672-1.368 0-2.43.648-2.988 1.602v-5.796h-1.692v13.23h1.692Zm12.459.234c2.178 0 3.654-1.062 4.086-2.952h-1.584c-.288 1.008-1.152 1.548-2.466 1.548-1.674 0-2.646-1.026-2.772-2.88l6.804-.018v-.63c0-2.61-1.638-4.338-4.14-4.338-2.556 0-4.302 1.908-4.302 4.662 0 2.736 1.782 4.608 4.374 4.608Zm-.072-7.848c1.494 0 2.448.972 2.448 2.43h-5.076c.216-1.548 1.152-2.43 2.628-2.43Zm-59.571 35.574h1.692v-5.382c.576 1.08 1.746 1.674 3.15 1.674 2.61 0 4.086-2.016 4.086-4.698 0-2.7-1.566-4.59-4.086-4.59-1.404 0-2.592.63-3.186 1.836l-.126-1.584h-1.53v12.744Zm1.71-8.334c0-1.836 1.044-3.114 2.772-3.114 1.728 0 2.754 1.296 2.754 3.114 0 1.8-1.026 3.096-2.754 3.096s-2.772-1.296-2.772-3.096Zm11.657 4.608c1.422 0 2.628-.63 3.078-1.638l.18 1.422h1.44v-5.526c0-2.376-1.476-3.528-3.654-3.528-2.268 0-3.78 1.206-3.78 3.042h1.476c0-1.062.81-1.692 2.232-1.692 1.188 0 2.07.522 2.07 1.998v.252l-2.772.216c-2.07.162-3.276 1.17-3.276 2.79 0 1.602 1.116 2.664 3.006 2.664Zm.486-1.314c-1.098 0-1.782-.468-1.782-1.404 0-.864.612-1.44 2.106-1.584l2.25-.18v.468c0 1.656-.972 2.7-2.574 2.7Zm5.498 5.04c.45.108.918.18 1.476.18 1.35 0 2.232-.63 2.826-2.142l4.158-10.782h-1.746l-2.61 7.092-2.556-7.092h-1.782l3.546 9.27-.306.846c-.414 1.116-1.062 1.242-1.872 1.242h-1.134v1.386ZM535.555 480v-5.22c0-1.404.846-2.286 2.124-2.286 1.188 0 1.944.756 1.944 2.142V480h1.674v-5.22c0-1.404.846-2.304 2.124-2.304 1.188 0 1.962.792 1.962 2.178V480h1.656v-5.76c0-2.034-1.224-3.294-3.24-3.294-1.368 0-2.43.684-2.844 1.782-.45-1.098-1.422-1.782-2.79-1.782-1.242 0-2.178.576-2.628 1.404l-.162-1.152h-1.512V480h1.692Zm17.627.216c2.178 0 3.654-1.062 4.086-2.952h-1.584c-.288 1.008-1.152 1.548-2.466 1.548-1.674 0-2.646-1.026-2.772-2.88l6.804-.018v-.63c0-2.61-1.638-4.338-4.14-4.338-2.556 0-4.302 1.908-4.302 4.662 0 2.736 1.782 4.608 4.374 4.608Zm-.072-7.848c1.494 0 2.448.972 2.448 2.43h-5.076c.216-1.548 1.152-2.43 2.628-2.43Zm7.722 7.632v-4.662c0-1.71.918-2.844 2.502-2.844 1.296 0 2.124.72 2.124 2.502V480h1.692v-5.382c0-2.25-1.062-3.672-3.384-3.672-1.242 0-2.358.594-2.916 1.602l-.18-1.35h-1.53V480h1.692Zm11.146 0v-7.38h1.728v-1.422h-1.728v-2.754h-1.692v2.754h-1.728v1.422h1.728V480h1.692Z" fill="#fff"/>
    <rect x="392" y="402" width="202" height="99" rx="18" stroke="url(#m)" stroke-width="2"/>
    <rect x="392" y="402" width="202" height="99" rx="18" stroke="url(#n)" stroke-width="2"/>
    <rect x="392" y="402" width="202" height="99" rx="18" stroke="url(#o)" stroke-width="2"/>
  </g>
  <path d="M312.992 296.84V307h1.504v-11.568h-3.936v1.408h2.432Zm11.38 10.144v-1.456h-5.344l2.4-2.08c2.048-1.776 2.864-2.944 2.864-4.592 0-2.224-1.488-3.632-3.808-3.632-2.352 0-3.92 1.616-3.968 4.096h1.568c.032-1.648.96-2.688 2.384-2.688 1.392 0 2.224.864 2.224 2.32 0 1.232-.528 2.016-2.4 3.632l-3.728 3.216v1.2l7.808-.016Zm3.027-5.792c.608 0 1.136-.512 1.136-1.104a1.15 1.15 0 0 0-1.136-1.136c-.624 0-1.152.512-1.152 1.136 0 .592.528 1.104 1.152 1.104Zm0 6c.608 0 1.136-.512 1.136-1.12a1.15 1.15 0 0 0-1.136-1.136c-.624 0-1.152.512-1.152 1.136 0 .608.528 1.12 1.152 1.12Zm3.151-5.968c0 3.6 1.776 5.984 4.768 5.984 2.976 0 4.752-2.384 4.752-5.984 0-3.584-1.856-6.016-4.752-6.016-2.912 0-4.768 2.432-4.768 6.016Zm1.552 0c0-2.88 1.184-4.608 3.216-4.608s3.2 1.728 3.2 4.608c0 2.848-1.168 4.576-3.2 4.576s-3.216-1.728-3.216-4.576Zm9.541 0c0 3.6 1.776 5.984 4.768 5.984 2.976 0 4.752-2.384 4.752-5.984 0-3.584-1.856-6.016-4.752-6.016-2.912 0-4.768 2.432-4.768 6.016Zm1.552 0c0-2.88 1.184-4.608 3.216-4.608s3.2 1.728 3.2 4.608c0 2.848-1.168 4.576-3.2 4.576s-3.216-1.728-3.216-4.576Zm14.598 1.648c2.256 0 3.728-1.568 3.728-3.728 0-2.224-1.456-3.712-3.728-3.712h-4.496V307h1.568v-4.128h2.928Zm-.272-6.032c1.472 0 2.352.832 2.352 2.288 0 1.424-.864 2.336-2.416 2.336h-2.592v-4.624h2.656Zm7.312 10.16v-4.944c0-1.616-.032-2.8-.112-3.36l3.36 8.304h1.472l3.376-8.336c-.08.816-.096 1.6-.096 3.76V307h1.536v-11.568h-1.568l-3.984 9.728-3.984-9.728h-1.536V307h1.536Z" fill="#fff"/>
  <rect x="279" y="34" width="136" height="40" rx="20" fill="#FFD282"/>
  <path d="M301.523 57.889v.778a2.338 2.338 0 0 0 .683 1.65 2.336 2.336 0 0 0 3.3 0 2.338 2.338 0 0 0 .683-1.65v-.778M310.078 57.889s-1.556-3.889-1.556-6.222c0-2.542-2.124-4.667-4.666-4.667-2.542 0-4.667 2.125-4.667 4.667 0 3.11-1.555 6.222-1.555 6.222h12.444Z" stroke="#000" stroke-width="2" stroke-linecap="round" stroke-linejoin="round"/>
  <path d="M323.422 60v-4.368h2.512L327.918 60h2.24l-2.224-4.8c1.376-.56 2.112-1.68 2.112-3.248 0-2.304-1.552-3.648-4.208-3.648h-4.464V60h2.048Zm0-9.872h2.416c1.296 0 2.064.656 2.064 1.824 0 1.184-.768 1.872-2.064 1.872h-2.416v-3.696Zm11.356 10.08c2.064 0 3.504-1.04 3.84-2.768h-1.808c-.224.752-.928 1.168-2 1.168-1.296 0-2.032-.704-2.176-2.096l5.952-.016v-.592c0-2.464-1.504-4.048-3.872-4.048-2.32 0-3.936 1.712-3.936 4.192 0 2.448 1.648 4.16 4 4.16Zm-.048-6.752c1.168 0 1.92.72 1.92 1.808h-3.968c.192-1.184.896-1.808 2.048-1.808ZM342.1 60v-4.48c0-1.28.752-1.888 1.68-1.888.928 0 1.52.592 1.52 1.696V60h1.952v-4.48c0-1.296.72-1.904 1.664-1.904.928 0 1.536.592 1.536 1.728V60h1.936v-5.168c0-1.824-1.056-2.976-2.976-2.976-1.2 0-2.128.592-2.528 1.504-.416-.912-1.248-1.504-2.448-1.504-1.136 0-1.936.512-2.336 1.168l-.16-.928h-1.792V60h1.952Zm13.181-9.488c.64 0 1.168-.528 1.168-1.184 0-.656-.528-1.168-1.168-1.168-.672 0-1.2.512-1.2 1.168 0 .656.528 1.184 1.2 1.184ZM354.305 60h1.952v-7.904h-1.952V60Zm5.92 0v-4.256c0-1.28.736-2.112 1.936-2.112 1.008 0 1.664.64 1.664 1.968V60h1.952v-4.864c0-2.048-1.024-3.28-3.008-3.28-1.072 0-2.032.464-2.528 1.264l-.16-1.024h-1.808V60h1.952Zm10.718.208c1.2 0 2.224-.528 2.704-1.44l.128 1.232h1.792V48.096h-1.936v5.008c-.496-.784-1.472-1.248-2.576-1.248-2.384 0-3.824 1.76-3.824 4.224 0 2.448 1.424 4.128 3.712 4.128Zm.432-1.792c-1.36 0-2.192-.992-2.192-2.4s.832-2.416 2.192-2.416c1.36 0 2.24.992 2.24 2.416s-.88 2.4-2.24 2.4Zm9.763 1.792c2.064 0 3.504-1.04 3.84-2.768h-1.808c-.224.752-.928 1.168-2 1.168-1.296 0-2.032-.704-2.176-2.096l5.952-.016v-.592c0-2.464-1.504-4.048-3.872-4.048-2.32 0-3.936 1.712-3.936 4.192 0 2.448 1.648 4.16 4 4.16Zm-.048-6.752c1.168 0 1.92.72 1.92 1.808h-3.968c.192-1.184.896-1.808 2.048-1.808Zm10.378-1.392a3.463 3.463 0 0 0-.864-.112c-1.056 0-1.808.528-2.144 1.312l-.112-1.152h-1.84V60h1.952v-3.84c0-1.536.88-2.288 2.288-2.288h.72v-1.808Zm3.641 4.432c.224-1.232.384-3.376.384-5.504v-2.688h-2.304v2.688c0 2.08.144 4.224.352 5.504h1.568Zm-.768 3.712c.688 0 1.28-.576 1.28-1.264 0-.704-.592-1.28-1.28-1.28-.72 0-1.312.576-1.312 1.28 0 .688.592 1.264 1.312 1.264Z" fill="#000"/>
  <g filter="url(#p)">
    <rect x="103" y="90" width="294" height="101" rx="19" fill="url(#q)" fill-opacity=".8"/>
    <path d="M124.24 124v-5.562c0-1.818-.036-3.15-.126-3.78l3.78 9.342h1.656l3.798-9.378c-.09.918-.108 1.8-.108 4.23V124h1.728v-13.014h-1.764l-4.482 10.944-4.482-10.944h-1.728V124h1.728Zm17.268.216c2.178 0 3.654-1.062 4.086-2.952h-1.584c-.288 1.008-1.152 1.548-2.466 1.548-1.674 0-2.646-1.026-2.772-2.88l6.804-.018v-.63c0-2.61-1.638-4.338-4.14-4.338-2.556 0-4.302 1.908-4.302 4.662 0 2.736 1.782 4.608 4.374 4.608Zm-.072-7.848c1.494 0 2.448.972 2.448 2.43h-5.076c.216-1.548 1.152-2.43 2.628-2.43Zm11.07-1.242a4.083 4.083 0 0 0-.9-.108c-1.206 0-2.088.612-2.448 1.53l-.108-1.332h-1.584V124h1.692v-4.662c0-1.692.99-2.664 2.592-2.664h.756v-1.548Zm.695 4.482c0 2.772 1.71 4.608 4.302 4.608 2.124 0 3.762-1.278 4.104-3.186h-1.692c-.306 1.044-1.206 1.674-2.412 1.674-1.602 0-2.628-1.224-2.628-3.114 0-1.908 1.098-3.132 2.7-3.132 1.134 0 2.034.594 2.322 1.71h1.692c-.306-1.962-1.854-3.222-4.068-3.222-2.574 0-4.32 1.908-4.32 4.662Zm13.989 4.608c2.178 0 3.654-1.062 4.086-2.952h-1.584c-.288 1.008-1.152 1.548-2.466 1.548-1.674 0-2.646-1.026-2.772-2.88l6.804-.018v-.63c0-2.61-1.638-4.338-4.14-4.338-2.556 0-4.302 1.908-4.302 4.662 0 2.736 1.782 4.608 4.374 4.608Zm-.072-7.848c1.494 0 2.448.972 2.448 2.43h-5.076c.216-1.548 1.152-2.43 2.628-2.43Zm9.558 7.848c1.404 0 2.592-.612 3.168-1.818l.144 1.602h1.512v-13.248h-1.674v5.868c-.594-1.08-1.728-1.674-3.078-1.674-2.61 0-4.176 1.98-4.176 4.68 0 2.682 1.548 4.59 4.104 4.59Zm.342-1.53c-1.728 0-2.736-1.296-2.736-3.114 0-1.8 1.008-3.096 2.736-3.096 1.728 0 2.79 1.296 2.79 3.096 0 1.836-1.062 3.114-2.79 3.114Zm10.721 1.53c2.178 0 3.654-1.062 4.086-2.952h-1.584c-.288 1.008-1.152 1.548-2.466 1.548-1.674 0-2.646-1.026-2.772-2.88l6.804-.018v-.63c0-2.61-1.638-4.338-4.14-4.338-2.556 0-4.302 1.908-4.302 4.662 0 2.736 1.782 4.608 4.374 4.608Zm-.072-7.848c1.494 0 2.448.972 2.448 2.43h-5.076c.216-1.548 1.152-2.43 2.628-2.43ZM199.839 124v-1.422h-4.788l4.788-5.994v-1.386h-6.858v1.422h4.752l-4.752 6.012V124h6.858Zm7.118 0h5.148c2.574 0 4.14-1.314 4.14-3.474 0-1.548-.738-2.592-2.178-3.06 1.296-.54 1.944-1.548 1.944-3.042 0-2.142-1.548-3.438-4.086-3.438h-4.968V124Zm4.86-11.448c1.53 0 2.394.738 2.394 2.034 0 1.35-.828 2.142-2.286 2.142h-3.204v-4.176h3.096Zm.252 5.706c1.494 0 2.358.756 2.358 2.052 0 1.35-.846 2.124-2.358 2.124h-3.348v-4.176h3.348Zm9.894 5.958c2.178 0 3.654-1.062 4.086-2.952h-1.584c-.288 1.008-1.152 1.548-2.466 1.548-1.674 0-2.646-1.026-2.772-2.88l6.804-.018v-.63c0-2.61-1.638-4.338-4.14-4.338-2.556 0-4.302 1.908-4.302 4.662 0 2.736 1.782 4.608 4.374 4.608Zm-.072-7.848c1.494 0 2.448.972 2.448 2.43h-5.076c.216-1.548 1.152-2.43 2.628-2.43Zm7.722 7.632v-4.662c0-1.71.918-2.844 2.502-2.844 1.296 0 2.124.72 2.124 2.502V124h1.692v-5.382c0-2.25-1.062-3.672-3.384-3.672-1.242 0-2.358.594-2.916 1.602l-.18-1.35h-1.53V124h1.692Zm14.98 0v-1.422h-4.788l4.788-5.994v-1.386h-6.858v1.422h4.752l-4.752 6.012V124h6.858Zm12.518.198c2.934 0 5.256-1.728 5.814-4.32h-1.872c-.486 1.602-1.998 2.628-3.906 2.628-2.628 0-4.356-1.98-4.356-5.022 0-3.042 1.728-5.022 4.356-5.022 1.89 0 3.348 1.026 3.834 2.718h1.89c-.486-2.664-2.736-4.41-5.67-4.41-3.726 0-6.264 2.718-6.264 6.732 0 4.032 2.466 6.696 6.174 6.696Zm11.073-6.93c2.07 0 3.15 1.044 3.15 2.61 0 1.674-1.098 2.754-2.79 2.754-1.638 0-2.682-.99-2.682-2.682h-1.746c0 2.7 1.836 4.266 4.392 4.266 2.646 0 4.626-1.674 4.626-4.302 0-2.34-1.674-3.834-3.888-4.104l3.564-3.402v-1.422h-8.082v1.566h5.85l-3.69 3.546v1.17h1.296Zm6.505.234c0 4.05 1.998 6.732 5.364 6.732 3.348 0 5.346-2.682 5.346-6.732 0-4.032-2.088-6.768-5.346-6.768-3.276 0-5.364 2.736-5.364 6.768Zm1.746 0c0-3.24 1.332-5.184 3.618-5.184 2.286 0 3.6 1.944 3.6 5.184 0 3.204-1.314 5.148-3.6 5.148s-3.618-1.944-3.618-5.148Zm10.734 0c0 4.05 1.998 6.732 5.364 6.732 3.348 0 5.346-2.682 5.346-6.732 0-4.032-2.088-6.768-5.346-6.768-3.276 0-5.364 2.736-5.364 6.768Zm1.746 0c0-3.24 1.332-5.184 3.618-5.184 2.286 0 3.6 1.944 3.6 5.184 0 3.204-1.314 5.148-3.6 5.148s-3.618-1.944-3.618-5.148Zm15.53-3.006c0 1.872 1.098 3.096 3.222 3.582l2.142.486c1.242.288 1.8.936 1.8 1.962 0 1.296-1.098 2.106-2.826 2.106-1.638 0-2.682-.792-2.718-2.034h-1.8c.108 2.232 1.872 3.618 4.518 3.618 2.772 0 4.59-1.494 4.59-3.834 0-1.836-1.08-2.988-3.204-3.474l-2.142-.504c-1.224-.288-1.818-.918-1.818-1.962 0-1.278 1.062-2.106 2.7-2.106 1.458 0 2.376.756 2.466 2.052h1.782c-.144-2.25-1.746-3.636-4.23-3.636-2.682 0-4.482 1.512-4.482 3.744Zm14.655 9.72c2.178 0 3.654-1.062 4.086-2.952h-1.584c-.288 1.008-1.152 1.548-2.466 1.548-1.674 0-2.646-1.026-2.772-2.88l6.804-.018v-.63c0-2.61-1.638-4.338-4.14-4.338-2.556 0-4.302 1.908-4.302 4.662 0 2.736 1.782 4.608 4.374 4.608Zm-.072-7.848c1.494 0 2.448.972 2.448 2.43H316.4c.216-1.548 1.152-2.43 2.628-2.43Zm11.07-1.242a4.083 4.083 0 0 0-.9-.108c-1.206 0-2.088.612-2.448 1.53l-.108-1.332h-1.584V124h1.692v-4.662c0-1.692.99-2.664 2.592-2.664h.756v-1.548Zm4.317 8.874h1.674l3.672-8.802h-1.764l-1.962 4.914c-.306.774-.594 1.53-.738 2.106-.144-.54-.396-1.278-.702-2.106l-1.926-4.914h-1.8l3.546 8.802Zm7.52-10.89c.612 0 1.116-.504 1.116-1.116a1.11 1.11 0 0 0-1.116-1.116 1.11 1.11 0 0 0-1.116 1.116c0 .612.504 1.116 1.116 1.116Zm-.828 10.89h1.692v-8.802h-1.692V124Zm3.572-4.392c0 2.772 1.71 4.608 4.302 4.608 2.124 0 3.762-1.278 4.104-3.186h-1.692c-.306 1.044-1.206 1.674-2.412 1.674-1.602 0-2.628-1.224-2.628-3.114 0-1.908 1.098-3.132 2.7-3.132 1.134 0 2.034.594 2.322 1.71h1.692c-.306-1.962-1.854-3.222-4.068-3.222-2.574 0-4.32 1.908-4.32 4.662Zm11.019-6.498c.612 0 1.116-.504 1.116-1.116a1.11 1.11 0 0 0-1.116-1.116 1.11 1.11 0 0 0-1.116 1.116c0 .612.504 1.116 1.116 1.116ZM354.87 124h1.692v-8.802h-1.692V124Zm5.841 0v-4.662c0-1.71.918-2.844 2.502-2.844 1.296 0 2.124.72 2.124 2.502V124h1.692v-5.382c0-2.25-1.062-3.672-3.384-3.672-1.242 0-2.358.594-2.916 1.602l-.18-1.35h-1.53V124h1.692Zm8.103-4.626c0 2.466 1.584 4.392 4.086 4.392 1.386 0 2.538-.612 3.114-1.638v1.764c0 1.674-1.08 2.754-2.736 2.754-1.476 0-2.448-.756-2.664-2.052h-1.692c.324 2.232 1.962 3.582 4.356 3.582 2.7 0 4.41-1.764 4.41-4.536v-8.442h-1.512l-.126 1.494c-.558-1.098-1.656-1.746-3.078-1.746-2.556 0-4.158 1.944-4.158 4.428Zm1.692-.036c0-1.62 1.008-2.916 2.7-2.916 1.728 0 2.736 1.224 2.736 2.916 0 1.728-1.044 2.952-2.754 2.952-1.656 0-2.682-1.296-2.682-2.952ZM124.708 148v-7.38h1.728v-1.422h-1.728v-2.754h-1.692v2.754h-1.728v1.422h1.728V148h1.692Zm2.583-4.41c0 2.718 1.944 4.626 4.59 4.626 2.628 0 4.572-1.908 4.572-4.626 0-2.718-1.944-4.626-4.572-4.626-2.646 0-4.59 1.908-4.59 4.626Zm1.71 0c0-1.836 1.17-3.114 2.88-3.114 1.692 0 2.88 1.278 2.88 3.114 0 1.836-1.188 3.114-2.88 3.114-1.71 0-2.88-1.278-2.88-3.114Zm12.853 4.626c1.404 0 2.592-.612 3.168-1.818l.144 1.602h1.512v-13.248h-1.674v5.868c-.594-1.08-1.728-1.674-3.078-1.674-2.61 0-4.176 1.98-4.176 4.68 0 2.682 1.548 4.59 4.104 4.59Zm.342-1.53c-1.728 0-2.736-1.296-2.736-3.114 0-1.8 1.008-3.096 2.736-3.096 1.728 0 2.79 1.296 2.79 3.096 0 1.836-1.062 3.114-2.79 3.114Zm9.497 1.53c1.422 0 2.628-.63 3.078-1.638l.18 1.422h1.44v-5.526c0-2.376-1.476-3.528-3.654-3.528-2.268 0-3.78 1.206-3.78 3.042h1.476c0-1.062.81-1.692 2.232-1.692 1.188 0 2.07.522 2.07 1.998v.252l-2.772.216c-2.07.162-3.276 1.17-3.276 2.79 0 1.602 1.116 2.664 3.006 2.664Zm.486-1.314c-1.098 0-1.782-.468-1.782-1.404 0-.864.612-1.44 2.106-1.584l2.25-.18v.468c0 1.656-.972 2.7-2.574 2.7Zm5.498 5.04c.45.108.918.18 1.476.18 1.35 0 2.232-.63 2.826-2.142l4.158-10.782h-1.746l-2.61 7.092-2.556-7.092h-1.782l3.546 9.27-.306.846c-.414 1.116-1.062 1.242-1.872 1.242h-1.134v1.386ZM178.861 148l.126-1.602c.576 1.206 1.746 1.818 3.132 1.818 2.556 0 4.14-1.908 4.14-4.572 0-2.718-1.512-4.698-4.032-4.698-1.44 0-2.628.612-3.204 1.764v-5.958h-1.692V148h1.53Zm.18-4.428c0-1.8 1.044-3.096 2.772-3.096 1.728 0 2.754 1.296 2.754 3.096 0 1.818-1.026 3.114-2.754 3.114s-2.772-1.278-2.772-3.114Zm7.939 8.37c.45.108.918.18 1.476.18 1.35 0 2.232-.63 2.826-2.142l4.158-10.782h-1.746l-2.61 7.092-2.556-7.092h-1.782l3.546 9.27-.306.846c-.414 1.116-1.062 1.242-1.872 1.242h-1.134v1.386Zm21.968-8.064c1.332-1.818 1.8-2.916 1.8-4.446 0-2.646-2.088-4.68-4.788-4.68-2.682 0-4.734 1.962-4.734 4.662 0 2.592 1.818 4.536 4.518 4.536.45 0 .918-.09 1.368-.27l-3.258 4.32h2.052l3.042-4.122Zm0-4.464c0 1.782-1.224 3.042-2.988 3.042-1.728 0-2.952-1.26-2.952-3.042 0-1.782 1.224-3.078 2.952-3.078 1.764 0 2.988 1.296 2.988 3.078Zm5.208 2.052c.684 0 1.278-.576 1.278-1.242 0-.702-.594-1.278-1.278-1.278-.702 0-1.296.576-1.296 1.278 0 .666.594 1.242 1.296 1.242Zm0 6.75c.684 0 1.278-.576 1.278-1.26 0-.702-.594-1.278-1.278-1.278-.702 0-1.296.576-1.296 1.278 0 .684.594 1.26 1.296 1.26Zm3.544-6.714c0 4.05 1.998 6.732 5.364 6.732 3.348 0 5.346-2.682 5.346-6.732 0-4.032-2.088-6.768-5.346-6.768-3.276 0-5.364 2.736-5.364 6.768Zm1.746 0c0-3.24 1.332-5.184 3.618-5.184 2.286 0 3.6 1.944 3.6 5.184 0 3.204-1.314 5.148-3.6 5.148s-3.618-1.944-3.618-5.148Zm10.735 0c0 4.05 1.998 6.732 5.364 6.732 3.348 0 5.346-2.682 5.346-6.732 0-4.032-2.088-6.768-5.346-6.768-3.276 0-5.364 2.736-5.364 6.768Zm1.746 0c0-3.24 1.332-5.184 3.618-5.184 2.286 0 3.6 1.944 3.6 5.184 0 3.204-1.314 5.148-3.6 5.148s-3.618-1.944-3.618-5.148Zm13.65 6.714c1.422 0 2.628-.63 3.078-1.638l.18 1.422h1.44v-5.526c0-2.376-1.476-3.528-3.654-3.528-2.268 0-3.78 1.206-3.78 3.042h1.476c0-1.062.81-1.692 2.232-1.692 1.188 0 2.07.522 2.07 1.998v.252l-2.772.216c-2.07.162-3.276 1.17-3.276 2.79 0 1.602 1.116 2.664 3.006 2.664Zm.486-1.314c-1.098 0-1.782-.468-1.782-1.404 0-.864.612-1.44 2.106-1.584l2.25-.18v.468c0 1.656-.972 2.7-2.574 2.7Zm8.248 1.098v-5.22c0-1.404.846-2.286 2.124-2.286 1.188 0 1.944.756 1.944 2.142V148h1.674v-5.22c0-1.404.846-2.304 2.124-2.304 1.188 0 1.962.792 1.962 2.178V148h1.656v-5.76c0-2.034-1.224-3.294-3.24-3.294-1.368 0-2.43.684-2.844 1.782-.45-1.098-1.422-1.782-2.79-1.782-1.242 0-2.178.576-2.628 1.404l-.162-1.152h-1.512V148h1.692Zm21.325.216c1.422 0 2.628-.63 3.078-1.638l.18 1.422h1.44v-5.526c0-2.376-1.476-3.528-3.654-3.528-2.268 0-3.78 1.206-3.78 3.042h1.476c0-1.062.81-1.692 2.232-1.692 1.188 0 2.07.522 2.07 1.998v.252l-2.772.216c-2.07.162-3.276 1.17-3.276 2.79 0 1.602 1.116 2.664 3.006 2.664Zm.486-1.314c-1.098 0-1.782-.468-1.782-1.404 0-.864.612-1.44 2.106-1.584l2.25-.18v.468c0 1.656-.972 2.7-2.574 2.7Zm8.899 1.098v-7.38h1.728v-1.422h-1.728v-2.754h-1.692v2.754h-1.728v1.422h1.728V148h1.692Zm16.394 0v-1.638h-6.174v-4.122h5.562v-1.566h-5.562v-4.068h6.174v-1.62h-7.938V148h7.938Zm3.96 0v-5.22c0-1.404.846-2.286 2.124-2.286 1.188 0 1.944.756 1.944 2.142V148h1.674v-5.22c0-1.404.846-2.304 2.124-2.304 1.188 0 1.962.792 1.962 2.178V148h1.656v-5.76c0-2.034-1.224-3.294-3.24-3.294-1.368 0-2.43.684-2.844 1.782-.45-1.098-1.422-1.782-2.79-1.782-1.242 0-2.178.576-2.628 1.404l-.162-1.152h-1.512V148h1.692Zm17.627.216c2.178 0 3.654-1.062 4.086-2.952h-1.584c-.288 1.008-1.152 1.548-2.466 1.548-1.674 0-2.646-1.026-2.772-2.88l6.804-.018v-.63c0-2.61-1.638-4.338-4.14-4.338-2.556 0-4.302 1.908-4.302 4.662 0 2.736 1.782 4.608 4.374 4.608Zm-.072-7.848c1.494 0 2.448.972 2.448 2.43h-5.076c.216-1.548 1.152-2.43 2.628-2.43Zm7.758 7.632v-2.502l1.494-1.566 2.574 4.068h1.944l-3.348-5.292 3.366-3.51h-2.124l-3.906 4.14v-8.586h-1.692V148h1.692Zm9.776.216c1.422 0 2.628-.63 3.078-1.638l.18 1.422h1.44v-5.526c0-2.376-1.476-3.528-3.654-3.528-2.268 0-3.78 1.206-3.78 3.042h1.476c0-1.062.81-1.692 2.232-1.692 1.188 0 2.07.522 2.07 1.998v.252l-2.772.216c-2.07.162-3.276 1.17-3.276 2.79 0 1.602 1.116 2.664 3.006 2.664Zm.486-1.314c-1.098 0-1.782-.468-1.782-1.404 0-.864.612-1.44 2.106-1.584l2.25-.18v.468c0 1.656-.972 2.7-2.574 2.7Zm14.051 1.314c1.422 0 2.628-.63 3.078-1.638l.18 1.422h1.44v-5.526c0-2.376-1.476-3.528-3.654-3.528-2.268 0-3.78 1.206-3.78 3.042h1.476c0-1.062.81-1.692 2.232-1.692 1.188 0 2.07.522 2.07 1.998v.252l-2.772.216c-2.07.162-3.276 1.17-3.276 2.79 0 1.602 1.116 2.664 3.006 2.664Zm.486-1.314c-1.098 0-1.782-.468-1.782-1.404 0-.864.612-1.44 2.106-1.584l2.25-.18v.468c0 1.656-.972 2.7-2.574 2.7Zm8.247 1.098v-4.662c0-1.71.918-2.844 2.502-2.844 1.296 0 2.124.72 2.124 2.502V148h1.692v-5.382c0-2.25-1.062-3.672-3.384-3.672-1.242 0-2.358.594-2.916 1.602l-.18-1.35h-1.53V148h1.692Zm12.19.216c1.404 0 2.592-.612 3.168-1.818l.144 1.602h1.512v-13.248h-1.674v5.868c-.594-1.08-1.728-1.674-3.078-1.674-2.61 0-4.176 1.98-4.176 4.68 0 2.682 1.548 4.59 4.104 4.59Zm.342-1.53c-1.728 0-2.736-1.296-2.736-3.114 0-1.8 1.008-3.096 2.736-3.096 1.728 0 2.79 1.296 2.79 3.096 0 1.836-1.062 3.114-2.79 3.114Zm-254.762 22.758c0 1.674 1.314 2.772 3.384 2.772 2.088 0 3.528-1.062 3.528-2.736 0-1.314-.738-1.998-2.232-2.358l-1.548-.378c-.864-.216-1.296-.612-1.296-1.206 0-.81.594-1.278 1.656-1.278 1.026 0 1.62.558 1.656 1.44h1.62c-.036-1.674-1.296-2.754-3.222-2.754-1.944 0-3.312 1.026-3.312 2.646 0 1.296.738 2.07 2.304 2.448l1.548.36c.918.234 1.206.594 1.206 1.188 0 .81-.684 1.296-1.872 1.296-1.116 0-1.8-.54-1.8-1.44h-1.62Zm8.212-1.854c0 2.718 1.944 4.626 4.59 4.626 2.628 0 4.572-1.908 4.572-4.626 0-2.718-1.944-4.626-4.572-4.626-2.646 0-4.59 1.908-4.59 4.626Zm1.71 0c0-1.836 1.17-3.114 2.88-3.114 1.692 0 2.88 1.278 2.88 3.114 0 1.836-1.188 3.114-2.88 3.114-1.71 0-2.88-1.278-2.88-3.114Zm11.017 4.41v-4.662c0-1.71.918-2.844 2.502-2.844 1.296 0 2.124.72 2.124 2.502V172h1.692v-5.382c0-2.25-1.062-3.672-3.384-3.672-1.242 0-2.358.594-2.916 1.602l-.18-1.35h-1.53V172h1.692Zm7.836-2.556c0 1.674 1.314 2.772 3.384 2.772 2.088 0 3.528-1.062 3.528-2.736 0-1.314-.738-1.998-2.232-2.358l-1.548-.378c-.864-.216-1.296-.612-1.296-1.206 0-.81.594-1.278 1.656-1.278 1.026 0 1.62.558 1.656 1.44h1.62c-.036-1.674-1.296-2.754-3.222-2.754-1.944 0-3.312 1.026-3.312 2.646 0 1.296.738 2.07 2.304 2.448l1.548.36c.918.234 1.206.594 1.206 1.188 0 .81-.684 1.296-1.872 1.296-1.116 0-1.8-.54-1.8-1.44h-1.62ZM164.818 172l1.152-3.24h5.472l1.17 3.24h1.854l-4.77-13.014h-1.962L162.982 172h1.836Zm3.672-10.206c.09-.27.18-.576.216-.756.036.198.126.504.216.756l1.998 5.436h-4.41l1.98-5.436Zm13.256 1.404v4.644c0 1.89-.846 2.88-2.394 2.88-1.296 0-2.106-.72-2.106-2.61v-4.914h-1.692v5.472c0 2.16 1.152 3.546 3.204 3.546 1.296 0 2.466-.63 2.97-1.548l.18 1.332h1.512v-8.802h-1.674Zm6.612 8.802v-7.38h1.728v-1.422h-1.728v-2.754h-1.692v2.754h-1.728v1.422h1.728V172h1.692Zm2.583-4.41c0 2.718 1.944 4.626 4.59 4.626 2.628 0 4.572-1.908 4.572-4.626 0-2.718-1.944-4.626-4.572-4.626-2.646 0-4.59 1.908-4.59 4.626Zm1.71 0c0-1.836 1.17-3.114 2.88-3.114 1.692 0 2.88 1.278 2.88 3.114 0 1.836-1.188 3.114-2.88 3.114-1.71 0-2.88-1.278-2.88-3.114Zm11.017 4.41v-5.22c0-1.404.846-2.286 2.124-2.286 1.188 0 1.944.756 1.944 2.142V172h1.674v-5.22c0-1.404.846-2.304 2.124-2.304 1.188 0 1.962.792 1.962 2.178V172h1.656v-5.76c0-2.034-1.224-3.294-3.24-3.294-1.368 0-2.43.684-2.844 1.782-.45-1.098-1.422-1.782-2.79-1.782-1.242 0-2.178.576-2.628 1.404l-.162-1.152h-1.512V172h1.692Zm13.253-4.41c0 2.718 1.944 4.626 4.59 4.626 2.628 0 4.572-1.908 4.572-4.626 0-2.718-1.944-4.626-4.572-4.626-2.646 0-4.59 1.908-4.59 4.626Zm1.71 0c0-1.836 1.17-3.114 2.88-3.114 1.692 0 2.88 1.278 2.88 3.114 0 1.836-1.188 3.114-2.88 3.114-1.71 0-2.88-1.278-2.88-3.114Zm10.855 4.41.126-1.602c.576 1.206 1.746 1.818 3.132 1.818 2.556 0 4.14-1.908 4.14-4.572 0-2.718-1.512-4.698-4.032-4.698-1.44 0-2.628.612-3.204 1.764v-5.958h-1.692V172h1.53Zm.18-4.428c0-1.8 1.044-3.096 2.772-3.096 1.728 0 2.754 1.296 2.754 3.096 0 1.818-1.026 3.114-2.754 3.114s-2.772-1.278-2.772-3.114Zm9.911-6.462c.612 0 1.116-.504 1.116-1.116a1.11 1.11 0 0 0-1.116-1.116 1.11 1.11 0 0 0-1.116 1.116c0 .612.504 1.116 1.116 1.116Zm-.828 10.89h1.692v-8.802h-1.692V172Zm5.877 0v-13.248h-1.692V172h1.692Zm6.289.216c2.178 0 3.654-1.062 4.086-2.952h-1.584c-.288 1.008-1.152 1.548-2.466 1.548-1.674 0-2.646-1.026-2.772-2.88l6.804-.018v-.63c0-2.61-1.638-4.338-4.14-4.338-2.556 0-4.302 1.908-4.302 4.662 0 2.736 1.782 4.608 4.374 4.608Zm-.072-7.848c1.494 0 2.448.972 2.448 2.43h-5.076c.216-1.548 1.152-2.43 2.628-2.43Z" fill="#fff"/>
    <rect x="104" y="91" width="292" height="99" rx="18" stroke="url(#r)" stroke-width="2"/>
    <rect x="104" y="91" width="292" height="99" rx="18" stroke="url(#s)" stroke-width="2"/>
    <rect x="104" y="91" width="292" height="99" rx="18" stroke="url(#t)" stroke-width="2"/>
  </g>
  <defs>
    <radialGradient id="b" cx="0" cy="0" r="1" gradientUnits="userSpaceOnUse" gradientTransform="rotate(39.404) scale(898.158 726.535)">
      <stop stop-color="#fff" stop-opacity=".4"/>
      <stop offset="1" stop-color="#fff" stop-opacity="0"/>
    </radialGradient>
    <radialGradient id="c" cx="0" cy="0" r="1" gradientUnits="userSpaceOnUse" gradientTransform="matrix(-567.53755 -181.36448 99.99654 -312.91569 535.151 161.832)">
      <stop offset=".007" stop-color="#A8A8A8"/>
      <stop offset="1" stop-color="#BBA18F"/>
    </radialGradient>
    <radialGradient id="d" cx="0" cy="0" r="1" gradientUnits="userSpaceOnUse" gradientTransform="matrix(-769.9771 540.0856 -409.99484 -584.51222 716 -8.085)">
      <stop stop-color="#F68537"/>
      <stop offset="1" stop-color="#F79E61" stop-opacity=".1"/>
    </radialGradient>
    <radialGradient id="e" cx="0" cy="0" r="1" gradientUnits="userSpaceOnUse" gradientTransform="rotate(-38.461 778.54 220.133) scale(873.528 747.565)">
      <stop offset="0" stop-color="#fff" stop-opacity=".12"/>
      <stop offset="1" stop-color="#fff" stop-opacity=".4"/>
    </radialGradient>
    <radialGradient id="g" cx="0" cy="0" r="1" gradientUnits="userSpaceOnUse" gradientTransform="matrix(154.99986 46.082 -20.75974 69.82676 440 227)">
      <stop stop-color="#fff" stop-opacity=".4"/>
      <stop offset="1" stop-color="#fff" stop-opacity="0"/>
    </radialGradient>
    <radialGradient id="h" cx="0" cy="0" r="1" gradientUnits="userSpaceOnUse" gradientTransform="rotate(-173.403 286.68 103.916) scale(127.6 27.6903)">
      <stop offset=".007" stop-color="#A8A8A8"/>
      <stop offset="1" stop-color="#BBA18F"/>
    </radialGradient>
    <radialGradient id="i" cx="0" cy="0" r="1" gradientUnits="userSpaceOnUse" gradientTransform="rotate(165.058 269.886 153.406) scale(147.234 58.8837)">
      <stop stop-color="#F68537"/>
      <stop offset="1" stop-color="#FFDEC7"/>
    </radialGradient>
    <radialGradient id="j" cx="0" cy="0" r="1" gradientUnits="userSpaceOnUse" gradientTransform="rotate(-158.627 309.56 80.619) scale(101.942 63.372)">
      <stop offset=".004" stop-color="#fff" stop-opacity=".22"/>
      <stop offset=".067" stop-color="#fff" stop-opacity="0"/>
      <stop offset="1" stop-color="#fff" stop-opacity=".31"/>
    </radialGradient>
    <radialGradient id="l" cx="0" cy="0" r="1" gradientUnits="userSpaceOnUse" gradientTransform="matrix(204.00018 108.23966 -73.90755 139.29417 391 401)">
      <stop stop-color="#fff" stop-opacity=".4"/>
      <stop offset="1" stop-color="#fff" stop-opacity="0"/>
    </radialGradient>
    <radialGradient id="m" cx="0" cy="0" r="1" gradientUnits="userSpaceOnUse" gradientTransform="rotate(-168.338 296.198 187.865) scale(170.343 64.122)">
      <stop offset=".007" stop-color="#A8A8A8"/>
      <stop offset="1" stop-color="#BBA18F"/>
    </radialGradient>
    <radialGradient id="n" cx="0" cy="0" r="1" gradientUnits="userSpaceOnUse" gradientTransform="rotate(154.533 234.536 269.954) scale(207.377 129.24)">
      <stop stop-color="#F68537"/>
      <stop offset="1" stop-color="#FFDEC7"/>
    </radialGradient>
    <radialGradient id="o" cx="0" cy="0" r="1" gradientUnits="userSpaceOnUse" gradientTransform="matrix(-124.9416 -87.26425 75.03687 -107.43491 560.059 498.499)">
      <stop offset=".004" stop-color="#fff" stop-opacity=".22"/>
      <stop offset=".067" stop-color="#fff" stop-opacity="0"/>
      <stop offset="1" stop-color="#fff" stop-opacity=".31"/>
    </radialGradient>
    <radialGradient id="q" cx="0" cy="0" r="1" gradientUnits="userSpaceOnUse" gradientTransform="matrix(294.00007 108.23971 -57.87535 157.20068 103 90)">
      <stop stop-color="#fff" stop-opacity=".4"/>
      <stop offset="1" stop-color="#fff" stop-opacity="0"/>
    </radialGradient>
    <radialGradient id="r" cx="0" cy="0" r="1" gradientUnits="userSpaceOnUse" gradientTransform="matrix(-240.42699 -34.43192 9.18812 -64.15772 329.707 120.724)">
      <stop offset=".007" stop-color="#A8A8A8"/>
      <stop offset="1" stop-color="#BBA18F"/>
    </radialGradient>
    <radialGradient id="s" cx="0" cy="0" r="1" gradientUnits="userSpaceOnUse" gradientTransform="rotate(161.713 166.785 79.079) scale(284.179 135.919)">
      <stop stop-color="#F68537"/>
      <stop offset="1" stop-color="#FFDEC7"/>
    </radialGradient>
    <radialGradient id="t" cx="0" cy="0" r="1" gradientUnits="userSpaceOnUse" gradientTransform="rotate(-154.144 194.842 53.964) scale(200.094 143.842)">
      <stop offset=".004" stop-color="#fff" stop-opacity=".22"/>
      <stop offset=".067" stop-color="#fff" stop-opacity="0"/>
      <stop offset="1" stop-color="#fff" stop-opacity=".31"/>
    </radialGradient>
    <filter id="a" x="-42" y="-42" width="778" height="616" filterUnits="userSpaceOnUse" color-interpolation-filters="sRGB">
      <feFlood flood-opacity="0" result="BackgroundImageFix"/>
      <feGaussianBlur in="BackgroundImageFix" stdDeviation="21"/>
      <feComposite in2="SourceAlpha" operator="in" result="effect1_backgroundBlur_229_324"/>
      <feBlend in="SourceGraphic" in2="effect1_backgroundBlur_229_324" result="shape"/>
    </filter>
    <filter id="f" x="398" y="185" width="239" height="127" filterUnits="userSpaceOnUse" color-interpolation-filters="sRGB">
      <feFlood flood-opacity="0" result="BackgroundImageFix"/>
      <feGaussianBlur in="BackgroundImageFix" stdDeviation="21"/>
      <feComposite in2="SourceAlpha" operator="in" result="effect1_backgroundBlur_229_324"/>
      <feBlend in="SourceGraphic" in2="effect1_backgroundBlur_229_324" result="shape"/>
    </filter>
    <filter id="k" x="349" y="359" width="288" height="185" filterUnits="userSpaceOnUse" color-interpolation-filters="sRGB">
      <feFlood flood-opacity="0" result="BackgroundImageFix"/>
      <feGaussianBlur in="BackgroundImageFix" stdDeviation="21"/>
      <feComposite in2="SourceAlpha" operator="in" result="effect1_backgroundBlur_229_324"/>
      <feBlend in="SourceGraphic" in2="effect1_backgroundBlur_229_324" result="shape"/>
    </filter>
    <filter id="p" x="61" y="48" width="378" height="185" filterUnits="userSpaceOnUse" color-interpolation-filters="sRGB">
      <feFlood flood-opacity="0" result="BackgroundImageFix"/>
      <feGaussianBlur in="BackgroundImageFix" stdDeviation="21"/>
      <feComposite in2="SourceAlpha" operator="in" result="effect1_backgroundBlur_229_324"/>
      <feBlend in="SourceGraphic" in2="effect1_backgroundBlur_229_324" result="shape"/>
    </filter>
  </defs>
</svg>
