<svg width="694" height="532" viewBox="0 0 694 532" fill="none" xmlns="http://www.w3.org/2000/svg">
<g filter="url(#filter0_b_229_324)">
<rect width="694" height="532" rx="40" fill="url(#paint0_radial_229_324)"/>
<rect x="110" y="329" width="196" height="40" rx="20" fill="#FFD282"/>
<path d="M140 353.444V344.556" stroke="black" stroke-width="2" stroke-linecap="round" stroke-linejoin="round"/>
<path d="M136.445 349.889L140 353.444L143.556 349.889" stroke="black" stroke-width="2" stroke-linecap="round" stroke-linejoin="round"/>
<path d="M140 357C144.418 357 148 353.418 148 349C148 344.582 144.418 341 140 341C135.582 341 132 344.582 132 349C132 353.418 135.582 357 140 357Z" stroke="black" stroke-width="2" stroke-linecap="round" stroke-linejoin="round"/>
<path d="M163.168 355C166.592 355 168.896 352.664 168.896 349.224C168.896 345.768 166.56 343.432 163.104 343.432H159.344V355H163.168ZM162.992 344.872C165.632 344.872 167.264 346.536 167.264 349.224C167.264 351.88 165.632 353.544 163.056 353.544H160.912V344.872H162.992ZM170.123 351.08C170.123 353.496 171.851 355.192 174.203 355.192C176.539 355.192 178.267 353.496 178.267 351.08C178.267 348.664 176.539 346.968 174.203 346.968C171.851 346.968 170.123 348.664 170.123 351.08ZM171.643 351.08C171.643 349.448 172.683 348.312 174.203 348.312C175.707 348.312 176.763 349.448 176.763 351.08C176.763 352.712 175.707 353.848 174.203 353.848C172.683 353.848 171.643 352.712 171.643 351.08ZM181.252 355H182.74L184.1 350.824C184.388 349.88 184.532 349.368 184.612 348.984C184.692 349.416 184.852 350.024 185.108 350.808L186.468 355H187.892L190.564 347.176H188.996L187.684 351.24C187.46 351.928 187.316 352.472 187.188 353.096C187.06 352.536 186.804 351.624 186.676 351.24L185.38 347.176H183.844L182.532 351.24C182.356 351.752 182.148 352.408 182.02 353.096C181.876 352.408 181.716 351.816 181.54 351.24L180.244 347.176H178.692L181.252 355ZM193.358 355V350.856C193.358 349.336 194.174 348.328 195.582 348.328C196.734 348.328 197.47 348.968 197.47 350.552V355H198.974V350.216C198.974 348.216 198.03 346.952 195.966 346.952C194.862 346.952 193.87 347.48 193.374 348.376L193.214 347.176H191.854V355H193.358ZM202.593 355V343.224H201.089V355H202.593ZM204.295 351.08C204.295 353.496 206.023 355.192 208.375 355.192C210.711 355.192 212.439 353.496 212.439 351.08C212.439 348.664 210.711 346.968 208.375 346.968C206.023 346.968 204.295 348.664 204.295 351.08ZM205.815 351.08C205.815 349.448 206.855 348.312 208.375 348.312C209.879 348.312 210.935 349.448 210.935 351.08C210.935 352.712 209.879 353.848 208.375 353.848C206.855 353.848 205.815 352.712 205.815 351.08ZM216.392 355.192C217.656 355.192 218.728 354.632 219.128 353.736L219.288 355H220.568V350.088C220.568 347.976 219.256 346.952 217.32 346.952C215.304 346.952 213.96 348.024 213.96 349.656H215.272C215.272 348.712 215.992 348.152 217.256 348.152C218.312 348.152 219.096 348.616 219.096 349.928V350.152L216.632 350.344C214.792 350.488 213.72 351.384 213.72 352.824C213.72 354.248 214.712 355.192 216.392 355.192ZM216.824 354.024C215.848 354.024 215.24 353.608 215.24 352.776C215.24 352.008 215.784 351.496 217.112 351.368L219.112 351.208V351.624C219.112 353.096 218.248 354.024 216.824 354.024ZM225.786 355.192C227.035 355.192 228.091 354.648 228.603 353.576L228.731 355H230.075V343.224H228.587V348.44C228.059 347.48 227.051 346.952 225.851 346.952C223.531 346.952 222.139 348.712 222.139 351.112C222.139 353.496 223.515 355.192 225.786 355.192ZM226.091 353.832C224.555 353.832 223.659 352.68 223.659 351.064C223.659 349.464 224.555 348.312 226.091 348.312C227.627 348.312 228.571 349.464 228.571 351.064C228.571 352.696 227.627 353.832 226.091 353.832ZM238.443 343.432H236.875V355H238.443V343.432ZM242.389 355V350.856C242.389 349.336 243.205 348.328 244.613 348.328C245.765 348.328 246.501 348.968 246.501 350.552V355H248.005V350.216C248.005 348.216 247.061 346.952 244.997 346.952C243.893 346.952 242.901 347.48 242.405 348.376L242.245 347.176H240.885V355H242.389ZM252.124 355H253.612L256.876 347.176H255.308L253.564 351.544C253.292 352.232 253.036 352.904 252.908 353.416C252.78 352.936 252.556 352.28 252.284 351.544L250.572 347.176H248.972L252.124 355ZM257.201 351.08C257.201 353.496 258.929 355.192 261.281 355.192C263.617 355.192 265.345 353.496 265.345 351.08C265.345 348.664 263.617 346.968 261.281 346.968C258.929 346.968 257.201 348.664 257.201 351.08ZM258.721 351.08C258.721 349.448 259.761 348.312 261.281 348.312C262.785 348.312 263.841 349.448 263.841 351.08C263.841 352.712 262.785 353.848 261.281 353.848C259.761 353.848 258.721 352.712 258.721 351.08ZM267.746 345.32C268.29 345.32 268.738 344.872 268.738 344.328C268.738 343.768 268.29 343.336 267.746 343.336C267.202 343.336 266.754 343.768 266.754 344.328C266.754 344.872 267.202 345.32 267.746 345.32ZM267.01 355H268.514V347.176H267.01V355ZM270.185 351.096C270.185 353.56 271.705 355.192 274.009 355.192C275.897 355.192 277.353 354.056 277.657 352.36H276.153C275.881 353.288 275.081 353.848 274.009 353.848C272.585 353.848 271.673 352.76 271.673 351.08C271.673 349.384 272.649 348.296 274.073 348.296C275.081 348.296 275.881 348.824 276.137 349.816H277.641C277.369 348.072 275.993 346.952 274.025 346.952C271.737 346.952 270.185 348.648 270.185 351.096ZM282.62 355.192C284.556 355.192 285.868 354.248 286.252 352.568H284.844C284.588 353.464 283.82 353.944 282.652 353.944C281.164 353.944 280.3 353.032 280.188 351.384L286.236 351.368V350.808C286.236 348.488 284.78 346.952 282.556 346.952C280.284 346.952 278.732 348.648 278.732 351.096C278.732 353.528 280.316 355.192 282.62 355.192ZM282.556 348.216C283.884 348.216 284.732 349.08 284.732 350.376H280.22C280.412 349 281.244 348.216 282.556 348.216Z" fill="black"/>
<rect x="1.5" y="1.5" width="691" height="529" rx="38.5" stroke="url(#paint1_radial_229_324)" stroke-width="3"/>
<rect x="1.5" y="1.5" width="691" height="529" rx="38.5" stroke="url(#paint2_radial_229_324)" stroke-width="3"/>
<rect x="1.5" y="1.5" width="691" height="529" rx="38.5" stroke="url(#paint3_radial_229_324)" stroke-width="3"/>
</g>
<circle cx="73" cy="109" r="19" fill="#D9D9D9"/>
<circle cx="73" cy="348" r="19" fill="#D9D9D9"/>
<circle cx="624" cy="249" r="19" fill="#D9D9D9"/>
<circle cx="624" cy="420" r="19" fill="#D9D9D9"/>
<g filter="url(#filter1_b_229_324)">
<rect x="440" y="227" width="155" height="43" rx="19" fill="url(#paint4_radial_229_324)" fill-opacity="0.8"/>
<path d="M467.14 256H468.868L472.054 245.704L475.204 256H476.896L480.82 242.986H479.02L476.626 250.96C476.446 251.536 476.266 252.202 476.05 253.3C475.852 252.328 475.672 251.644 475.456 250.942L473.008 242.986H471.1L468.634 250.942C468.436 251.626 468.238 252.256 468.022 253.3C467.842 252.31 467.662 251.626 467.482 250.942L465.106 242.986H463.27L467.14 256ZM483.14 245.11C483.752 245.11 484.256 244.606 484.256 243.994C484.256 243.364 483.752 242.878 483.14 242.878C482.528 242.878 482.024 243.364 482.024 243.994C482.024 244.606 482.528 245.11 483.14 245.11ZM482.312 256H484.004V247.198H482.312V256ZM488.188 256V242.752H486.496V256H488.188ZM492.407 256V242.752H490.715V256H492.407ZM501.35 256L501.476 254.398C502.052 255.604 503.222 256.216 504.608 256.216C507.164 256.216 508.748 254.308 508.748 251.644C508.748 248.926 507.236 246.946 504.716 246.946C503.276 246.946 502.088 247.558 501.512 248.71V242.752H499.82V256H501.35ZM501.53 251.572C501.53 249.772 502.574 248.476 504.302 248.476C506.03 248.476 507.056 249.772 507.056 251.572C507.056 253.39 506.03 254.686 504.302 254.686C502.574 254.686 501.53 253.408 501.53 251.572ZM514.411 256.216C516.589 256.216 518.065 255.154 518.497 253.264H516.913C516.625 254.272 515.761 254.812 514.447 254.812C512.773 254.812 511.801 253.786 511.675 251.932L518.479 251.914V251.284C518.479 248.674 516.841 246.946 514.339 246.946C511.783 246.946 510.037 248.854 510.037 251.608C510.037 254.344 511.819 256.216 514.411 256.216ZM514.339 248.368C515.833 248.368 516.787 249.34 516.787 250.798H511.711C511.927 249.25 512.863 248.368 514.339 248.368ZM527.774 256V248.62H529.502V247.198H527.774V244.444H526.082V247.198H524.354V248.62H526.082V256H527.774ZM532.713 255.982V251.194C532.713 249.682 533.595 248.494 535.233 248.494C536.493 248.494 537.339 249.214 537.339 250.996V256H539.031V250.618C539.031 248.368 537.951 246.946 535.701 246.946C534.333 246.946 533.271 247.594 532.713 248.548V242.752H531.021V255.982H532.713ZM545.172 256.216C547.35 256.216 548.826 255.154 549.258 253.264H547.674C547.386 254.272 546.522 254.812 545.208 254.812C543.534 254.812 542.562 253.786 542.436 251.932L549.24 251.914V251.284C549.24 248.674 547.602 246.946 545.1 246.946C542.544 246.946 540.798 248.854 540.798 251.608C540.798 254.344 542.58 256.216 545.172 256.216ZM545.1 248.368C546.594 248.368 547.548 249.34 547.548 250.798H542.472C542.688 249.25 543.624 248.368 545.1 248.368ZM556.17 247.126C555.828 247.054 555.576 247.018 555.27 247.018C554.064 247.018 553.182 247.63 552.822 248.548L552.714 247.216H551.13V256H552.822V251.338C552.822 249.646 553.812 248.674 555.414 248.674H556.17V247.126ZM561.239 256.216C563.417 256.216 564.893 255.154 565.325 253.264H563.741C563.453 254.272 562.589 254.812 561.275 254.812C559.601 254.812 558.629 253.786 558.503 251.932L565.307 251.914V251.284C565.307 248.674 563.669 246.946 561.167 246.946C558.611 246.946 556.865 248.854 556.865 251.608C556.865 254.344 558.647 256.216 561.239 256.216ZM561.167 248.368C562.661 248.368 563.615 249.34 563.615 250.798H558.539C558.755 249.25 559.691 248.368 561.167 248.368ZM569.267 252.094C569.447 250.762 569.591 248.386 569.591 246.01V242.986H567.647V246.01C567.647 248.35 567.773 250.744 567.953 252.094H569.267ZM568.619 256.252C569.303 256.252 569.897 255.676 569.897 254.974C569.897 254.272 569.303 253.696 568.619 253.696C567.899 253.696 567.323 254.272 567.323 254.974C567.323 255.676 567.899 256.252 568.619 256.252Z" fill="white"/>
<rect x="441" y="228" width="153" height="41" rx="18" stroke="url(#paint5_radial_229_324)" stroke-width="2"/>
<rect x="441" y="228" width="153" height="41" rx="18" stroke="url(#paint6_radial_229_324)" stroke-width="2"/>
<rect x="441" y="228" width="153" height="41" rx="18" stroke="url(#paint7_radial_229_324)" stroke-width="2"/>
</g>
<g filter="url(#filter2_b_229_324)">
<rect x="391" y="401" width="204" height="101" rx="19" fill="url(#paint8_radial_229_324)" fill-opacity="0.8"/>
<path d="M443.197 432L444.349 428.76H449.821L450.991 432H452.845L448.075 418.986H446.113L441.361 432H443.197ZM446.869 421.794C446.959 421.524 447.049 421.218 447.085 421.038C447.121 421.236 447.211 421.542 447.301 421.794L449.299 427.23H444.889L446.869 421.794ZM455.979 432V426.78C455.979 425.376 456.825 424.494 458.103 424.494C459.291 424.494 460.047 425.25 460.047 426.636V432H461.721V426.78C461.721 425.376 462.566 424.476 463.845 424.476C465.033 424.476 465.807 425.268 465.807 426.654V432H467.463V426.24C467.463 424.206 466.239 422.946 464.223 422.946C462.855 422.946 461.793 423.63 461.379 424.728C460.929 423.63 459.957 422.946 458.589 422.946C457.347 422.946 456.411 423.522 455.961 424.35L455.799 423.198H454.287V432H455.979ZM472.382 432.216C473.804 432.216 475.01 431.586 475.46 430.578L475.64 432H477.08V426.474C477.08 424.098 475.604 422.946 473.426 422.946C471.158 422.946 469.646 424.152 469.646 425.988H471.122C471.122 424.926 471.932 424.296 473.354 424.296C474.542 424.296 475.424 424.818 475.424 426.294V426.546L472.652 426.762C470.582 426.924 469.376 427.932 469.376 429.552C469.376 431.154 470.492 432.216 472.382 432.216ZM472.868 430.902C471.77 430.902 471.086 430.434 471.086 429.498C471.086 428.634 471.698 428.058 473.192 427.914L475.442 427.734V428.202C475.442 429.858 474.47 430.902 472.868 430.902ZM485.741 432V430.578H480.953L485.741 424.584V423.198H478.883V424.62H483.635L478.883 430.632V432H485.741ZM488.478 421.11C489.09 421.11 489.594 420.606 489.594 419.994C489.594 419.364 489.09 418.878 488.478 418.878C487.866 418.878 487.362 419.364 487.362 419.994C487.362 420.606 487.866 421.11 488.478 421.11ZM487.65 432H489.342V423.198H487.65V432ZM493.49 432V427.338C493.49 425.628 494.408 424.494 495.992 424.494C497.288 424.494 498.116 425.214 498.116 426.996V432H499.808V426.618C499.808 424.368 498.746 422.946 496.424 422.946C495.182 422.946 494.066 423.54 493.508 424.548L493.328 423.198H491.798V432H493.49ZM501.594 427.374C501.594 429.84 503.178 431.766 505.68 431.766C507.066 431.766 508.218 431.154 508.794 430.128V431.892C508.794 433.566 507.714 434.646 506.058 434.646C504.582 434.646 503.61 433.89 503.394 432.594H501.702C502.026 434.826 503.664 436.176 506.058 436.176C508.758 436.176 510.468 434.412 510.468 431.64V423.198H508.956L508.83 424.692C508.272 423.594 507.174 422.946 505.752 422.946C503.196 422.946 501.594 424.89 501.594 427.374ZM503.286 427.338C503.286 425.718 504.294 424.422 505.986 424.422C507.714 424.422 508.722 425.646 508.722 427.338C508.722 429.066 507.678 430.29 505.968 430.29C504.312 430.29 503.286 428.994 503.286 427.338ZM517.111 429.444C517.111 431.118 518.425 432.216 520.495 432.216C522.583 432.216 524.023 431.154 524.023 429.48C524.023 428.166 523.285 427.482 521.791 427.122L520.243 426.744C519.379 426.528 518.947 426.132 518.947 425.538C518.947 424.728 519.541 424.26 520.603 424.26C521.629 424.26 522.223 424.818 522.259 425.7H523.879C523.843 424.026 522.583 422.946 520.657 422.946C518.713 422.946 517.345 423.972 517.345 425.592C517.345 426.888 518.083 427.662 519.649 428.04L521.197 428.4C522.115 428.634 522.403 428.994 522.403 429.588C522.403 430.398 521.719 430.884 520.531 430.884C519.415 430.884 518.731 430.344 518.731 429.444H517.111ZM529.698 432.216C531.876 432.216 533.352 431.154 533.784 429.264H532.2C531.912 430.272 531.048 430.812 529.734 430.812C528.06 430.812 527.088 429.786 526.962 427.932L533.766 427.914V427.284C533.766 424.674 532.128 422.946 529.626 422.946C527.07 422.946 525.324 424.854 525.324 427.608C525.324 430.344 527.106 432.216 529.698 432.216ZM529.626 424.368C531.12 424.368 532.074 425.34 532.074 426.798H526.998C527.214 425.25 528.15 424.368 529.626 424.368ZM540.696 423.126C540.354 423.054 540.102 423.018 539.796 423.018C538.59 423.018 537.708 423.63 537.348 424.548L537.24 423.216H535.656V432H537.348V427.338C537.348 425.646 538.338 424.674 539.94 424.674H540.696V423.126ZM545.012 432H546.686L550.358 423.198H548.594L546.632 428.112C546.326 428.886 546.038 429.642 545.894 430.218C545.75 429.678 545.498 428.94 545.192 428.112L543.266 423.198H541.466L545.012 432ZM552.532 421.11C553.144 421.11 553.648 420.606 553.648 419.994C553.648 419.364 553.144 418.878 552.532 418.878C551.92 418.878 551.416 419.364 551.416 419.994C551.416 420.606 551.92 421.11 552.532 421.11ZM551.704 432H553.396V423.198H551.704V432ZM555.277 427.608C555.277 430.38 556.987 432.216 559.579 432.216C561.703 432.216 563.341 430.938 563.683 429.03H561.991C561.685 430.074 560.785 430.704 559.579 430.704C557.977 430.704 556.951 429.48 556.951 427.59C556.951 425.682 558.049 424.458 559.651 424.458C560.785 424.458 561.685 425.052 561.973 426.168H563.665C563.359 424.206 561.811 422.946 559.597 422.946C557.023 422.946 555.277 424.854 555.277 427.608ZM569.266 432.216C571.444 432.216 572.92 431.154 573.352 429.264H571.768C571.48 430.272 570.616 430.812 569.302 430.812C567.628 430.812 566.656 429.786 566.53 427.932L573.334 427.914V427.284C573.334 424.674 571.696 422.946 569.194 422.946C566.638 422.946 564.892 424.854 564.892 427.608C564.892 430.344 566.674 432.216 569.266 432.216ZM569.194 424.368C570.688 424.368 571.642 425.34 571.642 426.798H566.566C566.782 425.25 567.718 424.368 569.194 424.368ZM409.731 456V448.62H411.459V447.198H409.731V444.444H408.039V447.198H406.311V448.62H408.039V456H409.731ZM412.314 451.59C412.314 454.308 414.258 456.216 416.904 456.216C419.532 456.216 421.476 454.308 421.476 451.59C421.476 448.872 419.532 446.964 416.904 446.964C414.258 446.964 412.314 448.872 412.314 451.59ZM414.024 451.59C414.024 449.754 415.194 448.476 416.904 448.476C418.596 448.476 419.784 449.754 419.784 451.59C419.784 453.426 418.596 454.704 416.904 454.704C415.194 454.704 414.024 453.426 414.024 451.59ZM426.877 456.216C428.281 456.216 429.469 455.604 430.045 454.398L430.189 456H431.701V442.752H430.027V448.62C429.433 447.54 428.299 446.946 426.949 446.946C424.339 446.946 422.773 448.926 422.773 451.626C422.773 454.308 424.321 456.216 426.877 456.216ZM427.219 454.686C425.491 454.686 424.483 453.39 424.483 451.572C424.483 449.772 425.491 448.476 427.219 448.476C428.947 448.476 430.009 449.772 430.009 451.572C430.009 453.408 428.947 454.686 427.219 454.686ZM436.716 456.216C438.138 456.216 439.344 455.586 439.794 454.578L439.974 456H441.414V450.474C441.414 448.098 439.938 446.946 437.76 446.946C435.492 446.946 433.98 448.152 433.98 449.988H435.456C435.456 448.926 436.266 448.296 437.688 448.296C438.876 448.296 439.758 448.818 439.758 450.294V450.546L436.986 450.762C434.916 450.924 433.71 451.932 433.71 453.552C433.71 455.154 434.826 456.216 436.716 456.216ZM437.202 454.902C436.104 454.902 435.42 454.434 435.42 453.498C435.42 452.634 436.032 452.058 437.526 451.914L439.776 451.734V452.202C439.776 453.858 438.804 454.902 437.202 454.902ZM442.7 459.942C443.15 460.05 443.618 460.122 444.176 460.122C445.526 460.122 446.408 459.492 447.002 457.98L451.16 447.198H449.414L446.804 454.29L444.248 447.198H442.466L446.012 456.468L445.706 457.314C445.292 458.43 444.644 458.556 443.834 458.556H442.7V459.942ZM452.277 456.216C452.961 456.216 453.555 455.64 453.555 454.956C453.555 454.254 452.961 453.678 452.277 453.678C451.575 453.678 450.981 454.254 450.981 454.956C450.981 455.64 451.575 456.216 452.277 456.216ZM462.965 442.986H461.201V456H462.965V442.986ZM468.088 444.3C468.088 443.328 467.512 442.734 466.792 442.734C466.072 442.734 465.604 443.238 465.604 443.922C465.604 444.624 466.072 445.02 466.612 445.02C466.828 445.02 466.99 444.984 467.116 444.912C467.116 445.488 466.612 445.956 465.91 446.082V446.838C467.17 446.676 468.088 445.614 468.088 444.3ZM472.889 456H474.563L478.235 447.198H476.471L474.509 452.112C474.203 452.886 473.915 453.642 473.771 454.218C473.627 453.678 473.375 452.94 473.069 452.112L471.143 447.198H469.343L472.889 456ZM482.975 456.216C485.153 456.216 486.629 455.154 487.061 453.264H485.477C485.189 454.272 484.325 454.812 483.011 454.812C481.337 454.812 480.365 453.786 480.239 451.932L487.043 451.914V451.284C487.043 448.674 485.405 446.946 482.903 446.946C480.347 446.946 478.601 448.854 478.601 451.608C478.601 454.344 480.383 456.216 482.975 456.216ZM482.903 448.368C484.397 448.368 485.351 449.34 485.351 450.798H480.275C480.491 449.25 481.427 448.368 482.903 448.368ZM495.547 456V450.78C495.547 449.376 496.393 448.494 497.671 448.494C498.859 448.494 499.615 449.25 499.615 450.636V456H501.289V450.78C501.289 449.376 502.135 448.476 503.413 448.476C504.601 448.476 505.375 449.268 505.375 450.654V456H507.031V450.24C507.031 448.206 505.807 446.946 503.791 446.946C502.423 446.946 501.361 447.63 500.947 448.728C500.497 447.63 499.525 446.946 498.157 446.946C496.915 446.946 495.979 447.522 495.529 448.35L495.367 447.198H493.855V456H495.547ZM511.95 456.216C513.372 456.216 514.578 455.586 515.028 454.578L515.208 456H516.648V450.474C516.648 448.098 515.172 446.946 512.994 446.946C510.726 446.946 509.214 448.152 509.214 449.988H510.69C510.69 448.926 511.5 448.296 512.922 448.296C514.11 448.296 514.992 448.818 514.992 450.294V450.546L512.22 450.762C510.15 450.924 508.944 451.932 508.944 453.552C508.944 455.154 510.06 456.216 511.95 456.216ZM512.436 454.902C511.338 454.902 510.654 454.434 510.654 453.498C510.654 452.634 511.266 452.058 512.76 451.914L515.01 451.734V452.202C515.01 453.858 514.038 454.902 512.436 454.902ZM522.52 456.216C523.924 456.216 525.112 455.604 525.688 454.398L525.832 456H527.344V442.752H525.67V448.62C525.076 447.54 523.942 446.946 522.592 446.946C519.982 446.946 518.416 448.926 518.416 451.626C518.416 454.308 519.964 456.216 522.52 456.216ZM522.862 454.686C521.134 454.686 520.126 453.39 520.126 451.572C520.126 449.772 521.134 448.476 522.862 448.476C524.59 448.476 525.652 449.772 525.652 451.572C525.652 453.408 524.59 454.686 522.862 454.686ZM533.583 456.216C535.761 456.216 537.237 455.154 537.669 453.264H536.085C535.797 454.272 534.933 454.812 533.619 454.812C531.945 454.812 530.973 453.786 530.847 451.932L537.651 451.914V451.284C537.651 448.674 536.013 446.946 533.511 446.946C530.955 446.946 529.209 448.854 529.209 451.608C529.209 454.344 530.991 456.216 533.583 456.216ZM533.511 448.368C535.005 448.368 535.959 449.34 535.959 450.798H530.883C531.099 449.25 532.035 448.368 533.511 448.368ZM546.946 456V448.62H548.674V447.198H546.946V444.444H545.254V447.198H543.526V448.62H545.254V456H546.946ZM551.885 455.982V451.194C551.885 449.682 552.767 448.494 554.405 448.494C555.665 448.494 556.511 449.214 556.511 450.996V456H558.203V450.618C558.203 448.368 557.123 446.946 554.873 446.946C553.505 446.946 552.443 447.594 551.885 448.548V442.752H550.193V455.982H551.885ZM564.344 456.216C566.522 456.216 567.998 455.154 568.43 453.264H566.846C566.558 454.272 565.694 454.812 564.38 454.812C562.706 454.812 561.734 453.786 561.608 451.932L568.412 451.914V451.284C568.412 448.674 566.774 446.946 564.272 446.946C561.716 446.946 559.97 448.854 559.97 451.608C559.97 454.344 561.752 456.216 564.344 456.216ZM564.272 448.368C565.766 448.368 566.72 449.34 566.72 450.798H561.644C561.86 449.25 562.796 448.368 564.272 448.368ZM504.701 483.942H506.393V478.56C506.969 479.64 508.139 480.234 509.543 480.234C512.153 480.234 513.629 478.218 513.629 475.536C513.629 472.836 512.063 470.946 509.543 470.946C508.139 470.946 506.951 471.576 506.357 472.782L506.231 471.198H504.701V483.942ZM506.411 475.608C506.411 473.772 507.455 472.494 509.183 472.494C510.911 472.494 511.937 473.79 511.937 475.608C511.937 477.408 510.911 478.704 509.183 478.704C507.455 478.704 506.411 477.408 506.411 475.608ZM518.068 480.216C519.49 480.216 520.696 479.586 521.146 478.578L521.326 480H522.766V474.474C522.766 472.098 521.29 470.946 519.112 470.946C516.844 470.946 515.332 472.152 515.332 473.988H516.808C516.808 472.926 517.618 472.296 519.04 472.296C520.228 472.296 521.11 472.818 521.11 474.294V474.546L518.338 474.762C516.268 474.924 515.062 475.932 515.062 477.552C515.062 479.154 516.178 480.216 518.068 480.216ZM518.554 478.902C517.456 478.902 516.772 478.434 516.772 477.498C516.772 476.634 517.384 476.058 518.878 475.914L521.128 475.734V476.202C521.128 477.858 520.156 478.902 518.554 478.902ZM524.052 483.942C524.502 484.05 524.97 484.122 525.528 484.122C526.878 484.122 527.76 483.492 528.354 481.98L532.512 471.198H530.766L528.156 478.29L525.6 471.198H523.818L527.364 480.468L527.058 481.314C526.644 482.43 525.996 482.556 525.186 482.556H524.052V483.942ZM535.555 480V474.78C535.555 473.376 536.401 472.494 537.679 472.494C538.867 472.494 539.623 473.25 539.623 474.636V480H541.297V474.78C541.297 473.376 542.143 472.476 543.421 472.476C544.609 472.476 545.383 473.268 545.383 474.654V480H547.039V474.24C547.039 472.206 545.815 470.946 543.799 470.946C542.431 470.946 541.369 471.63 540.955 472.728C540.505 471.63 539.533 470.946 538.165 470.946C536.923 470.946 535.987 471.522 535.537 472.35L535.375 471.198H533.863V480H535.555ZM553.182 480.216C555.36 480.216 556.836 479.154 557.268 477.264H555.684C555.396 478.272 554.532 478.812 553.218 478.812C551.544 478.812 550.572 477.786 550.446 475.932L557.25 475.914V475.284C557.25 472.674 555.612 470.946 553.11 470.946C550.554 470.946 548.808 472.854 548.808 475.608C548.808 478.344 550.59 480.216 553.182 480.216ZM553.11 472.368C554.604 472.368 555.558 473.34 555.558 474.798H550.482C550.698 473.25 551.634 472.368 553.11 472.368ZM560.832 480V475.338C560.832 473.628 561.75 472.494 563.334 472.494C564.63 472.494 565.458 473.214 565.458 474.996V480H567.15V474.618C567.15 472.368 566.088 470.946 563.766 470.946C562.524 470.946 561.408 471.54 560.85 472.548L560.67 471.198H559.14V480H560.832ZM571.978 480V472.62H573.706V471.198H571.978V468.444H570.286V471.198H568.558V472.62H570.286V480H571.978Z" fill="white"/>
<rect x="392" y="402" width="202" height="99" rx="18" stroke="url(#paint9_radial_229_324)" stroke-width="2"/>
<rect x="392" y="402" width="202" height="99" rx="18" stroke="url(#paint10_radial_229_324)" stroke-width="2"/>
<rect x="392" y="402" width="202" height="99" rx="18" stroke="url(#paint11_radial_229_324)" stroke-width="2"/>
</g>
<path d="M312.992 296.84V307H314.496V295.432H310.56V296.84H312.992ZM324.372 306.984V305.528H319.028L321.428 303.448C323.476 301.672 324.292 300.504 324.292 298.856C324.292 296.632 322.804 295.224 320.484 295.224C318.132 295.224 316.564 296.84 316.516 299.32H318.084C318.116 297.672 319.044 296.632 320.468 296.632C321.86 296.632 322.692 297.496 322.692 298.952C322.692 300.184 322.164 300.968 320.292 302.584L316.564 305.8V307L324.372 306.984ZM327.399 301.192C328.007 301.192 328.535 300.68 328.535 300.088C328.535 299.464 328.007 298.952 327.399 298.952C326.775 298.952 326.247 299.464 326.247 300.088C326.247 300.68 326.775 301.192 327.399 301.192ZM327.399 307.192C328.007 307.192 328.535 306.68 328.535 306.072C328.535 305.448 328.007 304.936 327.399 304.936C326.775 304.936 326.247 305.448 326.247 306.072C326.247 306.68 326.775 307.192 327.399 307.192ZM330.55 301.224C330.55 304.824 332.326 307.208 335.318 307.208C338.294 307.208 340.07 304.824 340.07 301.224C340.07 297.64 338.214 295.208 335.318 295.208C332.406 295.208 330.55 297.64 330.55 301.224ZM332.102 301.224C332.102 298.344 333.286 296.616 335.318 296.616C337.35 296.616 338.518 298.344 338.518 301.224C338.518 304.072 337.35 305.8 335.318 305.8C333.286 305.8 332.102 304.072 332.102 301.224ZM341.643 301.224C341.643 304.824 343.419 307.208 346.411 307.208C349.387 307.208 351.163 304.824 351.163 301.224C351.163 297.64 349.307 295.208 346.411 295.208C343.499 295.208 341.643 297.64 341.643 301.224ZM343.195 301.224C343.195 298.344 344.379 296.616 346.411 296.616C348.443 296.616 349.611 298.344 349.611 301.224C349.611 304.072 348.443 305.8 346.411 305.8C344.379 305.8 343.195 304.072 343.195 301.224ZM357.793 302.872C360.049 302.872 361.521 301.304 361.521 299.144C361.521 296.92 360.065 295.432 357.793 295.432H353.297V307H354.865V302.872H357.793ZM357.521 296.84C358.993 296.84 359.873 297.672 359.873 299.128C359.873 300.552 359.009 301.464 357.457 301.464H354.865V296.84H357.521ZM364.833 307V302.056C364.833 300.44 364.801 299.256 364.721 298.696L368.081 307H369.553L372.929 298.664C372.849 299.48 372.833 300.264 372.833 302.424V307H374.369V295.432H372.801L368.817 305.16L364.833 295.432H363.297V307H364.833Z" fill="white"/>
<rect x="279" y="34" width="136" height="40" rx="20" fill="#FFD282"/>
<path d="M301.523 57.8889V58.6667C301.523 58.9732 301.583 59.2766 301.7 59.5597C301.817 59.8427 301.989 60.0999 302.206 60.3166C302.423 60.5333 302.68 60.7052 302.963 60.8224C303.246 60.9397 303.549 61 303.856 61C304.162 61 304.466 60.9397 304.749 60.8224C305.032 60.7052 305.289 60.5333 305.506 60.3166C305.722 60.0999 305.894 59.8427 306.012 59.5597C306.129 59.2766 306.189 58.9732 306.189 58.6667V57.8889" stroke="black" stroke-width="2" stroke-linecap="round" stroke-linejoin="round"/>
<path d="M310.078 57.8889C310.078 57.8889 308.522 54 308.522 51.6667C308.522 49.1249 306.398 47 303.856 47C301.314 47 299.189 49.1249 299.189 51.6667C299.189 54.7778 297.634 57.8889 297.634 57.8889H310.078Z" stroke="black" stroke-width="2" stroke-linecap="round" stroke-linejoin="round"/>
<path d="M323.422 60V55.632H325.934L327.918 60H330.158L327.934 55.2C329.31 54.64 330.046 53.52 330.046 51.952C330.046 49.648 328.494 48.304 325.838 48.304H321.374V60H323.422ZM323.422 50.128H325.838C327.134 50.128 327.902 50.784 327.902 51.952C327.902 53.136 327.134 53.824 325.838 53.824H323.422V50.128ZM334.778 60.208C336.842 60.208 338.282 59.168 338.618 57.44H336.81C336.586 58.192 335.882 58.608 334.81 58.608C333.514 58.608 332.778 57.904 332.634 56.512L338.586 56.496V55.904C338.586 53.44 337.082 51.856 334.714 51.856C332.394 51.856 330.778 53.568 330.778 56.048C330.778 58.496 332.426 60.208 334.778 60.208ZM334.73 53.456C335.898 53.456 336.65 54.176 336.65 55.264H332.682C332.874 54.08 333.578 53.456 334.73 53.456ZM342.1 60V55.52C342.1 54.24 342.852 53.632 343.78 53.632C344.708 53.632 345.3 54.224 345.3 55.328V60H347.252V55.52C347.252 54.224 347.972 53.616 348.916 53.616C349.844 53.616 350.452 54.208 350.452 55.344V60H352.388V54.832C352.388 53.008 351.332 51.856 349.412 51.856C348.212 51.856 347.284 52.448 346.884 53.36C346.468 52.448 345.636 51.856 344.436 51.856C343.3 51.856 342.5 52.368 342.1 53.024L341.94 52.096H340.148V60H342.1ZM355.281 50.512C355.921 50.512 356.449 49.984 356.449 49.328C356.449 48.672 355.921 48.16 355.281 48.16C354.609 48.16 354.081 48.672 354.081 49.328C354.081 49.984 354.609 50.512 355.281 50.512ZM354.305 60H356.257V52.096H354.305V60ZM360.225 60V55.744C360.225 54.464 360.961 53.632 362.161 53.632C363.169 53.632 363.825 54.272 363.825 55.6V60H365.777V55.136C365.777 53.088 364.753 51.856 362.769 51.856C361.697 51.856 360.737 52.32 360.241 53.12L360.081 52.096H358.273V60H360.225ZM370.943 60.208C372.143 60.208 373.167 59.68 373.647 58.768L373.775 60H375.567V48.096H373.631V53.104C373.135 52.32 372.159 51.856 371.055 51.856C368.671 51.856 367.231 53.616 367.231 56.08C367.231 58.528 368.655 60.208 370.943 60.208ZM371.375 58.416C370.015 58.416 369.183 57.424 369.183 56.016C369.183 54.608 370.015 53.6 371.375 53.6C372.735 53.6 373.615 54.592 373.615 56.016C373.615 57.44 372.735 58.416 371.375 58.416ZM381.138 60.208C383.202 60.208 384.642 59.168 384.978 57.44H383.17C382.946 58.192 382.242 58.608 381.17 58.608C379.874 58.608 379.138 57.904 378.994 56.512L384.946 56.496V55.904C384.946 53.44 383.442 51.856 381.074 51.856C378.754 51.856 377.138 53.568 377.138 56.048C377.138 58.496 378.786 60.208 381.138 60.208ZM381.09 53.456C382.258 53.456 383.01 54.176 383.01 55.264H379.042C379.234 54.08 379.938 53.456 381.09 53.456ZM391.468 52.064C391.148 51.984 390.876 51.952 390.604 51.952C389.548 51.952 388.796 52.48 388.46 53.264L388.348 52.112H386.508V60H388.46V56.16C388.46 54.624 389.34 53.872 390.748 53.872H391.468V52.064ZM395.109 56.496C395.333 55.264 395.493 53.12 395.493 50.992V48.304H393.189V50.992C393.189 53.072 393.333 55.216 393.541 56.496H395.109ZM394.341 60.208C395.029 60.208 395.621 59.632 395.621 58.944C395.621 58.24 395.029 57.664 394.341 57.664C393.621 57.664 393.029 58.24 393.029 58.944C393.029 59.632 393.621 60.208 394.341 60.208Z" fill="black"/>
<g filter="url(#filter3_b_229_324)">
<rect x="103" y="90" width="294" height="101" rx="19" fill="url(#paint12_radial_229_324)" fill-opacity="0.8"/>
<path d="M124.24 124V118.438C124.24 116.62 124.204 115.288 124.114 114.658L127.894 124H129.55L133.348 114.622C133.258 115.54 133.24 116.422 133.24 118.852V124H134.968V110.986H133.204L128.722 121.93L124.24 110.986H122.512V124H124.24ZM141.508 124.216C143.686 124.216 145.162 123.154 145.594 121.264H144.01C143.722 122.272 142.858 122.812 141.544 122.812C139.87 122.812 138.898 121.786 138.772 119.932L145.576 119.914V119.284C145.576 116.674 143.938 114.946 141.436 114.946C138.88 114.946 137.134 116.854 137.134 119.608C137.134 122.344 138.916 124.216 141.508 124.216ZM141.436 116.368C142.93 116.368 143.884 117.34 143.884 118.798H138.808C139.024 117.25 139.96 116.368 141.436 116.368ZM152.506 115.126C152.164 115.054 151.912 115.018 151.606 115.018C150.4 115.018 149.518 115.63 149.158 116.548L149.05 115.216H147.466V124H149.158V119.338C149.158 117.646 150.148 116.674 151.75 116.674H152.506V115.126ZM153.201 119.608C153.201 122.38 154.911 124.216 157.503 124.216C159.627 124.216 161.265 122.938 161.607 121.03H159.915C159.609 122.074 158.709 122.704 157.503 122.704C155.901 122.704 154.875 121.48 154.875 119.59C154.875 117.682 155.973 116.458 157.575 116.458C158.709 116.458 159.609 117.052 159.897 118.168H161.589C161.283 116.206 159.735 114.946 157.521 114.946C154.947 114.946 153.201 116.854 153.201 119.608ZM167.19 124.216C169.368 124.216 170.844 123.154 171.276 121.264H169.692C169.404 122.272 168.54 122.812 167.226 122.812C165.552 122.812 164.58 121.786 164.454 119.932L171.258 119.914V119.284C171.258 116.674 169.62 114.946 167.118 114.946C164.562 114.946 162.816 116.854 162.816 119.608C162.816 122.344 164.598 124.216 167.19 124.216ZM167.118 116.368C168.612 116.368 169.566 117.34 169.566 118.798H164.49C164.706 117.25 165.642 116.368 167.118 116.368ZM176.676 124.216C178.08 124.216 179.268 123.604 179.844 122.398L179.988 124H181.5V110.752H179.826V116.62C179.232 115.54 178.098 114.946 176.748 114.946C174.138 114.946 172.572 116.926 172.572 119.626C172.572 122.308 174.12 124.216 176.676 124.216ZM177.018 122.686C175.29 122.686 174.282 121.39 174.282 119.572C174.282 117.772 175.29 116.476 177.018 116.476C178.746 116.476 179.808 117.772 179.808 119.572C179.808 121.408 178.746 122.686 177.018 122.686ZM187.739 124.216C189.917 124.216 191.393 123.154 191.825 121.264H190.241C189.953 122.272 189.089 122.812 187.775 122.812C186.101 122.812 185.129 121.786 185.003 119.932L191.807 119.914V119.284C191.807 116.674 190.169 114.946 187.667 114.946C185.111 114.946 183.365 116.854 183.365 119.608C183.365 122.344 185.147 124.216 187.739 124.216ZM187.667 116.368C189.161 116.368 190.115 117.34 190.115 118.798H185.039C185.255 117.25 186.191 116.368 187.667 116.368ZM199.839 124V122.578H195.051L199.839 116.584V115.198H192.981V116.62H197.733L192.981 122.632V124H199.839ZM206.957 124H212.105C214.679 124 216.245 122.686 216.245 120.526C216.245 118.978 215.507 117.934 214.067 117.466C215.363 116.926 216.011 115.918 216.011 114.424C216.011 112.282 214.463 110.986 211.925 110.986H206.957V124ZM211.817 112.552C213.347 112.552 214.211 113.29 214.211 114.586C214.211 115.936 213.383 116.728 211.925 116.728H208.721V112.552H211.817ZM212.069 118.258C213.563 118.258 214.427 119.014 214.427 120.31C214.427 121.66 213.581 122.434 212.069 122.434H208.721V118.258H212.069ZM221.963 124.216C224.141 124.216 225.617 123.154 226.049 121.264H224.465C224.177 122.272 223.313 122.812 221.999 122.812C220.325 122.812 219.353 121.786 219.227 119.932L226.031 119.914V119.284C226.031 116.674 224.393 114.946 221.891 114.946C219.335 114.946 217.589 116.854 217.589 119.608C217.589 122.344 219.371 124.216 221.963 124.216ZM221.891 116.368C223.385 116.368 224.339 117.34 224.339 118.798H219.263C219.479 117.25 220.415 116.368 221.891 116.368ZM229.613 124V119.338C229.613 117.628 230.531 116.494 232.115 116.494C233.411 116.494 234.239 117.214 234.239 118.996V124H235.931V118.618C235.931 116.368 234.869 114.946 232.547 114.946C231.305 114.946 230.189 115.54 229.631 116.548L229.451 115.198H227.921V124H229.613ZM244.593 124V122.578H239.805L244.593 116.584V115.198H237.735V116.62H242.487L237.735 122.632V124H244.593ZM257.111 124.198C260.045 124.198 262.367 122.47 262.925 119.878H261.053C260.567 121.48 259.055 122.506 257.147 122.506C254.519 122.506 252.791 120.526 252.791 117.484C252.791 114.442 254.519 112.462 257.147 112.462C259.037 112.462 260.495 113.488 260.981 115.18H262.871C262.385 112.516 260.135 110.77 257.201 110.77C253.475 110.77 250.937 113.488 250.937 117.502C250.937 121.534 253.403 124.198 257.111 124.198ZM268.184 117.268C270.254 117.268 271.334 118.312 271.334 119.878C271.334 121.552 270.236 122.632 268.544 122.632C266.906 122.632 265.862 121.642 265.862 119.95H264.116C264.116 122.65 265.952 124.216 268.508 124.216C271.154 124.216 273.134 122.542 273.134 119.914C273.134 117.574 271.46 116.08 269.246 115.81L272.81 112.408V110.986H264.728V112.552H270.578L266.888 116.098V117.268H268.184ZM274.689 117.502C274.689 121.552 276.687 124.234 280.053 124.234C283.401 124.234 285.399 121.552 285.399 117.502C285.399 113.47 283.311 110.734 280.053 110.734C276.777 110.734 274.689 113.47 274.689 117.502ZM276.435 117.502C276.435 114.262 277.767 112.318 280.053 112.318C282.339 112.318 283.653 114.262 283.653 117.502C283.653 120.706 282.339 122.65 280.053 122.65C277.767 122.65 276.435 120.706 276.435 117.502ZM287.169 117.502C287.169 121.552 289.167 124.234 292.533 124.234C295.881 124.234 297.879 121.552 297.879 117.502C297.879 113.47 295.791 110.734 292.533 110.734C289.257 110.734 287.169 113.47 287.169 117.502ZM288.915 117.502C288.915 114.262 290.247 112.318 292.533 112.318C294.819 112.318 296.133 114.262 296.133 117.502C296.133 120.706 294.819 122.65 292.533 122.65C290.247 122.65 288.915 120.706 288.915 117.502ZM304.445 114.496C304.445 116.368 305.543 117.592 307.667 118.078L309.809 118.564C311.051 118.852 311.609 119.5 311.609 120.526C311.609 121.822 310.511 122.632 308.783 122.632C307.145 122.632 306.101 121.84 306.065 120.598H304.265C304.373 122.83 306.137 124.216 308.783 124.216C311.555 124.216 313.373 122.722 313.373 120.382C313.373 118.546 312.293 117.394 310.169 116.908L308.027 116.404C306.803 116.116 306.209 115.486 306.209 114.442C306.209 113.164 307.271 112.336 308.909 112.336C310.367 112.336 311.285 113.092 311.375 114.388H313.157C313.013 112.138 311.411 110.752 308.927 110.752C306.245 110.752 304.445 112.264 304.445 114.496ZM319.1 124.216C321.278 124.216 322.754 123.154 323.186 121.264H321.602C321.314 122.272 320.45 122.812 319.136 122.812C317.462 122.812 316.49 121.786 316.364 119.932L323.168 119.914V119.284C323.168 116.674 321.53 114.946 319.028 114.946C316.472 114.946 314.726 116.854 314.726 119.608C314.726 122.344 316.508 124.216 319.1 124.216ZM319.028 116.368C320.522 116.368 321.476 117.34 321.476 118.798H316.4C316.616 117.25 317.552 116.368 319.028 116.368ZM330.098 115.126C329.756 115.054 329.504 115.018 329.198 115.018C327.992 115.018 327.11 115.63 326.75 116.548L326.642 115.216H325.058V124H326.75V119.338C326.75 117.646 327.74 116.674 329.342 116.674H330.098V115.126ZM334.415 124H336.089L339.761 115.198H337.997L336.035 120.112C335.729 120.886 335.441 121.642 335.297 122.218C335.153 121.678 334.901 120.94 334.595 120.112L332.669 115.198H330.869L334.415 124ZM341.935 113.11C342.547 113.11 343.051 112.606 343.051 111.994C343.051 111.364 342.547 110.878 341.935 110.878C341.323 110.878 340.819 111.364 340.819 111.994C340.819 112.606 341.323 113.11 341.935 113.11ZM341.107 124H342.799V115.198H341.107V124ZM344.679 119.608C344.679 122.38 346.389 124.216 348.981 124.216C351.105 124.216 352.743 122.938 353.085 121.03H351.393C351.087 122.074 350.187 122.704 348.981 122.704C347.379 122.704 346.353 121.48 346.353 119.59C346.353 117.682 347.451 116.458 349.053 116.458C350.187 116.458 351.087 117.052 351.375 118.168H353.067C352.761 116.206 351.213 114.946 348.999 114.946C346.425 114.946 344.679 116.854 344.679 119.608ZM355.698 113.11C356.31 113.11 356.814 112.606 356.814 111.994C356.814 111.364 356.31 110.878 355.698 110.878C355.086 110.878 354.582 111.364 354.582 111.994C354.582 112.606 355.086 113.11 355.698 113.11ZM354.87 124H356.562V115.198H354.87V124ZM360.711 124V119.338C360.711 117.628 361.629 116.494 363.213 116.494C364.509 116.494 365.337 117.214 365.337 118.996V124H367.029V118.618C367.029 116.368 365.967 114.946 363.645 114.946C362.403 114.946 361.287 115.54 360.729 116.548L360.549 115.198H359.019V124H360.711ZM368.814 119.374C368.814 121.84 370.398 123.766 372.9 123.766C374.286 123.766 375.438 123.154 376.014 122.128V123.892C376.014 125.566 374.934 126.646 373.278 126.646C371.802 126.646 370.83 125.89 370.614 124.594H368.922C369.246 126.826 370.884 128.176 373.278 128.176C375.978 128.176 377.688 126.412 377.688 123.64V115.198H376.176L376.05 116.692C375.492 115.594 374.394 114.946 372.972 114.946C370.416 114.946 368.814 116.89 368.814 119.374ZM370.506 119.338C370.506 117.718 371.514 116.422 373.206 116.422C374.934 116.422 375.942 117.646 375.942 119.338C375.942 121.066 374.898 122.29 373.188 122.29C371.532 122.29 370.506 120.994 370.506 119.338ZM124.708 148V140.62H126.436V139.198H124.708V136.444H123.016V139.198H121.288V140.62H123.016V148H124.708ZM127.291 143.59C127.291 146.308 129.235 148.216 131.881 148.216C134.509 148.216 136.453 146.308 136.453 143.59C136.453 140.872 134.509 138.964 131.881 138.964C129.235 138.964 127.291 140.872 127.291 143.59ZM129.001 143.59C129.001 141.754 130.171 140.476 131.881 140.476C133.573 140.476 134.761 141.754 134.761 143.59C134.761 145.426 133.573 146.704 131.881 146.704C130.171 146.704 129.001 145.426 129.001 143.59ZM141.854 148.216C143.258 148.216 144.446 147.604 145.022 146.398L145.166 148H146.678V134.752H145.004V140.62C144.41 139.54 143.276 138.946 141.926 138.946C139.316 138.946 137.75 140.926 137.75 143.626C137.75 146.308 139.298 148.216 141.854 148.216ZM142.196 146.686C140.468 146.686 139.46 145.39 139.46 143.572C139.46 141.772 140.468 140.476 142.196 140.476C143.924 140.476 144.986 141.772 144.986 143.572C144.986 145.408 143.924 146.686 142.196 146.686ZM151.693 148.216C153.115 148.216 154.321 147.586 154.771 146.578L154.951 148H156.391V142.474C156.391 140.098 154.915 138.946 152.737 138.946C150.469 138.946 148.957 140.152 148.957 141.988H150.433C150.433 140.926 151.243 140.296 152.665 140.296C153.853 140.296 154.735 140.818 154.735 142.294V142.546L151.963 142.762C149.893 142.924 148.687 143.932 148.687 145.552C148.687 147.154 149.803 148.216 151.693 148.216ZM152.179 146.902C151.081 146.902 150.397 146.434 150.397 145.498C150.397 144.634 151.009 144.058 152.503 143.914L154.753 143.734V144.202C154.753 145.858 153.781 146.902 152.179 146.902ZM157.677 151.942C158.127 152.05 158.595 152.122 159.153 152.122C160.503 152.122 161.385 151.492 161.979 149.98L166.137 139.198H164.391L161.781 146.29L159.225 139.198H157.443L160.989 148.468L160.683 149.314C160.269 150.43 159.621 150.556 158.811 150.556H157.677V151.942ZM178.861 148L178.987 146.398C179.563 147.604 180.733 148.216 182.119 148.216C184.675 148.216 186.259 146.308 186.259 143.644C186.259 140.926 184.747 138.946 182.227 138.946C180.787 138.946 179.599 139.558 179.023 140.71V134.752H177.331V148H178.861ZM179.041 143.572C179.041 141.772 180.085 140.476 181.813 140.476C183.541 140.476 184.567 141.772 184.567 143.572C184.567 145.39 183.541 146.686 181.813 146.686C180.085 146.686 179.041 145.408 179.041 143.572ZM186.98 151.942C187.43 152.05 187.898 152.122 188.456 152.122C189.806 152.122 190.688 151.492 191.282 149.98L195.44 139.198H193.694L191.084 146.29L188.528 139.198H186.746L190.292 148.468L189.986 149.314C189.572 150.43 188.924 150.556 188.114 150.556H186.98V151.942ZM208.948 143.878C210.28 142.06 210.748 140.962 210.748 139.432C210.748 136.786 208.66 134.752 205.96 134.752C203.278 134.752 201.226 136.714 201.226 139.414C201.226 142.006 203.044 143.95 205.744 143.95C206.194 143.95 206.662 143.86 207.112 143.68L203.854 148H205.906L208.948 143.878ZM208.948 139.414C208.948 141.196 207.724 142.456 205.96 142.456C204.232 142.456 203.008 141.196 203.008 139.414C203.008 137.632 204.232 136.336 205.96 136.336C207.724 136.336 208.948 137.632 208.948 139.414ZM214.156 141.466C214.84 141.466 215.434 140.89 215.434 140.224C215.434 139.522 214.84 138.946 214.156 138.946C213.454 138.946 212.86 139.522 212.86 140.224C212.86 140.89 213.454 141.466 214.156 141.466ZM214.156 148.216C214.84 148.216 215.434 147.64 215.434 146.956C215.434 146.254 214.84 145.678 214.156 145.678C213.454 145.678 212.86 146.254 212.86 146.956C212.86 147.64 213.454 148.216 214.156 148.216ZM217.7 141.502C217.7 145.552 219.698 148.234 223.064 148.234C226.412 148.234 228.41 145.552 228.41 141.502C228.41 137.47 226.322 134.734 223.064 134.734C219.788 134.734 217.7 137.47 217.7 141.502ZM219.446 141.502C219.446 138.262 220.778 136.318 223.064 136.318C225.35 136.318 226.664 138.262 226.664 141.502C226.664 144.706 225.35 146.65 223.064 146.65C220.778 146.65 219.446 144.706 219.446 141.502ZM230.181 141.502C230.181 145.552 232.179 148.234 235.545 148.234C238.893 148.234 240.891 145.552 240.891 141.502C240.891 137.47 238.803 134.734 235.545 134.734C232.269 134.734 230.181 137.47 230.181 141.502ZM231.927 141.502C231.927 138.262 233.259 136.318 235.545 136.318C237.831 136.318 239.145 138.262 239.145 141.502C239.145 144.706 237.831 146.65 235.545 146.65C233.259 146.65 231.927 144.706 231.927 141.502ZM245.577 148.216C246.999 148.216 248.205 147.586 248.655 146.578L248.835 148H250.275V142.474C250.275 140.098 248.799 138.946 246.621 138.946C244.353 138.946 242.841 140.152 242.841 141.988H244.317C244.317 140.926 245.127 140.296 246.549 140.296C247.737 140.296 248.619 140.818 248.619 142.294V142.546L245.847 142.762C243.777 142.924 242.571 143.932 242.571 145.552C242.571 147.154 243.687 148.216 245.577 148.216ZM246.063 146.902C244.965 146.902 244.281 146.434 244.281 145.498C244.281 144.634 244.893 144.058 246.387 143.914L248.637 143.734V144.202C248.637 145.858 247.665 146.902 246.063 146.902ZM254.311 148V142.78C254.311 141.376 255.157 140.494 256.435 140.494C257.623 140.494 258.379 141.25 258.379 142.636V148H260.053V142.78C260.053 141.376 260.899 140.476 262.177 140.476C263.365 140.476 264.139 141.268 264.139 142.654V148H265.795V142.24C265.795 140.206 264.571 138.946 262.555 138.946C261.187 138.946 260.125 139.63 259.711 140.728C259.261 139.63 258.289 138.946 256.921 138.946C255.679 138.946 254.743 139.522 254.293 140.35L254.131 139.198H252.619V148H254.311ZM275.636 148.216C277.058 148.216 278.264 147.586 278.714 146.578L278.894 148H280.334V142.474C280.334 140.098 278.858 138.946 276.68 138.946C274.412 138.946 272.9 140.152 272.9 141.988H274.376C274.376 140.926 275.186 140.296 276.608 140.296C277.796 140.296 278.678 140.818 278.678 142.294V142.546L275.906 142.762C273.836 142.924 272.63 143.932 272.63 145.552C272.63 147.154 273.746 148.216 275.636 148.216ZM276.122 146.902C275.024 146.902 274.34 146.434 274.34 145.498C274.34 144.634 274.952 144.058 276.446 143.914L278.696 143.734V144.202C278.696 145.858 277.724 146.902 276.122 146.902ZM285.021 148V140.62H286.749V139.198H285.021V136.444H283.329V139.198H281.601V140.62H283.329V148H285.021ZM301.415 148V146.362H295.241V142.24H300.803V140.674H295.241V136.606H301.415V134.986H293.477V148H301.415ZM305.375 148V142.78C305.375 141.376 306.221 140.494 307.499 140.494C308.687 140.494 309.443 141.25 309.443 142.636V148H311.117V142.78C311.117 141.376 311.963 140.476 313.241 140.476C314.429 140.476 315.203 141.268 315.203 142.654V148H316.859V142.24C316.859 140.206 315.635 138.946 313.619 138.946C312.251 138.946 311.189 139.63 310.775 140.728C310.325 139.63 309.353 138.946 307.985 138.946C306.743 138.946 305.807 139.522 305.357 140.35L305.195 139.198H303.683V148H305.375ZM323.002 148.216C325.18 148.216 326.656 147.154 327.088 145.264H325.504C325.216 146.272 324.352 146.812 323.038 146.812C321.364 146.812 320.392 145.786 320.266 143.932L327.07 143.914V143.284C327.07 140.674 325.432 138.946 322.93 138.946C320.374 138.946 318.628 140.854 318.628 143.608C318.628 146.344 320.41 148.216 323.002 148.216ZM322.93 140.368C324.424 140.368 325.378 141.34 325.378 142.798H320.302C320.518 141.25 321.454 140.368 322.93 140.368ZM330.688 148V145.498L332.182 143.932L334.756 148H336.7L333.352 142.708L336.718 139.198H334.594L330.688 143.338V134.752H328.996V148H330.688ZM340.464 148.216C341.886 148.216 343.092 147.586 343.542 146.578L343.722 148H345.162V142.474C345.162 140.098 343.686 138.946 341.508 138.946C339.24 138.946 337.728 140.152 337.728 141.988H339.204C339.204 140.926 340.014 140.296 341.436 140.296C342.624 140.296 343.506 140.818 343.506 142.294V142.546L340.734 142.762C338.664 142.924 337.458 143.932 337.458 145.552C337.458 147.154 338.574 148.216 340.464 148.216ZM340.95 146.902C339.852 146.902 339.168 146.434 339.168 145.498C339.168 144.634 339.78 144.058 341.274 143.914L343.524 143.734V144.202C343.524 145.858 342.552 146.902 340.95 146.902ZM355.001 148.216C356.423 148.216 357.629 147.586 358.079 146.578L358.259 148H359.699V142.474C359.699 140.098 358.223 138.946 356.045 138.946C353.777 138.946 352.265 140.152 352.265 141.988H353.741C353.741 140.926 354.551 140.296 355.973 140.296C357.161 140.296 358.043 140.818 358.043 142.294V142.546L355.271 142.762C353.201 142.924 351.995 143.932 351.995 145.552C351.995 147.154 353.111 148.216 355.001 148.216ZM355.487 146.902C354.389 146.902 353.705 146.434 353.705 145.498C353.705 144.634 354.317 144.058 355.811 143.914L358.061 143.734V144.202C358.061 145.858 357.089 146.902 355.487 146.902ZM363.734 148V143.338C363.734 141.628 364.652 140.494 366.236 140.494C367.532 140.494 368.36 141.214 368.36 142.996V148H370.052V142.618C370.052 140.368 368.99 138.946 366.668 138.946C365.426 138.946 364.31 139.54 363.752 140.548L363.572 139.198H362.042V148H363.734ZM375.924 148.216C377.328 148.216 378.516 147.604 379.092 146.398L379.236 148H380.748V134.752H379.074V140.62C378.48 139.54 377.346 138.946 375.996 138.946C373.386 138.946 371.82 140.926 371.82 143.626C371.82 146.308 373.368 148.216 375.924 148.216ZM376.266 146.686C374.538 146.686 373.53 145.39 373.53 143.572C373.53 141.772 374.538 140.476 376.266 140.476C377.994 140.476 379.056 141.772 379.056 143.572C379.056 145.408 377.994 146.686 376.266 146.686ZM121.504 169.444C121.504 171.118 122.818 172.216 124.888 172.216C126.976 172.216 128.416 171.154 128.416 169.48C128.416 168.166 127.678 167.482 126.184 167.122L124.636 166.744C123.772 166.528 123.34 166.132 123.34 165.538C123.34 164.728 123.934 164.26 124.996 164.26C126.022 164.26 126.616 164.818 126.652 165.7H128.272C128.236 164.026 126.976 162.946 125.05 162.946C123.106 162.946 121.738 163.972 121.738 165.592C121.738 166.888 122.476 167.662 124.042 168.04L125.59 168.4C126.508 168.634 126.796 168.994 126.796 169.588C126.796 170.398 126.112 170.884 124.924 170.884C123.808 170.884 123.124 170.344 123.124 169.444H121.504ZM129.716 167.59C129.716 170.308 131.66 172.216 134.306 172.216C136.934 172.216 138.878 170.308 138.878 167.59C138.878 164.872 136.934 162.964 134.306 162.964C131.66 162.964 129.716 164.872 129.716 167.59ZM131.426 167.59C131.426 165.754 132.596 164.476 134.306 164.476C135.998 164.476 137.186 165.754 137.186 167.59C137.186 169.426 135.998 170.704 134.306 170.704C132.596 170.704 131.426 169.426 131.426 167.59ZM142.443 172V167.338C142.443 165.628 143.361 164.494 144.945 164.494C146.241 164.494 147.069 165.214 147.069 166.996V172H148.761V166.618C148.761 164.368 147.699 162.946 145.377 162.946C144.135 162.946 143.019 163.54 142.461 164.548L142.281 163.198H140.751V172H142.443ZM150.279 169.444C150.279 171.118 151.593 172.216 153.663 172.216C155.751 172.216 157.191 171.154 157.191 169.48C157.191 168.166 156.453 167.482 154.959 167.122L153.411 166.744C152.547 166.528 152.115 166.132 152.115 165.538C152.115 164.728 152.709 164.26 153.771 164.26C154.797 164.26 155.391 164.818 155.427 165.7H157.047C157.011 164.026 155.751 162.946 153.825 162.946C151.881 162.946 150.513 163.972 150.513 165.592C150.513 166.888 151.251 167.662 152.817 168.04L154.365 168.4C155.283 168.634 155.571 168.994 155.571 169.588C155.571 170.398 154.887 170.884 153.699 170.884C152.583 170.884 151.899 170.344 151.899 169.444H150.279ZM164.818 172L165.97 168.76H171.442L172.612 172H174.466L169.696 158.986H167.734L162.982 172H164.818ZM168.49 161.794C168.58 161.524 168.67 161.218 168.706 161.038C168.742 161.236 168.832 161.542 168.922 161.794L170.92 167.23H166.51L168.49 161.794ZM181.746 163.198V167.842C181.746 169.732 180.9 170.722 179.352 170.722C178.056 170.722 177.246 170.002 177.246 168.112V163.198H175.554V168.67C175.554 170.83 176.706 172.216 178.758 172.216C180.054 172.216 181.224 171.586 181.728 170.668L181.908 172H183.42V163.198H181.746ZM188.358 172V164.62H190.086V163.198H188.358V160.444H186.666V163.198H184.938V164.62H186.666V172H188.358ZM190.941 167.59C190.941 170.308 192.885 172.216 195.531 172.216C198.159 172.216 200.103 170.308 200.103 167.59C200.103 164.872 198.159 162.964 195.531 162.964C192.885 162.964 190.941 164.872 190.941 167.59ZM192.651 167.59C192.651 165.754 193.821 164.476 195.531 164.476C197.223 164.476 198.411 165.754 198.411 167.59C198.411 169.426 197.223 170.704 195.531 170.704C193.821 170.704 192.651 169.426 192.651 167.59ZM203.668 172V166.78C203.668 165.376 204.514 164.494 205.792 164.494C206.98 164.494 207.736 165.25 207.736 166.636V172H209.41V166.78C209.41 165.376 210.256 164.476 211.534 164.476C212.722 164.476 213.496 165.268 213.496 166.654V172H215.152V166.24C215.152 164.206 213.928 162.946 211.912 162.946C210.544 162.946 209.482 163.63 209.068 164.728C208.618 163.63 207.646 162.946 206.278 162.946C205.036 162.946 204.1 163.522 203.65 164.35L203.488 163.198H201.976V172H203.668ZM216.921 167.59C216.921 170.308 218.865 172.216 221.511 172.216C224.139 172.216 226.083 170.308 226.083 167.59C226.083 164.872 224.139 162.964 221.511 162.964C218.865 162.964 216.921 164.872 216.921 167.59ZM218.631 167.59C218.631 165.754 219.801 164.476 221.511 164.476C223.203 164.476 224.391 165.754 224.391 167.59C224.391 169.426 223.203 170.704 221.511 170.704C219.801 170.704 218.631 169.426 218.631 167.59ZM229.486 172L229.612 170.398C230.188 171.604 231.358 172.216 232.744 172.216C235.3 172.216 236.884 170.308 236.884 167.644C236.884 164.926 235.372 162.946 232.852 162.946C231.412 162.946 230.224 163.558 229.648 164.71V158.752H227.956V172H229.486ZM229.666 167.572C229.666 165.772 230.71 164.476 232.438 164.476C234.166 164.476 235.192 165.772 235.192 167.572C235.192 169.39 234.166 170.686 232.438 170.686C230.71 170.686 229.666 169.408 229.666 167.572ZM239.577 161.11C240.189 161.11 240.693 160.606 240.693 159.994C240.693 159.364 240.189 158.878 239.577 158.878C238.965 158.878 238.461 159.364 238.461 159.994C238.461 160.606 238.965 161.11 239.577 161.11ZM238.749 172H240.441V163.198H238.749V172ZM244.626 172V158.752H242.934V172H244.626ZM250.915 172.216C253.093 172.216 254.569 171.154 255.001 169.264H253.417C253.129 170.272 252.265 170.812 250.951 170.812C249.277 170.812 248.305 169.786 248.179 167.932L254.983 167.914V167.284C254.983 164.674 253.345 162.946 250.843 162.946C248.287 162.946 246.541 164.854 246.541 167.608C246.541 170.344 248.323 172.216 250.915 172.216ZM250.843 164.368C252.337 164.368 253.291 165.34 253.291 166.798H248.215C248.431 165.25 249.367 164.368 250.843 164.368Z" fill="white"/>
<rect x="104" y="91" width="292" height="99" rx="18" stroke="url(#paint13_radial_229_324)" stroke-width="2"/>
<rect x="104" y="91" width="292" height="99" rx="18" stroke="url(#paint14_radial_229_324)" stroke-width="2"/>
<rect x="104" y="91" width="292" height="99" rx="18" stroke="url(#paint15_radial_229_324)" stroke-width="2"/>
</g>
<defs>
<filter id="filter0_b_229_324" x="-42" y="-42" width="778" height="616" filterUnits="userSpaceOnUse" color-interpolation-filters="sRGB">
<feFlood flood-opacity="0" result="BackgroundImageFix"/>
<feGaussianBlur in="BackgroundImageFix" stdDeviation="21"/>
<feComposite in2="SourceAlpha" operator="in" result="effect1_backgroundBlur_229_324"/>
<feBlend mode="normal" in="SourceGraphic" in2="effect1_backgroundBlur_229_324" result="shape"/>
</filter>
<filter id="filter1_b_229_324" x="398" y="185" width="239" height="127" filterUnits="userSpaceOnUse" color-interpolation-filters="sRGB">
<feFlood flood-opacity="0" result="BackgroundImageFix"/>
<feGaussianBlur in="BackgroundImageFix" stdDeviation="21"/>
<feComposite in2="SourceAlpha" operator="in" result="effect1_backgroundBlur_229_324"/>
<feBlend mode="normal" in="SourceGraphic" in2="effect1_backgroundBlur_229_324" result="shape"/>
</filter>
<filter id="filter2_b_229_324" x="349" y="359" width="288" height="185" filterUnits="userSpaceOnUse" color-interpolation-filters="sRGB">
<feFlood flood-opacity="0" result="BackgroundImageFix"/>
<feGaussianBlur in="BackgroundImageFix" stdDeviation="21"/>
<feComposite in2="SourceAlpha" operator="in" result="effect1_backgroundBlur_229_324"/>
<feBlend mode="normal" in="SourceGraphic" in2="effect1_backgroundBlur_229_324" result="shape"/>
</filter>
<filter id="filter3_b_229_324" x="61" y="48" width="378" height="185" filterUnits="userSpaceOnUse" color-interpolation-filters="sRGB">
<feFlood flood-opacity="0" result="BackgroundImageFix"/>
<feGaussianBlur in="BackgroundImageFix" stdDeviation="21"/>
<feComposite in2="SourceAlpha" operator="in" result="effect1_backgroundBlur_229_324"/>
<feBlend mode="normal" in="SourceGraphic" in2="effect1_backgroundBlur_229_324" result="shape"/>
</filter>
<radialGradient id="paint0_radial_229_324" cx="0" cy="0" r="1" gradientUnits="userSpaceOnUse" gradientTransform="rotate(39.4037) scale(898.158 726.535)">
<stop stop-color="white" stop-opacity="0.4"/>
<stop offset="1" stop-color="white" stop-opacity="0"/>
</radialGradient>
<radialGradient id="paint1_radial_229_324" cx="0" cy="0" r="1" gradientUnits="userSpaceOnUse" gradientTransform="translate(535.151 161.832) rotate(-162.278) scale(595.812 328.505)">
<stop offset="0.00697081" stop-color="#A8A8A8"/>
<stop offset="1" stop-color="#BBA18F"/>
</radialGradient>
<radialGradient id="paint2_radial_229_324" cx="0" cy="0" r="1" gradientUnits="userSpaceOnUse" gradientTransform="translate(716 -8.08509) rotate(144.953) scale(940.509 713.968)">
<stop stop-color="#F68537"/>
<stop offset="1" stop-color="#F79E61" stop-opacity="0.1"/>
</radialGradient>
<radialGradient id="paint3_radial_229_324" cx="0" cy="0" r="1" gradientUnits="userSpaceOnUse" gradientTransform="translate(32 532) rotate(-38.461) scale(873.528 747.565)">
<stop offset="3.78877e-08" stop-color="white" stop-opacity="0.12"/>
<stop offset="1" stop-color="white" stop-opacity="0.4"/>
</radialGradient>
<radialGradient id="paint4_radial_229_324" cx="0" cy="0" r="1" gradientUnits="userSpaceOnUse" gradientTransform="translate(440 227) rotate(16.5574) scale(161.705 72.8474)">
<stop stop-color="white" stop-opacity="0.4"/>
<stop offset="1" stop-color="white" stop-opacity="0"/>
</radialGradient>
<radialGradient id="paint5_radial_229_324" cx="0" cy="0" r="1" gradientUnits="userSpaceOnUse" gradientTransform="translate(559.522 240.08) rotate(-173.403) scale(127.6 27.6903)">
<stop offset="0.00697081" stop-color="#A8A8A8"/>
<stop offset="1" stop-color="#BBA18F"/>
</radialGradient>
<radialGradient id="paint6_radial_229_324" cx="0" cy="0" r="1" gradientUnits="userSpaceOnUse" gradientTransform="translate(570.2 232.037) rotate(165.058) scale(147.234 58.8837)">
<stop stop-color="#F68537"/>
<stop offset="1" stop-color="#FFDEC7"/>
</radialGradient>
<radialGradient id="paint7_radial_229_324" cx="0" cy="0" r="1" gradientUnits="userSpaceOnUse" gradientTransform="translate(568.452 268.509) rotate(-158.627) scale(101.942 63.372)">
<stop offset="0.0038041" stop-color="white" stop-opacity="0.22"/>
<stop offset="0.0670888" stop-color="white" stop-opacity="0"/>
<stop offset="1" stop-color="white" stop-opacity="0.31"/>
</radialGradient>
<radialGradient id="paint8_radial_229_324" cx="0" cy="0" r="1" gradientUnits="userSpaceOnUse" gradientTransform="translate(391 401) rotate(27.9498) scale(230.937 157.687)">
<stop stop-color="white" stop-opacity="0.4"/>
<stop offset="1" stop-color="white" stop-opacity="0"/>
</radialGradient>
<radialGradient id="paint9_radial_229_324" cx="0" cy="0" r="1" gradientUnits="userSpaceOnUse" gradientTransform="translate(548.307 431.724) rotate(-168.338) scale(170.343 64.122)">
<stop offset="0.00697081" stop-color="#A8A8A8"/>
<stop offset="1" stop-color="#BBA18F"/>
</radialGradient>
<radialGradient id="paint10_radial_229_324" cx="0" cy="0" r="1" gradientUnits="userSpaceOnUse" gradientTransform="translate(562.36 412.83) rotate(154.533) scale(207.377 129.24)">
<stop stop-color="#F68537"/>
<stop offset="1" stop-color="#FFDEC7"/>
</radialGradient>
<radialGradient id="paint11_radial_229_324" cx="0" cy="0" r="1" gradientUnits="userSpaceOnUse" gradientTransform="translate(560.059 498.499) rotate(-145.068) scale(152.399 131.045)">
<stop offset="0.0038041" stop-color="white" stop-opacity="0.22"/>
<stop offset="0.0670888" stop-color="white" stop-opacity="0"/>
<stop offset="1" stop-color="white" stop-opacity="0.31"/>
</radialGradient>
<radialGradient id="paint12_radial_229_324" cx="0" cy="0" r="1" gradientUnits="userSpaceOnUse" gradientTransform="translate(103 90) rotate(20.2118) scale(313.292 167.516)">
<stop stop-color="white" stop-opacity="0.4"/>
<stop offset="1" stop-color="white" stop-opacity="0"/>
</radialGradient>
<radialGradient id="paint13_radial_229_324" cx="0" cy="0" r="1" gradientUnits="userSpaceOnUse" gradientTransform="translate(329.707 120.724) rotate(-171.85) scale(242.88 64.8123)">
<stop offset="0.00697081" stop-color="#A8A8A8"/>
<stop offset="1" stop-color="#BBA18F"/>
</radialGradient>
<radialGradient id="paint14_radial_229_324" cx="0" cy="0" r="1" gradientUnits="userSpaceOnUse" gradientTransform="translate(349.96 101.83) rotate(161.713) scale(284.179 135.919)">
<stop stop-color="#F68537"/>
<stop offset="1" stop-color="#FFDEC7"/>
</radialGradient>
<radialGradient id="paint15_radial_229_324" cx="0" cy="0" r="1" gradientUnits="userSpaceOnUse" gradientTransform="translate(346.644 187.499) rotate(-154.144) scale(200.094 143.842)">
<stop offset="0.0038041" stop-color="white" stop-opacity="0.22"/>
<stop offset="0.0670888" stop-color="white" stop-opacity="0"/>
<stop offset="1" stop-color="white" stop-opacity="0.31"/>
</radialGradient>
</defs>
</svg>
