<svg width="189" height="129" fill="none" xmlns="http://www.w3.org/2000/svg">
  <path d="m3.119 0 26.023 6.055c-9.398 34.19 11.914 68.744 47.52 77.02a69.88 69.88 0 0 0 36.956-1.551 69.805 69.805 0 0 0 30.974-20.195 64.119 64.119 0 0 0 13.687-25.295l26.007 6.042a89.957 89.957 0 0 1-19.205 35.504 97.919 97.919 0 0 1-43.456 28.33 98.022 98.022 0 0 1-51.849 2.166C19.821 96.474-10.077 47.992 3.12 0Z" fill="url(#a)"/>
  <path d="m33.304 24.466-4.162-18.41a60.735 60.735 0 0 0-.737 29.6l4.162 18.41a60.73 60.73 0 0 1 .737-29.6Z" fill="url(#b)"/>
  <path d="M165.081 77.58a97.91 97.91 0 0 1-43.456 28.33 98.022 98.022 0 0 1-51.849 2.166C34.527 99.889 9.265 73.341 2.081 41.56L6.243 59.97c7.184 31.782 32.446 58.329 67.695 66.516a98.02 98.02 0 0 0 51.848-2.166 97.916 97.916 0 0 0 43.457-28.33 89.984 89.984 0 0 0 19.205-35.504l-4.162-18.41a89.957 89.957 0 0 1-19.205 35.503Z" fill="url(#c)"/>
  <defs>
    <linearGradient id="a" x1="62.409" y1="-41.66" x2="205.075" y2="350.365" gradientUnits="userSpaceOnUse">
      <stop stop-color="#FFE067"/>
      <stop offset="1" stop-color="#FEC34A"/>
    </linearGradient>
    <linearGradient id="b" x1="132.574" y1="153.618" x2="20.289" y2="16.84" gradientUnits="userSpaceOnUse">
      <stop stop-color="#FE893E"/>
      <stop offset="1" stop-color="#FFAD44"/>
    </linearGradient>
    <linearGradient id="c" x1="38.561" y1="112.041" x2="153.03" y2="7.724" gradientUnits="userSpaceOnUse">
      <stop stop-color="#FE893E"/>
      <stop offset="1" stop-color="#FFAD44"/>
    </linearGradient>
  </defs>
</svg>
